<svg viewBox="0 0 70 70" fill="none" xmlns="http://www.w3.org/2000/svg"><rect width="70" height="70" rx="10" fill="#DB6300"/><path d="M30 31.25h4v2.5h-4v-2.5Z" fill="#fff"/><path d="m64.14 27.51-6.8-1.21a32.64 32.64 0 0 0-3.84-2.55 28.1 28.1 0 0 0-13.93-3.75h-1.18a28.8 28.8 0 0 0-16.23 5.17l-3.43 2.34a20.14 20.14 0 0 0-11.44 3.88 6.08 6.08 0 0 0-2.29 4.94v7.42c0 .69.45 1.25 1 1.25h3.36c1.09 3.9 4.5 5.94 7.62 4.58a6.9 6.9 0 0 0 3.66-4.58h26.72c1.09 3.9 4.5 5.94 7.62 4.58a6.9 6.9 0 0 0 3.66-4.58h.36c.13 0 .25-.03.37-.1l3.24-1.62c1.45-.71 2.4-2.46 2.39-4.4v-10.13c0-.62-.37-1.15-.86-1.24Zm-45.22 15.99c-.44 2.7-2.56 4.45-4.72 3.9-2.17-.56-3.56-3.2-3.12-5.9.44-2.71 2.56-4.45 4.72-3.9 1.86.47 3.2 2.52 3.2 4.9 0 .33-.03.67-.08 1Zm18.08-1h-16c0-4.14-2.69-7.5-6-7.5s-6 3.36-6 7.5h-2v-6.17c0-1.15.5-2.2 1.29-2.77a18.4 18.4 0 0 1 10.71-3.56h18v12.5Zm0-15h-14.08l.2-.13a27.29 27.29 0 0 1 13.88-4.82v4.95Zm2-5h.57c4.03 0 8.02.95 11.76 2.82l-1.74 2.18h-10.59v-5Zm17.92 21c-.44 2.7-2.56 4.45-4.72 3.9-2.17-.56-3.56-3.2-3.12-5.9.44-2.71 2.56-4.45 4.72-3.9 1.86.47 3.2 2.52 3.2 4.9 0 .33-.03.67-.08 1Zm6.08-12.25h-3v2.5h3v5.12c0 .92-.45 1.75-1.13 2.1l-2.87 1.43-.02-.34c0-.12 0-.25-.02-.38 0-.12-.03-.25-.04-.37l-.05-.37-.08-.35-.07-.36-.1-.34-.1-.34-.13-.33-.13-.33-.14-.3-.16-.31-.16-.28-.18-.3-.19-.24-.2-.28-.2-.23-.22-.25-.23-.22-.23-.21-.26-.2a2.9 2.9 0 0 0-.24-.17l-.27-.17-.25-.15-.3-.13-.25-.12-.35-.1-.22-.08-.38-.07c-.07-.02-.14-.04-.22-.04a4.9 4.9 0 0 0-.6-.04c-3.32 0-6 3.36-6 7.5h-8.01v-12.5h11c.27 0 .52-.13.7-.37l2.6-3.24c1.09.65 2.15 1.37 3.17 2.17.12.1.25.15.39.18l6.14 1.1v1.4Z" fill="#fff"/></svg>