<svg viewBox="0 0 60 60" fill="none" xmlns="http://www.w3.org/2000/svg"><rect width="60" height="60" rx="8" fill="#EA880F"/><path d="M32.22 29.25v2.45c6.13.61 9.78 2.74 9.78 4.34 0 1.88-5.05 4.5-13.27 4.5-8.23 0-13.27-2.62-13.27-4.5 0-1.61 3.7-3.76 9.9-4.35v-2.45c-6.46.6-12.36 2.94-12.36 6.8 0 4.52 8.1 6.96 15.73 6.96 7.62 0 15.73-2.44 15.73-6.96 0-3.84-5.82-6.17-12.24-6.8Z" fill="#fff"/><path d="M45.74 14.07a1.15 1.15 0 0 0-1.11-.06l-2.04.99a6.87 6.87 0 0 1-6.15-.08 6.85 6.85 0 0 0-6.41.06v-.74a1.24 1.24 0 0 0-2.47 0v22.12a1.23 1.23 0 0 0 2.47 0v-11.3a6.9 6.9 0 0 1 6.4-.06 6.88 6.88 0 0 0 6.16.08l3.04-1.48c.4-.19.66-.6.66-1.03v-7.52c0-.4-.21-.77-.55-.98Z" fill="#fff"/></svg>