<svg viewBox="0 0 70 71" fill="none" xmlns="http://www.w3.org/2000/svg"><path d="M32.98 35.29a1.37 1.37 0 1 0 1.93 1.93 1.37 1.37 0 0 0-1.93-1.93Z" fill="#EEAA2B"/><path d="M54.72 4.2c-2.35 1.82-2.99 2.75-11.3 10.99l-5-.81 2.3-2.3a4.1 4.1 0 1 0-5.8-5.8l-6.47 6.47-22.61-3.68a4.62 4.62 0 0 0-3.45 8.29l22.53 16.32-4.22 4.22a34.3 34.3 0 0 0-4.53 5.91l-10.5-3.09a4.42 4.42 0 0 0-3.77 7.88l8.62 5.96c-1.5 3.31-2.41 5.7-2.46 5.81a1.37 1.37 0 0 0 1.77 1.77c.1-.04 2.5-.96 5.81-2.46l5.97 8.62a4.42 4.42 0 0 0 7.87-3.76l-3.1-10.51a34.33 34.33 0 0 0 5.93-4.53l4.21-4.22 16.32 22.53a4.61 4.61 0 0 0 8.3-3.45l-3.69-22.6 6.46-6.47a4.1 4.1 0 1 0-5.8-5.8l-2.28 2.29-.82-4.99c8.25-8.33 9.17-8.95 10.99-11.3 4.22-5.47 5.2-11 2.46-13.74-2.75-2.75-8.27-1.77-13.74 2.45Zm-17.87 4.02a1.37 1.37 0 1 1 1.93 1.93l-3.68 3.68-3.33-.54 5.08-5.07Zm-32.86 6.92a1.88 1.88 0 0 1 1.4-3.37l35.64 5.8-14.15 14.15-22.89-16.57Zm-.76 28.63c.43-.43 1.07-.6 1.66-.42l9.83 2.89c-1 1.76-2.02 3.7-3.03 5.8l-8.23-5.7a1.68 1.68 0 0 1-.23-2.57Zm23.2 23.2c-.74.74-1.97.64-2.58-.23l-5.7-8.23a93.77 93.77 0 0 0 5.82-3.03l2.88 9.83c.18.59.02 1.23-.42 1.66Zm33.62-35.55a1.37 1.37 0 1 1 1.93 1.94l-5.07 5.07-.54-3.33 3.68-3.68Zm-1.62 33.38a1.88 1.88 0 0 1-3.38 1.4l-16.57-22.88 14.15-14.15 5.8 35.63Zm-28.06-17.24c-1.5 1.5-3.7 3.13-6.54 4.83a101.3 101.3 0 0 1-12 5.98 99.36 99.36 0 0 1 6.11-12.21 33.85 33.85 0 0 1 4.7-6.33c33.4-33.32 31.42-31.6 33.44-33.22a7.1 7.1 0 0 1 5.6 1.9 7.1 7.1 0 0 1 1.91 5.6c-1.62 2.04.08.08-33.22 33.45Zm35.56-37.03a9.12 9.12 0 0 0-6.25-6.26c1.98-1 5.3-2.13 6.84-.6 1.22 1.22.91 3.9-.59 6.86Z" fill="#EEAA2B"/><path d="m40.71 27.56-3.86 3.86a1.37 1.37 0 1 0 1.93 1.94l3.87-3.87a1.37 1.37 0 1 0-1.94-1.93Zm7.74-7.74-3.87 3.87a1.37 1.37 0 0 0 1.93 1.93l3.87-3.87a1.37 1.37 0 0 0-1.93-1.93Z" fill="#EEAA2B"/></svg>