<svg viewBox="0 0 73 71" fill="none" xmlns="http://www.w3.org/2000/svg"><path d="M6.93 11.45c.26 0 .51-.1.71-.28l.78-.68a1.06 1.06 0 1 0-1.38-1.62l-.82.72a1.06 1.06 0 0 0 .71 1.86Zm28.77-8.76a34.53 34.53 0 0 1 2.28.39 1.06 1.06 0 0 0 .21-2.1 36.7 36.7 0 0 0-2.18-.4 1.06 1.06 0 1 0-.3 2.11Zm16.97 7.56c.54.44 1.06.9 1.57 1.38a1.06 1.06 0 0 0 1.5-.05c.4-.43.38-1.1-.05-1.5-.53-.5-1.1-1-1.66-1.47a1.06 1.06 0 0 0-1.36 1.64Zm-10.87-6.1c.65.23 1.3.47 1.95.74a1.06 1.06 0 0 0 1.39-.58 1.06 1.06 0 0 0-.58-1.39c-.69-.28-1.39-.54-2.08-.78a1.06 1.06 0 0 0-.69 2.01Zm-12.39-1.8h.04c.7-.02 1.4-.03 2.1-.01a1.06 1.06 0 1 0 .04-2.13 37.8 37.8 0 0 0-2.21.02 1.06 1.06 0 0 0 .03 2.12Zm32.25 19.3a1.06 1.06 0 1 0 1.9-.94 36.6 36.6 0 0 0-1.03-1.96 1.06 1.06 0 0 0-1.85 1.05c.34.6.67 1.23.98 1.85Zm-3.26-5.35a1.06 1.06 0 1 0 1.71-1.26c-.43-.6-.9-1.18-1.37-1.74a1.06 1.06 0 0 0-1.63 1.36c.45.53.88 1.09 1.3 1.64Zm4.86 9.2c.23.65.44 1.32.62 2a1.06 1.06 0 0 0 2.05-.58c-.2-.7-.42-1.42-.66-2.12a1.06 1.06 0 0 0-2.01.7Zm-40.25-22.34c.08 0 .16 0 .23-.02.68-.15 1.37-.28 2.06-.4a1.06 1.06 0 0 0-.34-2.1c-.72.12-1.46.26-2.17.42a1.06 1.06 0 0 0 .22 2.1Zm24.5 3.54c.6.34 1.2.7 1.8 1.08a1.06 1.06 0 0 0 1.46-.32c.32-.5.18-1.15-.32-1.47-.62-.4-1.26-.78-1.9-1.14a1.06 1.06 0 1 0-1.04 1.85Zm-30.64-1.58c.14 0 .28-.03.41-.08.64-.27 1.3-.53 1.95-.76a1.06 1.06 0 0 0-.7-2c-.7.24-1.4.51-2.08.8a1.06 1.06 0 0 0 .42 2.04Zm-5.69 3.04c.2 0 .4-.05.58-.17a40.5 40.5 0 0 1 1.78-1.1 1.06 1.06 0 0 0-1.06-1.84c-.64.37-1.27.76-1.89 1.16a1.06 1.06 0 0 0 .59 1.95Zm54.48 22.22c-.59.09-.98.63-.9 1.21l.14 1.02a1.06 1.06 0 0 0 2.11-.25l-.14-1.09a1.06 1.06 0 0 0-1.21-.89Zm-52.31-2.03c0-.6-.48-1.07-1.07-1.07h-2.04a1.06 1.06 0 1 0 0 2.13h2.04c.6 0 1.07-.48 1.07-1.06Zm2.39 3.8h-2.04a1.06 1.06 0 1 0 0 2.13h2.04a1.06 1.06 0 0 0 0-2.13Zm-4.87 9.58h-2.04a1.06 1.06 0 1 0 0 2.13h2.04a1.06 1.06 0 0 0 0-2.13Zm21.87-30.47h-2.05a1.06 1.06 0 1 0 0 2.13h2.05a1.06 1.06 0 0 0 0-2.13Zm7.03 40.97c0-.58-.48-1.06-1.07-1.06h-2.04a1.06 1.06 0 1 0 0 2.13h2.04c.59 0 1.07-.48 1.07-1.07Zm-5.54 2.87h-2.04a1.06 1.06 0 1 0 0 2.13h2.04a1.06 1.06 0 0 0 0-2.13Z" fill="#0600AE"/><path d="M71.57 37.33a3.86 3.86 0 0 0-2.84-1.13 11.3 11.3 0 0 0-7.45 3.15 31.23 31.23 0 0 0-.64-9.33 30.68 30.68 0 0 0-29.95-23.93 30.5 30.5 0 0 0-23.3 10.72 30.7 30.7 0 0 0 37.56 47.17l2.19 4.82a2.4 2.4 0 0 0 3.88.7l1.58-1.59c.43-.42.68-.99.7-1.58l.2-4.18 4.12-3.74 5.05 7.63a2.39 2.39 0 0 0 3.7.38l1.59-1.6c.54-.53.79-1.3.67-2.07l-2-12.5 2.3-2.03a11.3 11.3 0 0 0 3.77-8.05 3.86 3.86 0 0 0-1.13-2.84Zm-24.49-23.94a28.56 28.56 0 0 1 11.8 18.76h-17.54a2.38 2.38 0 0 1-2.4-2.39 2.4 2.4 0 0 1 2.4-2.4h4.25a4.5 4.5 0 0 0 4.52-4.51c0-2.5-2.03-4.52-4.52-4.52h-1.97a2.46 2.46 0 0 1-2.47-2.47 2.47 2.47 0 0 1 2.47-2.47h3.46Zm-16.39 51.96a28.4 28.4 0 0 1-15.17-4.37h7.29a5.12 5.12 0 0 0 5.15-5.14 5.15 5.15 0 0 0-5.15-5.15h-3.77a1.44 1.44 0 0 1-1.45-1.45c0-.8.65-1.45 1.45-1.45h13.88a6 6 0 0 0 6.03-6.03c0-3.33-2.7-6.04-6.03-6.04h-5.5a4.03 4.03 0 0 1-4.02-4.02v-.34a3.65 3.65 0 0 1 3.68-3.68 5.58 5.58 0 0 0 5.62-5.62c0-3.1-2.52-5.62-5.61-5.62h-7.25a1.06 1.06 0 1 0 0 2.13h7.25a3.5 3.5 0 0 1 0 6.98 5.77 5.77 0 0 0-5.82 5.81v.34a6.15 6.15 0 0 0 6.15 6.15h5.5a3.9 3.9 0 0 1 0 7.81h-13.88a3.58 3.58 0 0 0 0 7.16h3.77a3.02 3.02 0 0 1 0 6.04h-10.25a28.57 28.57 0 0 1-3.87-40.29h6.17a1.06 1.06 0 1 0 0-2.13h-4.2a28.47 28.47 0 0 1 32.85-5.18 4.6 4.6 0 0 0 .11 9.2h1.97a2.4 2.4 0 0 1 0 4.78h-4.25a4.53 4.53 0 0 0 0 9.04h17.8a28.56 28.56 0 0 1-.39 7.86l-.1.12-5.49-.87a1.06 1.06 0 1 0-.33 2.1l4.12.65-5.02 5.54-7.9-5.23a.26.26 0 0 1-.13-.2c0-.06 0-.14.08-.22l1.59-1.59a.27.27 0 0 1 .23-.07l2.09.33a1.06 1.06 0 0 0 .33-2.1l-2.08-.33a2.4 2.4 0 0 0-2.07.67l-1.6 1.59a2.39 2.39 0 0 0 .38 3.7l7.65 5.05-3.75 4.12-4.18.2a2.4 2.4 0 0 0-1.58.7l-1.6 1.58a2.4 2.4 0 0 0 .71 3.88l2.33 1.06a28.4 28.4 0 0 1-11.74 2.53Zm35.76-2.02-1.59 1.58a.27.27 0 0 1-.22.08.26.26 0 0 1-.2-.12l-5.22-7.9 5.53-5.02 1.78 11.14a.27.27 0 0 1-.08.23Zm1.07-16.7-3.96 3.51-11.82 10.73c-.2.2-.33.46-.35.74l-.2 4.62a.31.31 0 0 1-.09.18l-1.59 1.59a.26.26 0 0 1-.24.07.26.26 0 0 1-.2-.15l-2.36-5.2a1.1 1.1 0 0 0-.53-.53l-5.2-2.36a.26.26 0 0 1-.15-.2.26.26 0 0 1 .07-.24l1.6-1.6a.27.27 0 0 1 .17-.07l4.62-.21c.28-.02.55-.14.74-.35l14.24-15.78a9.15 9.15 0 0 1 6.58-3.06 1.7 1.7 0 0 1 1.72 1.78 9.15 9.15 0 0 1-3.05 6.53Z" fill="#0600AE"/></svg>