<svg viewBox="0 0 21 21" fill="none" xmlns="http://www.w3.org/2000/svg"><path d="M10.5 0a10.5 10.5 0 1 0 0 21 10.5 10.5 0 0 0 0-21Zm5.05 7.91v.34c0 3.44-2.62 7.4-7.4 7.4a7.38 7.38 0 0 1-4-1.16 5.22 5.22 0 0 0 3.86-1.08 2.6 2.6 0 0 1-2.44-1.8c.4.05.77.05 1.18-.05a2.6 2.6 0 0 1-2.09-2.56v-.03c.35.2.75.32 1.18.33a2.6 2.6 0 0 1-.8-3.48 7.39 7.39 0 0 0 5.36 2.73 2.6 2.6 0 0 1 4.44-2.39 5.14 5.14 0 0 0 1.66-.62c-.2.6-.6 1.1-1.15 1.43.53-.06 1.03-.2 1.5-.4-.35.52-.8.98-1.3 1.34Z" fill="#E6E6E6"/></svg>