<svg viewBox="0 0 204 29" fill="none" xmlns="http://www.w3.org/2000/svg"><path d="M.28 6.38v-4.56h21.5v4.56h-8.01v21.62h-5.48v-21.62h-8.01Zm22.9 21.62v-19.64h5.28v3.43h.2a4.74 4.74 0 0 1 4.72-3.7 8.24 8.24 0 0 1 1.72.18v4.84a9.53 9.53 0 0 0-2.3-.3c-.8 0-1.52.18-2.15.53a3.86 3.86 0 0 0-2.02 3.55v11.11h-5.45Zm19.77.37a8.18 8.18 0 0 1-3.35-.65 5.4 5.4 0 0 1-2.33-1.96 5.86 5.86 0 0 1-.84-3.24c0-1.1.2-2.01.6-2.75.4-.74.95-1.34 1.64-1.8a8.2 8.2 0 0 1 2.35-1.02c.88-.23 1.81-.39 2.78-.48a76.6 76.6 0 0 0 2.77-.33c.7-.11 1.2-.28 1.52-.49.31-.21.47-.53.47-.95v-.07c0-.81-.26-1.44-.77-1.88a3.15 3.15 0 0 0-2.14-.67c-.98 0-1.76.22-2.34.66a3 3 0 0 0-1.15 1.6l-5.04-.4a6.84 6.84 0 0 1 4.41-5.12 11.1 11.1 0 0 1 4.14-.71c1.1 0 2.14.13 3.13.38 1 .26 1.9.65 2.68 1.19a5.78 5.78 0 0 1 2.53 5.08v13.24h-5.17v-2.72h-.15a5.54 5.54 0 0 1-3.17 2.7c-.74.26-1.6.4-2.57.4Zm1.56-3.76c.8 0 1.5-.16 2.12-.47a3.7 3.7 0 0 0 1.44-1.3 3.4 3.4 0 0 0 .53-1.86v-2.08c-.17.1-.4.21-.7.3a12.8 12.8 0 0 1-2.09.44l-1 .14c-.63.1-1.2.24-1.67.45-.48.2-.85.48-1.11.83a2 2 0 0 0-.4 1.28 2 2 0 0 0 .8 1.7c.55.38 1.24.57 2.08.57Zm31.33-16.25-6.87 19.64h-6.14l-6.86-19.64h5.75l4.08 14.05h.2l4.07-14.05h5.77Zm11.1 20.02c-2.02 0-3.76-.4-5.22-1.22a8.4 8.4 0 0 1-3.35-3.5 11.58 11.58 0 0 1-1.17-5.39c0-2.02.39-3.8 1.17-5.32a8.7 8.7 0 0 1 3.31-3.56 9.66 9.66 0 0 1 5.04-1.28c1.3 0 2.5.2 3.62.62a8.03 8.03 0 0 1 4.9 4.98c.48 1.24.71 2.7.71 4.37v1.5h-16.58v-3.38h11.45c0-.78-.17-1.48-.5-2.08a3.66 3.66 0 0 0-1.43-1.42 4.05 4.05 0 0 0-2.08-.53c-.83 0-1.56.2-2.2.58a4 4 0 0 0-1.48 1.52 4.3 4.3 0 0 0-.55 2.1v3.22c0 .97.18 1.8.54 2.52.36.7.88 1.25 1.54 1.63.67.39 1.46.58 2.37.58.6 0 1.16-.09 1.66-.26s.93-.42 1.3-.76c.35-.35.62-.76.8-1.26l5.05.34a6.88 6.88 0 0 1-1.58 3.17 7.9 7.9 0 0 1-3.04 2.1c-1.23.49-2.66.73-4.28.73Zm18.01-26.56v26.18h-5.44v-26.18h5.44Zm4.36 26.18v-19.64h5.45v19.64h-5.45Zm2.74-22.17c-.81 0-1.5-.27-2.08-.8a2.61 2.61 0 0 1 0-3.89 2.93 2.93 0 0 1 2.08-.82c.8 0 1.5.28 2.07.82a2.6 2.6 0 0 1 0 3.89c-.57.53-1.26.8-2.07.8Zm11.62 2.53 3.6 6.87 3.7-6.87h5.59l-5.69 9.82 5.84 9.82h-5.56l-3.87-6.79-3.81 6.79h-5.63l5.83-9.82-5.62-9.82h5.62Z" fill="#DB6300"/><path d="M148.23 28v-26.18h10.33c1.98 0 3.68.38 5.07 1.14a7.7 7.7 0 0 1 3.2 3.13 9.3 9.3 0 0 1 1.11 4.6 9.2 9.2 0 0 1-1.12 4.6 7.76 7.76 0 0 1-3.26 3.1 10.95 10.95 0 0 1-5.14 1.12h-6.59v-4.43h5.7c1.06 0 1.94-.19 2.63-.55a3.7 3.7 0 0 0 1.56-1.55c.34-.67.52-1.43.52-2.29 0-.87-.18-1.63-.52-2.28a3.5 3.5 0 0 0-1.56-1.52 5.7 5.7 0 0 0-2.66-.55h-3.74v21.66h-5.53Zm23.2 0v-19.64h5.28v3.43h.2a4.74 4.74 0 0 1 4.72-3.7 8.26 8.26 0 0 1 1.72.18v4.84a9.53 9.53 0 0 0-2.3-.3c-.8 0-1.52.18-2.15.53a3.86 3.86 0 0 0-2.02 3.55v11.11h-5.44Zm22.7.38c-2 0-3.71-.42-5.16-1.26a8.66 8.66 0 0 1-3.34-3.56 11.45 11.45 0 0 1-1.17-5.3c0-2.03.4-3.8 1.17-5.32a8.55 8.55 0 0 1 3.34-3.55 9.98 9.98 0 0 1 5.15-1.28c1.99 0 3.7.42 5.14 1.28a8.53 8.53 0 0 1 3.35 3.55 11.43 11.43 0 0 1 1.18 5.32c0 2.01-.4 3.78-1.18 5.3a8.63 8.63 0 0 1-3.35 3.56 10 10 0 0 1-5.14 1.26Zm.02-4.22c.9 0 1.66-.25 2.26-.76a4.76 4.76 0 0 0 1.37-2.12c.31-.9.47-1.92.47-3.06 0-1.14-.16-2.16-.47-3.06-.3-.89-.76-1.6-1.37-2.12a3.35 3.35 0 0 0-2.26-.78c-.91 0-1.68.26-2.3.78a4.79 4.79 0 0 0-1.4 2.12 9.4 9.4 0 0 0-.46 3.06c0 1.14.16 2.16.47 3.06.31.89.77 1.6 1.39 2.12a3.5 3.5 0 0 0 2.3.76Z" fill="#474747"/></svg>