<svg xmlns="http://www.w3.org/2000/svg"><style>:root svg:not(:target){display:none}</style><svg viewBox="0 0 50 50" fill="none" id="arrow-next"><path d="M0 6.25a6.25 6.25 0 0 1 6.25-6.25h37.5a6.25 6.25 0 0 1 6.25 6.25v37.5a6.25 6.25 0 0 1-6.25 6.25h-37.5a6.25 6.25 0 0 1-6.25-6.25v-37.5Zm14.06 20.31h18.1l-6.7 6.7a1.56 1.56 0 1 0 2.2 2.22l9.38-9.37a1.56 1.56 0 0 0 0-2.22l-9.37-9.37a1.57 1.57 0 0 0-2.21 2.21l6.7 6.7h-18.1a1.56 1.56 0 0 0 0 3.13Z" fill="#EEAA2B"></path></svg><svg viewBox="0 0 50 50" fill="none" id="arrow-previous"><path d="M50 43.75a6.25 6.25 0 0 1-6.25 6.25h-37.5a6.25 6.25 0 0 1-6.25-6.25v-37.5a6.25 6.25 0 0 1 6.25-6.25h37.5a6.25 6.25 0 0 1 6.25 6.25v37.5Zm-14.06-20.31h-18.1l6.7-6.7a1.57 1.57 0 0 0-2.2-2.22l-9.38 9.37a1.56 1.56 0 0 0 0 2.22l9.37 9.37a1.57 1.57 0 0 0 2.21-2.21l-6.7-6.7h18.1a1.56 1.56 0 0 0 0-3.13Z" fill="#F1F1F1"></path></svg><svg viewBox="0 0 70 70" fill="none" id="benefits-car"><rect width="70" height="70" rx="10" fill="#DB6300"></rect><path d="M30 31.25h4v2.5h-4v-2.5Z" fill="#fff"></path><path d="m64.14 27.51-6.8-1.21a32.64 32.64 0 0 0-3.84-2.55 28.1 28.1 0 0 0-13.93-3.75h-1.18a28.8 28.8 0 0 0-16.23 5.17l-3.43 2.34a20.14 20.14 0 0 0-11.44 3.88 6.08 6.08 0 0 0-2.29 4.94v7.42c0 .69.45 1.25 1 1.25h3.36c1.09 3.9 4.5 5.94 7.62 4.58a6.9 6.9 0 0 0 3.66-4.58h26.72c1.09 3.9 4.5 5.94 7.62 4.58a6.9 6.9 0 0 0 3.66-4.58h.36c.13 0 .25-.03.37-.1l3.24-1.62c1.45-.71 2.4-2.46 2.39-4.4v-10.13c0-.62-.37-1.15-.86-1.24Zm-45.22 15.99c-.44 2.7-2.56 4.45-4.72 3.9-2.17-.56-3.56-3.2-3.12-5.9.44-2.71 2.56-4.45 4.72-3.9 1.86.47 3.2 2.52 3.2 4.9 0 .33-.03.67-.08 1Zm18.08-1h-16c0-4.14-2.69-7.5-6-7.5s-6 3.36-6 7.5h-2v-6.17c0-1.15.5-2.2 1.29-2.77a18.4 18.4 0 0 1 10.71-3.56h18v12.5Zm0-15h-14.08l.2-.13a27.29 27.29 0 0 1 13.88-4.82v4.95Zm2-5h.57c4.03 0 8.02.95 11.76 2.82l-1.74 2.18h-10.59v-5Zm17.92 21c-.44 2.7-2.56 4.45-4.72 3.9-2.17-.56-3.56-3.2-3.12-5.9.44-2.71 2.56-4.45 4.72-3.9 1.86.47 3.2 2.52 3.2 4.9 0 .33-.03.67-.08 1Zm6.08-12.25h-3v2.5h3v5.12c0 .92-.45 1.75-1.13 2.1l-2.87 1.43-.02-.34c0-.12 0-.25-.02-.38 0-.12-.03-.25-.04-.37l-.05-.37-.08-.35-.07-.36-.1-.34-.1-.34-.13-.33-.13-.33-.14-.3-.16-.31-.16-.28-.18-.3-.19-.24-.2-.28-.2-.23-.22-.25-.23-.22-.23-.21-.26-.2a2.9 2.9 0 0 0-.24-.17l-.27-.17-.25-.15-.3-.13-.25-.12-.35-.1-.22-.08-.38-.07c-.07-.02-.14-.04-.22-.04a4.9 4.9 0 0 0-.6-.04c-3.32 0-6 3.36-6 7.5h-8.01v-12.5h11c.27 0 .52-.13.7-.37l2.6-3.24c1.09.65 2.15 1.37 3.17 2.17.12.1.25.15.39.18l6.14 1.1v1.4Z" fill="#fff"></path></svg><svg viewBox="0 0 70 70" fill="none" id="benefits-discount"><rect width="70" height="70" rx="10" fill="#EB5757"></rect><path d="m29.88 43.7 6.9-20.72a1.46 1.46 0 0 0-2.78-.93l-6.9 20.72a1.46 1.46 0 0 0 2.78.92Zm10.35-6.43a4.4 4.4 0 1 0-.01-8.8 4.4 4.4 0 0 0 0 8.8Zm0-5.86a1.47 1.47 0 1 1 0 2.93 1.47 1.47 0 0 1 0-2.93Zm-16.57-2.93a4.4 4.4 0 1 0 0 8.8 4.4 4.4 0 0 0 0-8.8Zm0 5.86a1.47 1.47 0 1 1 0-2.94 1.47 1.47 0 0 1 0 2.94Z" fill="#fff"></path><path d="m59.7 28.16-5.1-6.8.2-1.4c.06-.46-.09-.92-.42-1.24l-3.1-3.11 3.1-3.1a1.46 1.46 0 1 0-2.07-2.08l-3.1 3.1-3.11-3.1a1.47 1.47 0 0 0-1.25-.42l-14.5 2.08c-.31.04-.6.19-.83.41l-17.95 17.95a5.38 5.38 0 0 0 0 7.6l15.2 15.2c.3.3.64.57 1 .78v.6a5.38 5.38 0 0 0 5.37 5.37h21.49a5.38 5.38 0 0 0 5.37-5.37v-25.59c0-.31-.1-.62-.3-.88Zm-46.06 7.82a2.44 2.44 0 0 1 0-3.45l17.61-17.61 13.3-1.9 2.58 2.59-2.07 2.07-1.03-1.04a1.47 1.47 0 0 0-2.08 2.08l4.15 4.14a1.46 1.46 0 0 0 2.07 0c.57-.57.57-1.5 0-2.07l-1.04-1.04 2.07-2.07 2.6 2.59-1.9 13.3-17.61 17.6a2.43 2.43 0 0 1-3.46 0l-15.19-15.2Zm43.43 18.65c0 1.35-1.1 2.44-2.44 2.44h-21.49c-1.28 0-2.34-1-2.43-2.26a5.35 5.35 0 0 0 3.65-1.57l17.95-17.95c.23-.23.37-.52.42-.83l1.28-9 3.06 4.07v25.1Z" fill="#fff"></path></svg><svg viewBox="0 0 70 70" fill="none" id="benefits-guide"><rect width="70" height="70" rx="10" fill="#EEAA2B"></rect><path d="m59.25 22.6-16.65-6.24a4.53 4.53 0 0 0-5.4-6.17.74.74 0 0 0 .41 1.42 3.05 3.05 0 1 1-1.81 1.45.74.74 0 0 0-1.3-.72 4.53 4.53 0 0 0 1.44 5.95v3.87a.74.74 0 0 0 1.48 0v-3.22c.7.17 1.49.17 2.24-.04v22.02h-2.24v-15.8a.74.74 0 1 0-1.48 0v15.8c-1.34 0-2.54.23-3.8.95a2 2 0 0 0-1.8-1.1h-3.67a2 2 0 0 0-2 2v1.18h-12.44c-1.23 0-2.23 1-2.23 2.23v8.99c0 1.23 1 2.23 2.23 2.23h12.44v.6c0 1.1.9 2 2 2h3.68a2 2 0 0 0 1.63-.84c1.74.88 1.74.69 14.21.69 2.2 0 3.27-2.7 1.76-4.23.94-.96.94-2.54 0-3.5.94-.96.94-2.53 0-3.49a2.5 2.5 0 0 0-1.49-4.21c.34-1.49-.95-3.5-3.05-3.5h-2.27v-9.47l6.05-2.27a.74.74 0 1 0-.52-1.38l-5.53 2.07v-11.7c.23-.16.43-.34.62-.55l16 6.01-8.32 3.13a.74.74 0 1 0 .53 1.38l9.28-3.48a1.1 1.1 0 0 0 0-2.05Zm-34.58 33.32h-12.44a.75.75 0 0 1-.75-.75v-9c0-.4.34-.74.75-.74h12.44v10.49Zm6.07 2.42c-.2.24-.07.18-4.07.18a.52.52 0 0 1-.52-.52v-15.24c0-.29.24-.52.52-.52h3.68c.26 0 .52.21.52.55 0 16.45.05 15.34-.13 15.55Zm1.61-.67v-3.72c1.29-.2 2.5-.66 3.59-1.32 0 5.29-.03 5.2.09 5.74-1.26 0-2.34.1-3.68-.7Zm6 .7h-.76c-.23-.41-.17-.46-.17-6.82.26-.24.51-.48.75-.74.09.5.33.96.67 1.31a2.51 2.51 0 0 0 0 3.5 2.51 2.51 0 0 0-.5 2.75Zm7.84 0h-5.6a1 1 0 0 1-.93-1.32 1 1 0 0 1 .94-.7h5.6c.53 0 .97.45.97.99a.98.98 0 0 1-.98 1.03Zm-.13-3.5h-5.46a1 1 0 0 1-.94-1.32 1 1 0 0 1 .94-.69h5.6c1.23 0 1.41 2.01-.14 2.01Zm-6.44-4.52c0-.53.43-.98.98-.98h5.6c.5 0 .97.39.97 1.03 0 .54-.44.98-.98.98h-5.59a.98.98 0 0 1-.98-1.03Zm6.57-4.47c.5 0 .98.39.98 1.03 0 .54-.44.98-.98.98-6.1 0-5.77.05-6.09-.13a.98.98 0 0 1-.44-.55v-.64c.25-.79 1.05-.69 1.48-.69h5.05Zm-2.78-3.49c1.54 0 2.06 2.01 1.23 2.01h-.77.03c-3.63 0-3.79-.07-4.47.3a2.5 2.5 0 0 0-1.05 3.27 8.65 8.65 0 0 1-6.03 4.48v-8.96a5.73 5.73 0 0 1 3.38-1.1h7.68Z" fill="#fff"></path></svg><svg viewBox="0 0 70 70" fill="none" id="benefits-support"><rect width="70" height="70" rx="10" fill="#3793D8"></rect><path d="M56.95 30.71a.98.98 0 1 0 0-1.95.98.98 0 0 0 0 1.95Z" fill="#fff"></path><path d="M57.29 33.13a.98.98 0 0 0-.98.98v3.43c0 .54-.44.97-.97.98h-.98v-4.89a19.82 19.82 0 0 0-3.37-11.03 19.81 19.81 0 0 0-12.38-8.3 20 20 0 0 0-11.66 1.16 19.75 19.75 0 0 0-12.04 18.17v4.89h-1.96v-4.89c0-5.79 2.26-11.23 6.35-15.33 4.1-4.1 9.54-6.35 15.33-6.35 8.91 0 17.05 5.59 20.25 13.9a.97.97 0 0 0 1.26.57c.5-.2.75-.76.56-1.26a23.6 23.6 0 0 0-14.85-14.04 23.62 23.62 0 0 0-26.81 9.3 23.62 23.62 0 0 0-4.04 13.21v13.67c0 5.93 4.82 10.75 10.74 10.75h9.56a3.9 3.9 0 1 0 6.76-3.9h5.9c.54 0 .98-.45.98-.99v-11.71a.98.98 0 0 0-.98-.98h-18.65a.98.98 0 0 0-.98.98v11.71c0 .54.44.98.98.98h6a3.88 3.88 0 0 0-.53 1.95h-9.04a8.8 8.8 0 0 1-8.79-8.79v-6.83h1.96v2.93a2.93 2.93 0 0 0 5.86 0v-7.81a2.93 2.93 0 0 0-3.9-2.77c.2-4.44 2.03-8.59 5.2-11.75a17.66 17.66 0 0 1 12.56-5.21c4.75 0 9.21 1.85 12.57 5.2a17.65 17.65 0 0 1 5.19 11.76 2.93 2.93 0 0 0-3.89 2.77v7.8a2.93 2.93 0 0 0 5.86 0v-2.92h.98a2.9 2.9 0 0 0 2.93-2.93v-3.43a.98.98 0 0 0-.98-.98Zm-31 13.2h16.7v1.95h-16.7v-1.95Zm16.7-3.9v1.95h-16.7v-1.96h16.7Zm-16.7 7.8h16.7v1.96h-16.7v-1.96Zm10.34 5.86a1.96 1.96 0 1 1-3.9 0 1.96 1.96 0 0 1 3.9 0Zm-18.8-21.48c.54 0 .98.44.98.98v7.8a.98.98 0 0 1-1.95 0v-7.8c0-.54.44-.98.98-.98Zm34.58 8.79a.98.98 0 0 1-1.96 0v-7.81a.98.98 0 0 1 1.96 0v7.8Z" fill="#fff"></path><path d="m39.5 27.44-1.96 7.81a.98.98 0 0 0 1.9.48l1.95-7.82a.98.98 0 0 0-1.9-.47Zm9.46-.32a.98.98 0 0 0-.8-.42h-3.81a.98.98 0 0 0 0 1.95h2.38l-2.5 6.49a.98.98 0 0 0 1.82.7l3.02-7.81a.98.98 0 0 0-.1-.9Zm-14.76 9.34c.54 0 .97-.43.98-.96v-1.35a.98.98 0 0 0 .02-1.94v-4.06c-.06-.7-.46-1.25-1.03-1.4-.2-.06-.93-.19-1.5.64-.4.55-2.15 4.25-2.68 5.38a.98.98 0 0 0 .88 1.39h2.37l-.01 1.32c0 .54.43.98.97.98Zm-1.78-4.25.83-1.73v1.73h-.83Zm-6.7-1.17a86.75 86.75 0 0 1-2.31 3.19c-.5.63-.74.96-.57 1.49.1.32.33.56.65.66.13.05.25.09 1.76.09.58 0 1.38 0 2.46-.02a.98.98 0 0 0-.01-1.96l-2.06.02 1.69-2.35c.5-.72.82-1.39.96-2l.06-.52a2.94 2.94 0 0 0-5.8-.57.98.98 0 1 0 1.9.37.98.98 0 0 1 1.95.14l-.02.18c-.1.36-.32.8-.66 1.28Z" fill="#fff"></path></svg><svg viewBox="0 0 60 60" fill="none" id="booking-destination"><rect width="60" height="60" rx="8" fill="#EA880F"></rect><path d="M32.22 29.25v2.45c6.13.61 9.78 2.74 9.78 4.34 0 1.88-5.05 4.5-13.27 4.5-8.23 0-13.27-2.62-13.27-4.5 0-1.61 3.7-3.76 9.9-4.35v-2.45c-6.46.6-12.36 2.94-12.36 6.8 0 4.52 8.1 6.96 15.73 6.96 7.62 0 15.73-2.44 15.73-6.96 0-3.84-5.82-6.17-12.24-6.8Z" fill="#fff"></path><path d="M45.74 14.07a1.15 1.15 0 0 0-1.11-.06l-2.04.99a6.87 6.87 0 0 1-6.15-.08 6.85 6.85 0 0 0-6.41.06v-.74a1.24 1.24 0 0 0-2.47 0v22.12a1.23 1.23 0 0 0 2.47 0v-11.3a6.9 6.9 0 0 1 6.4-.06 6.88 6.88 0 0 0 6.16.08l3.04-1.48c.4-.19.66-.6.66-1.03v-7.52c0-.4-.21-.77-.55-.98Z" fill="#fff"></path></svg><svg viewBox="0 0 202 63" fill="none" id="booking-dots"><circle cx="4.476" cy="58.188" r="4.476" transform="rotate(-90 4.476 58.188)" fill="#C4C4C4" fill-opacity=".3"></circle><circle cx="4.476" cy="22.38" r="4.476" transform="rotate(-90 4.476 22.38)" fill="#C4C4C4" fill-opacity=".3"></circle><circle cx="4.476" cy="40.284" r="4.476" transform="rotate(-90 4.476 40.284)" fill="#C4C4C4" fill-opacity=".3"></circle><circle cx="4.476" cy="4.476" r="4.476" transform="rotate(-90 4.476 4.476)" fill="#C4C4C4" fill-opacity=".3"></circle><circle cx="58.188" cy="58.188" r="4.476" transform="rotate(-90 58.188 58.188)" fill="#C4C4C4" fill-opacity=".3"></circle><circle cx="58.188" cy="22.38" r="4.476" transform="rotate(-90 58.188 22.38)" fill="#C4C4C4" fill-opacity=".3"></circle><circle cx="58.188" cy="40.284" r="4.476" transform="rotate(-90 58.188 40.284)" fill="#C4C4C4" fill-opacity=".3"></circle><circle cx="58.188" cy="4.476" r="4.476" transform="rotate(-90 58.188 4.476)" fill="#C4C4C4" fill-opacity=".3"></circle><circle cx="22.38" cy="58.188" r="4.476" transform="rotate(-90 22.38 58.188)" fill="#C4C4C4" fill-opacity=".3"></circle><circle cx="22.38" cy="22.38" r="4.476" transform="rotate(-90 22.38 22.38)" fill="#C4C4C4" fill-opacity=".3"></circle><circle cx="22.38" cy="40.284" r="4.476" transform="rotate(-90 22.38 40.284)" fill="#C4C4C4" fill-opacity=".3"></circle><circle cx="22.38" cy="4.476" r="4.476" transform="rotate(-90 22.38 4.476)" fill="#C4C4C4" fill-opacity=".3"></circle><circle cx="76.092" cy="58.188" r="4.476" transform="rotate(-90 76.092 58.188)" fill="#C4C4C4" fill-opacity=".3"></circle><circle cx="76.092" cy="22.38" r="4.476" transform="rotate(-90 76.092 22.38)" fill="#C4C4C4" fill-opacity=".3"></circle><circle cx="76.092" cy="40.284" r="4.476" transform="rotate(-90 76.092 40.284)" fill="#C4C4C4" fill-opacity=".3"></circle><circle cx="76.092" cy="4.476" r="4.476" transform="rotate(-90 76.092 4.476)" fill="#C4C4C4" fill-opacity=".3"></circle><circle cx="40.284" cy="58.188" r="4.476" transform="rotate(-90 40.284 58.188)" fill="#C4C4C4" fill-opacity=".3"></circle><circle cx="40.284" cy="22.38" r="4.476" transform="rotate(-90 40.284 22.38)" fill="#C4C4C4" fill-opacity=".3"></circle><circle cx="40.284" cy="40.284" r="4.476" transform="rotate(-90 40.284 40.284)" fill="#C4C4C4" fill-opacity=".3"></circle><circle cx="40.284" cy="4.476" r="4.476" transform="rotate(-90 40.284 4.476)" fill="#C4C4C4" fill-opacity=".3"></circle><circle cx="93.996" cy="58.188" r="4.476" transform="rotate(-90 93.996 58.188)" fill="#C4C4C4" fill-opacity=".3"></circle><circle cx="93.996" cy="22.38" r="4.476" transform="rotate(-90 93.996 22.38)" fill="#C4C4C4" fill-opacity=".3"></circle><circle cx="93.996" cy="40.284" r="4.476" transform="rotate(-90 93.996 40.284)" fill="#C4C4C4" fill-opacity=".3"></circle><circle cx="93.996" cy="4.476" r="4.476" transform="rotate(-90 93.996 4.476)" fill="#C4C4C4" fill-opacity=".3"></circle><circle cx="111.004" cy="58.188" r="4.476" transform="rotate(-90 111.004 58.188)" fill="#C4C4C4" fill-opacity=".3"></circle><circle cx="111.004" cy="22.38" r="4.476" transform="rotate(-90 111.004 22.38)" fill="#C4C4C4" fill-opacity=".3"></circle><circle cx="111.004" cy="40.284" r="4.476" transform="rotate(-90 111.004 40.284)" fill="#C4C4C4" fill-opacity=".3"></circle><circle cx="111.004" cy="4.476" r="4.476" transform="rotate(-90 111.004 4.476)" fill="#C4C4C4" fill-opacity=".3"></circle><circle cx="164.716" cy="58.188" r="4.476" transform="rotate(-90 164.716 58.188)" fill="#C4C4C4" fill-opacity=".3"></circle><circle cx="164.716" cy="22.38" r="4.476" transform="rotate(-90 164.716 22.38)" fill="#C4C4C4" fill-opacity=".3"></circle><circle cx="164.716" cy="40.284" r="4.476" transform="rotate(-90 164.716 40.284)" fill="#C4C4C4" fill-opacity=".3"></circle><circle cx="164.716" cy="4.476" r="4.476" transform="rotate(-90 164.716 4.476)" fill="#C4C4C4" fill-opacity=".3"></circle><circle cx="128.909" cy="58.188" r="4.476" transform="rotate(-90 128.909 58.188)" fill="#C4C4C4" fill-opacity=".3"></circle><circle cx="128.909" cy="22.38" r="4.476" transform="rotate(-90 128.909 22.38)" fill="#C4C4C4" fill-opacity=".3"></circle><circle cx="128.909" cy="40.284" r="4.476" transform="rotate(-90 128.909 40.284)" fill="#C4C4C4" fill-opacity=".3"></circle><circle cx="128.909" cy="4.476" r="4.476" transform="rotate(-90 128.909 4.476)" fill="#C4C4C4" fill-opacity=".3"></circle><circle cx="182.62" cy="58.188" r="4.476" transform="rotate(-90 182.62 58.188)" fill="#C4C4C4" fill-opacity=".3"></circle><circle cx="182.62" cy="22.38" r="4.476" transform="rotate(-90 182.62 22.38)" fill="#C4C4C4" fill-opacity=".3"></circle><circle cx="182.62" cy="40.284" r="4.476" transform="rotate(-90 182.62 40.284)" fill="#C4C4C4" fill-opacity=".3"></circle><circle cx="182.62" cy="4.476" r="4.476" transform="rotate(-90 182.62 4.476)" fill="#C4C4C4" fill-opacity=".3"></circle><circle cx="146.813" cy="58.188" r="4.476" transform="rotate(-90 146.813 58.188)" fill="#C4C4C4" fill-opacity=".3"></circle><circle cx="146.813" cy="22.38" r="4.476" transform="rotate(-90 146.813 22.38)" fill="#C4C4C4" fill-opacity=".3"></circle><circle cx="146.813" cy="40.284" r="4.476" transform="rotate(-90 146.813 40.284)" fill="#C4C4C4" fill-opacity=".3"></circle><circle cx="146.813" cy="4.476" r="4.476" transform="rotate(-90 146.813 4.476)" fill="#C4C4C4" fill-opacity=".3"></circle><circle cx="200.524" cy="58.188" r="4.476" transform="rotate(-90 200.524 58.188)" fill="#C4C4C4" fill-opacity=".3"></circle><circle cx="200.524" cy="22.38" r="4.476" transform="rotate(-90 200.524 22.38)" fill="#C4C4C4" fill-opacity=".3"></circle><circle cx="200.524" cy="40.284" r="4.476" transform="rotate(-90 200.524 40.284)" fill="#C4C4C4" fill-opacity=".3"></circle><circle cx="200.524" cy="4.476" r="4.476" transform="rotate(-90 200.524 4.476)" fill="#C4C4C4" fill-opacity=".3"></circle></svg><svg viewBox="0 0 12 12" fill="none" id="booking-example-card-icon"><circle cx="6" cy="6" r="5.5" fill="#FFFBF3" stroke="#3793D8"></circle><path d="M8.57 4.11a.6.6 0 0 0-.85.15l-2.32 3.35-1.53-1.05a.55.55 0 0 0-.77.15.57.57 0 0 0 .14.78l2.05 1.41a.55.55 0 0 0 .43.09.6.6 0 0 0 .4-.26l2.6-3.76a.62.62 0 0 0-.15-.86Z" fill="#3793D8"></path></svg><svg viewBox="0 0 9 9" fill="none" id="booking-example-card-star"><path d="m8.1 3.12-2.5-.37-1.13-2.27a.32.32 0 0 0-.57 0l-1.12 2.27-2.5.37a.32.32 0 0 0-.18.54l1.81 1.77-.43 2.5a.32.32 0 0 0 .46.33l2.25-1.18 2.25 1.18c.06.04.13.05.2.03.17-.02.28-.19.25-.36l-.43-2.5 1.82-1.77a.32.32 0 0 0-.17-.54Z" fill="#8C8C8C"></path></svg><svg viewBox="0 0 37 20" fill="none" id="booking-example-tour-arrow"><path d="M35.88 10.88c.5-.48.5-1.28 0-1.76l-7.95-7.96a1.25 1.25 0 1 0-1.77 1.77l7.07 7.07-7.07 7.07a1.25 1.25 0 1 0 1.77 1.77l7.95-7.96Zm-35.88.37h35v-2.5h-35v2.5Z" fill="#DB6300"></path></svg><svg viewBox="0 0 13 12" fill="none" id="booking-example-tour-star"><path d="m12.58 4.23-3.9-.55-1.74-3.42a.5.5 0 0 0-.88 0l-1.74 3.42-3.9.55a.5.5 0 0 0-.28.13.47.47 0 0 0 0 .68l2.83 2.65-.67 3.76c-.01.08 0 .17.03.25a.5.5 0 0 0 .68.24l3.49-1.77 3.49 1.78c.1.04.2.06.3.04a.48.48 0 0 0 .4-.54l-.66-3.76 2.82-2.65a.47.47 0 0 0-.27-.81Z" fill="#EEAA2B"></path></svg><svg viewBox="0 0 60 60" fill="none" id="booking-payment"><rect width="60" height="60" rx="8" fill="#3793D8"></rect><path d="M23.67 42.15v-1a.9.9 0 0 0-.9-.91h-2.95c-.5 0-.9.4-.9.9v1.01c0 .5.4.9.9.9h2.95c.5 0 .9-.4.9-.9Zm-3.88 0v-1c0-.02.01-.03.03-.03h2.95c.01 0 .02.01.02.03v1c0 .02 0 .03-.02.03h-2.95a.03.03 0 0 1-.03-.03Zm16.06-6.77a1.41 1.41 0 1 0 0 2.83 1.41 1.41 0 0 0 0-2.83Zm0 1.95a.53.53 0 1 1 0-1.07.53.53 0 0 1 0 1.07Z" fill="#fff"></path><path d="M40.7 31.5h-.52v-6.35c0-.78-.64-1.41-1.41-1.41h-.54v-5.87a.93.93 0 0 0-.92-.93h-8.78v-.56c0-.76-.62-1.38-1.38-1.38h-7.83c-.76 0-1.38.62-1.38 1.38v1.58a.44.44 0 1 0 .88 0v-1.58c0-.28.22-.5.5-.5h.56v11.74h-1.06v-7.9a.44.44 0 0 0-.88 0v4.06a2.36 2.36 0 0 0-1.94 2.32v16.52a2.38 2.38 0 0 0 2.38 2.38h2.03a.44.44 0 0 0 0-.88h-2.03a1.5 1.5 0 0 1-1.5-1.5v-14.68c.4.33.91.54 1.46.56h20.43c.29 0 .53.24.53.53v4.41h-5.39c-.78 0-1.4.64-1.4 1.41v3.89c0 .77.62 1.4 1.4 1.4h5.39v3.45c0 .3-.24.53-.53.53h-16.6a.44.44 0 0 0 0 .88h16.6c.77 0 1.4-.63 1.4-1.41v-3.44h.54a2.38 2.38 0 0 0 2.38-2.38v-3.89a2.38 2.38 0 0 0-2.38-2.38Zm-23.82-5.34a1.5 1.5 0 0 1 1.06-1.48v2.86c-.6-.2-1.04-.74-1.06-1.38Zm11.7-8.34h8.73c.02 0 .05.02.05.05v9.75h-1.07v-7.05c0-.32-.22-.6-.53-.67a.69.69 0 0 1-.49-.48.68.68 0 0 0-.66-.54h-3.33c-.33 0-.6.22-.67.54a.69.69 0 0 1-.49.48.68.68 0 0 0-.53.67v7.05h-1.06v-9.75c0-.03.02-.05.04-.05Zm6.83 9.8h-4.94v-6.9c.44-.15.8-.52.95-.96h3.04c.15.44.52.8.95.96v6.9Zm-7.76-11.24v11.24h-4.95v-11.74h4.45c.28 0 .5.22.5.5Zm-6.89 11.24v-11.74h1.06v11.74h-1.06Zm18 0h-.53v-3h.54c.29 0 .53.23.53.53v2.57a1.4 1.4 0 0 0-.53-.1Zm3.45 10.15c0 .82-.67 1.5-1.5 1.5h-6.8a.53.53 0 0 1-.53-.53v-3.89c0-.29.24-.53.53-.53h6.31a.44.44 0 1 0 0-.88h-.04v-1.06h.53c.83 0 1.5.67 1.5 1.5v3.89Z" fill="#fff"></path><path d="M32.94 23.74a1.41 1.41 0 1 0 0 2.82 1.41 1.41 0 0 0 0-2.82Zm0 1.94a.53.53 0 1 1 0-1.07.53.53 0 0 1 0 1.07Zm0-3.01c.24 0 .44-.2.44-.44v-.97a.44.44 0 0 0-.88 0v.97c0 .25.2.44.44.44Zm-8.27-1.94h1c.5 0 .92-.4.92-.9v-1.98a.9.9 0 0 0-.91-.9h-1a.9.9 0 0 0-.91.9v1.97c0 .5.4.91.9.91Zm-.03-2.88c0-.02.02-.03.03-.03h1c.02 0 .04.01.04.03v1.97c0 .02-.02.03-.03.03h-1a.03.03 0 0 1-.04-.03v-1.97Z" fill="#fff"></path></svg><svg viewBox="0 0 60 60" fill="none" id="booking-select-date"><rect width="60" height="60" rx="8" fill="#0600AE"></rect><path d="M42.5 18h-2.5v-1a2 2 0 0 0-4 0v1h-4v-1a2 2 0 0 0-4 0v1h-4v-1a2 2 0 0 0-4 0v1h-2.5a2.5 2.5 0 0 0-2.5 2.5v20a2.5 2.5 0 0 0 2.5 2.5h14a.5.5 0 0 0 0-1h-14a1.5 1.5 0 0 1-1.5-1.5v-15.5h28v8.5a.5.5 0 0 0 1 0v-13a2.5 2.5 0 0 0-2.5-2.5Zm-5.5-1a1 1 0 0 1 2 0v3a1 1 0 0 1-2 0v-3Zm-8 0a1 1 0 0 1 2 0v3a1 1 0 0 1-2 0v-3Zm-8 0a1 1 0 0 1 2 0v3a1 1 0 0 1-2 0v-3Zm23 7h-28v-3.5a1.5 1.5 0 0 1 1.5-1.5h2.5v1a2 2 0 0 0 4 0v-1h4v1a2 2 0 0 0 4 0v-1h4v1a2 2 0 0 0 4 0v-1h2.5a1.5 1.5 0 0 1 1.5 1.5v3.5Z" fill="#fff"></path><path d="M29 28.5a1 1 0 0 0-1-1h-2a1 1 0 0 0-1 1v1.5a1 1 0 0 0 1 1h2a1 1 0 0 0 1-1v-1.5Zm-3 1.5v-1.5h2v1.5h-2Zm-3-1.5a1 1 0 0 0-1-1h-2a1 1 0 0 0-1 1v1.5a1 1 0 0 0 1 1h2a1 1 0 0 0 1-1v-1.5Zm-3 1.5v-1.5h2v1.5h-2Zm20 1a1 1 0 0 0 1-1v-1.5a1 1 0 0 0-1-1h-2a1 1 0 0 0-1 1v1.5a1 1 0 0 0 1 1h2Zm-2-2.5h2v1.5h-2v-1.5Zm-9 4.5a1 1 0 0 0-1-1h-2a1 1 0 0 0-1 1v1.5a1 1 0 0 0 1 1h2a1 1 0 0 0 1-1v-1.5Zm-3 1.5v-1.5h2v1.5h-2Zm-3-1.5a1 1 0 0 0-1-1h-2a1 1 0 0 0-1 1v1.5a1 1 0 0 0 1 1h2a1 1 0 0 0 1-1v-1.5Zm-3 1.5v-1.5h2v1.5h-2Zm8 2h-2a1 1 0 0 0-1 1v1.5a1 1 0 0 0 1 1h2a1 1 0 0 0 1-1v-1.5a1 1 0 0 0-1-1Zm-2 2.5v-1.5h2v1.5h-2Zm6-8h2a1 1 0 0 0 1-1v-1.5a1 1 0 0 0-1-1h-2a1 1 0 0 0-1 1v1.5a1 1 0 0 0 1 1Zm0-2.5h2v1.5h-2v-1.5Zm-1 6a1 1 0 0 0 1 1 .5.5 0 0 0 0-1v-1.5h2a.5.5 0 0 0 0-1h-2a1 1 0 0 0-1 1v1.5Zm-9 2h-2a1 1 0 0 0-1 1v1.5a1 1 0 0 0 1 1h2a1 1 0 0 0 1-1v-1.5a1 1 0 0 0-1-1Zm-2 2.5v-1.5h2v1.5h-2Z" fill="#fff"></path><path d="M38.5 32a6.5 6.5 0 1 0 0 13 6.5 6.5 0 0 0 0-13Zm0 12a5.5 5.5 0 1 1 0-11 5.5 5.5 0 0 1 0 11Z" fill="#fff"></path><path d="m41.39 36.4-3.89 3.9-1.77-1.77a.5.5 0 0 0-.7.7l2.12 2.12a.5.5 0 0 0 .7 0l4.25-4.24a.5.5 0 0 0-.71-.7Z" fill="#fff"></path></svg><svg viewBox="0 0 108 254" fill="none" id="booking-semicircle"><g opacity=".08" clip-path="url(#booking-semicircle_0)"><path d="M-19 0c-70.14 0-127 56.86-127 127s56.86 127 127 127 127-56.86 127-127-56.86-127-127-127Zm0 199.5a72.5 72.5 0 1 1 0-145 72.5 72.5 0 0 1 0 145Z" fill="#DB6300"></path></g><defs><clipPath id="booking-semicircle_0"><path fill="#fff" transform="translate(-146)" d="M0 0h254v254h-254z"></path></clipPath></defs></svg><svg viewBox="0 0 17 14" fill="none" id="contacts-email"><path d="M2.8 0a2.8 2.8 0 0 0-2.8 2.8v.28l8.4 4.52 8.4-4.52v-.28a2.8 2.8 0 0 0-2.8-2.8h-11.2Z" fill="#fff"></path><path d="m16.8 4.67-8.07 4.35a.7.7 0 0 1-.66 0l-8.07-4.35v6.53a2.8 2.8 0 0 0 2.8 2.8h11.2a2.8 2.8 0 0 0 2.8-2.8v-6.53Z" fill="#fff"></path></svg><svg viewBox="0 0 16 20" fill="none" id="contacts-map"><path d="M8 0a8 8 0 0 0-8 8c-.03 6.44 7.7 11.78 8 12 0 0 8.03-5.56 8-12a8 8 0 0 0-8-8Zm0 12a4 4 0 1 1 0-8 4 4 0 0 1 0 8Z" fill="#fff"></path></svg><svg viewBox="0 0 16 16" fill="none" id="contacts-phone"><path d="m15.54 11.3-3.5-1.5a.75.75 0 0 0-.87.22l-1.55 1.9a11.58 11.58 0 0 1-5.54-5.54l1.9-1.55a.75.75 0 0 0 .21-.88l-1.5-3.5a.76.76 0 0 0-.86-.43l-3.25.75a.75.75 0 0 0-.58.73c0 8.02 6.5 14.5 14.5 14.5a.75.75 0 0 0 .73-.58l.75-3.25a.76.76 0 0 0-.44-.86Z" fill="#fff"></path></svg><svg viewBox="0 0 88 160" fill="none" id="deco-services"><path opacity=".15" d="M-84 14.8c63-26.84 185.2-35.38 169.93 145.08l-169.93-145.09Z" fill="#EEAA2B"></path></svg><svg viewBox="0 0 21 21" fill="none" id="facebook"><path d="M21 10.56c0-5.83-4.7-10.56-10.5-10.56s-10.5 4.73-10.5 10.57c0 5.27 3.84 9.64 8.86 10.43v-7.38h-2.67v-3.05h2.67v-2.33c0-2.65 1.57-4.11 3.97-4.11 1.15 0 2.35.2 2.35.2v2.6h-1.33c-1.3 0-1.7.82-1.7 1.65v1.98h2.9l-.46 3.06h-2.45v7.38c5.02-.8 8.86-5.16 8.86-10.44Z" fill="#E6E6E6"></path></svg><svg viewBox="0 0 51 50" fill="none" id="feedback-arrow-next"><path d="M.21 6.25a6.25 6.25 0 0 1 6.25-6.25h37.5a6.25 6.25 0 0 1 6.25 6.25v37.5a6.25 6.25 0 0 1-6.25 6.25h-37.5a6.25 6.25 0 0 1-6.25-6.25v-37.5Zm14.07 20.31h18.1l-6.7 6.7a1.56 1.56 0 1 0 2.2 2.22l9.38-9.37a1.56 1.56 0 0 0 0-2.22l-9.38-9.37a1.56 1.56 0 0 0-2.2 2.21l6.7 6.7h-18.1a1.56 1.56 0 1 0 0 3.13Z" fill="#fff"></path></svg><svg viewBox="0 0 51 50" fill="none" id="feedback-arrow-previous"><path d="M50.21 43.75a6.25 6.25 0 0 1-6.25 6.25h-37.5a6.25 6.25 0 0 1-6.25-6.25v-37.5a6.25 6.25 0 0 1 6.25-6.25h37.5a6.25 6.25 0 0 1 6.25 6.25v37.5Zm-14.06-20.31h-18.1l6.7-6.7a1.56 1.56 0 0 0-2.2-2.22l-9.38 9.37a1.56 1.56 0 0 0 0 2.22l9.38 9.37a1.56 1.56 0 0 0 2.2-2.21l-6.7-6.7h18.1a1.56 1.56 0 1 0 0-3.13Z" fill="#fff"></path></svg><svg viewBox="0 0 53 30" fill="none" id="feedback-card-element"><path d="m26.5 0 26.41 30h-52.82l26.41-30Z" fill="#fff"></path></svg><svg viewBox="0 0 148 171" fill="none" id="feedback-dots"><path opacity=".2" fill-rule="evenodd" clip-rule="evenodd" d="M122.3 10.87a5.02 5.02 0 1 0 0-10.05 5.02 5.02 0 0 0 0 10.05Zm-40.18 0a5.02 5.02 0 1 0 0-10.05 5.02 5.02 0 0 0 0 10.05Zm25.12-5.03a5.02 5.02 0 1 1-10.05 0 5.02 5.02 0 0 1 10.05 0Zm35.16 5.03a5.02 5.02 0 1 0 0-10.05 5.02 5.02 0 0 0 0 10.05Zm-55.26 55.25a4.82 4.82 0 0 1 0 .17v.23a5.02 5.02 0 1 1-10.04-.4 5.02 5.02 0 1 1 10.04 0Zm40.19.2v-.2a5.02 5.02 0 1 0-10.05.4 5.02 5.02 0 1 0 10.05-.2Zm-20.1-.2a6.35 6.35 0 0 1 0 .31v.08a5.02 5.02 0 1 1-10.04-.39 5.02 5.02 0 0 1 10.05 0Zm40.2.2v-.2a5.02 5.02 0 1 0-10.05.2v.19a5.02 5.02 0 1 0 10.04-.2Zm-60.29-40.38a5.02 5.02 0 1 1-10.04 0 5.02 5.02 0 0 1 10.04 0Zm35.17 5.02a5.02 5.02 0 1 0 0-10.05 5.02 5.02 0 0 0 0 10.05Zm-15.07-5.02a5.02 5.02 0 1 1-10.05 0 5.02 5.02 0 0 1 10.05 0Zm35.16 5.02a5.02 5.02 0 1 0 0-10.05 5.02 5.02 0 0 0 0 10.05Zm-55.26 55.26a5.06 5.06 0 0 1 0 .39 5.02 5.02 0 1 1-10.04-.4 5.02 5.02 0 1 1 10.04 0Zm40.19.2v-.2a5.02 5.02 0 1 0-10.04.2v.19a5.02 5.02 0 1 0 10.04-.2Zm-20.1-.2a6.32 6.32 0 0 1 0 .39 5.02 5.02 0 1 1-10.04-.4 5.02 5.02 0 0 1 10.05 0Zm40.2.2v-.2a5.02 5.02 0 1 0-10.05.39 5.02 5.02 0 1 0 10.04-.2Zm-60.29-40.39a5.09 5.09 0 0 1 0 .39 5.02 5.02 0 1 1-10.04-.39 5.02 5.02 0 1 1 10.04 0Zm40.19.2v-.2a5.02 5.02 0 1 0-10.05.39 5.02 5.02 0 1 0 10.05-.2Zm-20.1-.2a6.33 6.33 0 0 1 0 .39 5.02 5.02 0 1 1-10.04-.39 5.02 5.02 0 0 1 10.05 0Zm40.2.2v-.2a5.02 5.02 0 1 0-10.05.39 5.02 5.02 0 1 0 10.04-.12v-.07Zm-60.29 60.08a5.07 5.07 0 0 1 0 .4 5.02 5.02 0 1 1-10.04-.4 5.02 5.02 0 1 1 10.04 0Zm40.19.09v-.09a5.02 5.02 0 1 0-10.05.4 5.02 5.02 0 1 0 10.05-.2v-.11Zm-20.1-.09v.4a5.02 5.02 0 1 1-10.04-.4 5.02 5.02 0 1 1 10.05 0Zm40.2.2v-.2a5.02 5.02 0 1 0-10.05.4 5.02 5.02 0 1 0 10.04-.2Zm-60.29 18.89c0 .24-.01.47-.04.7a5.02 5.02 0 1 1-9.95 0 5.02 5.02 0 1 1 10-.7Zm40.14.7a5.02 5.02 0 1 0-9.95 0 5.02 5.02 0 1 0 9.95 0Zm-20.04-.7c0 .24-.02.47-.05.7a5.02 5.02 0 1 1-9.95 0 5.02 5.02 0 1 1 10-.7Zm40.14.7a5.02 5.02 0 1 0-9.95 0 5.02 5.02 0 1 0 9.95 0Zm-60.24 20.79a5.02 5.02 0 1 1-10.04 0 5.02 5.02 0 0 1 10.04 0Zm35.17 5.02a5.02 5.02 0 1 0 0-10.04 5.02 5.02 0 0 0 0 10.04Zm-15.07-5.02a5.02 5.02 0 1 1-10.05 0 5.02 5.02 0 0 1 10.05 0Zm35.16 5.02a5.02 5.02 0 1 0 0-10.05 5.02 5.02 0 0 0 0 10.05Zm-55.26 14.07a5.02 5.02 0 1 1-10.04 0 5.02 5.02 0 0 1 10.04 0Zm35.17 5.02a5.02 5.02 0 1 0 0-10.05 5.02 5.02 0 0 0 0 10.05Zm-15.07-5.02a5.02 5.02 0 1 1-10.05 0 5.02 5.02 0 0 1 10.05 0Zm35.16 5.02a5.02 5.02 0 1 0 0-10.05 5.02 5.02 0 0 0 0 10.05Zm-132.35-165.16a5.02 5.02 0 1 1-10.05 0 5.02 5.02 0 0 1 10.05 0Zm35.16 5.03a5.02 5.02 0 1 0 0-10.05 5.02 5.02 0 0 0 0 10.05Zm-15.07-5.03a5.02 5.02 0 1 1-10.05 0 5.02 5.02 0 0 1 10.05 0Zm35.16 5.03a5.02 5.02 0 1 0 0-10.05 5.02 5.02 0 0 0 0 10.05Zm-55.25 55.25a5.08 5.08 0 0 1 0 .4 5.02 5.02 0 1 1-10.05-.4 5.02 5.02 0 0 1 10.05 0Zm40.18.2v-.2a5.02 5.02 0 1 0-10.04.4 5.02 5.02 0 1 0 10.04-.2Zm-20.09-.2a5.08 5.08 0 0 1 0 .4 5.02 5.02 0 1 1-10.05-.4 5.02 5.02 0 1 1 10.05 0Zm40.18.2v-.2a5.02 5.02 0 1 0-10.04.4 5.02 5.02 0 1 0 10.04-.2Zm-60.27-40.38a5.02 5.02 0 1 1-10.05 0 5.02 5.02 0 0 1 10.05 0Zm35.16 5.02a5.02 5.02 0 1 0 0-10.05 5.02 5.02 0 0 0 0 10.05Zm-15.07-5.02a5.02 5.02 0 1 1-10.05 0 5.02 5.02 0 0 1 10.05 0Zm35.16 5.02a5.02 5.02 0 1 0 0-10.05 5.02 5.02 0 0 0 0 10.05Zm-55.25 55.26a5.06 5.06 0 0 1 0 .39 5.02 5.02 0 1 1-10.05-.4 5.02 5.02 0 1 1 10.05 0Zm40.18.2a5 5 0 0 0 0-.2 5.02 5.02 0 1 0-10.04.39 5.02 5.02 0 1 0 10.04-.2Zm-20.09-.2a5.06 5.06 0 0 1 0 .39 5.02 5.02 0 1 1-10.05-.4 5.02 5.02 0 1 1 10.05 0Zm40.18.2v-.2a5.02 5.02 0 1 0-10.04.39 5.02 5.02 0 1 0 10.04-.2Zm-60.27-40.39a5.09 5.09 0 0 1 0 .39 5.02 5.02 0 1 1-10.05-.39 5.02 5.02 0 0 1 10.05 0Zm40.18.2v-.2a5.02 5.02 0 1 0-10.04.39 5.02 5.02 0 1 0 10.04-.2Zm-20.09-.2a5.07 5.07 0 0 1 0 .39 5.02 5.02 0 1 1-10.05-.39 5.02 5.02 0 1 1 10.05 0Zm40.18.2v-.2a5.02 5.02 0 1 0-10.04.39 5.02 5.02 0 1 0 10.04-.2Zm-60.27 60.08a5.07 5.07 0 0 1 0 .4 5.02 5.02 0 1 1-10.05-.4 5.02 5.02 0 1 1 10.05 0Zm40.18.2v-.2a5.02 5.02 0 1 0-10.04.4 5.02 5.02 0 1 0 10.04-.2Zm-20.1-.05v.05l.01.2a5.02 5.02 0 1 1-10.05-.4 5.02 5.02 0 1 1 10.05.11v.04Zm40.2-.02v-.13a5.02 5.02 0 1 0-10.05.4 5.02 5.02 0 1 0 10.05-.27Zm-60.28 18.96c0 .24-.02.47-.05.7a5.02 5.02 0 1 1-9.95 0 5.02 5.02 0 1 1 10-.7Zm40.14.7a5.02 5.02 0 1 0-9.95 0 5.02 5.02 0 1 0 9.95 0Zm-20.05-.7c0 .24-.02.47-.05.7a5.02 5.02 0 1 1-9.95 0 5.02 5.02 0 1 1 10-.7Zm40.14.7a5.02 5.02 0 1 0-9.95 0 5.02 5.02 0 1 0 9.95 0Zm-60.23 20.79a5.02 5.02 0 1 1-10.05 0 5.02 5.02 0 0 1 10.05 0Zm35.16 5.02a5.02 5.02 0 1 0 0-10.05 5.02 5.02 0 0 0 0 10.05Zm-15.07-5.02a5.02 5.02 0 1 1-10.05 0 5.02 5.02 0 0 1 10.05 0Zm35.16 5.02a5.02 5.02 0 1 0 0-10.05 5.02 5.02 0 0 0 0 10.05Zm-55.25 14.07a5.02 5.02 0 1 1-10.05 0 5.02 5.02 0 0 1 10.05 0Zm35.16 5.02a5.02 5.02 0 1 0 0-10.05 5.02 5.02 0 0 0 0 10.05Zm-15.07-5.02a5.02 5.02 0 1 1-10.05 0 5.02 5.02 0 0 1 10.05 0Zm35.16 5.02a5.02 5.02 0 1 0 0-10.05 5.02 5.02 0 0 0 0 10.05Z" fill="#666"></path></svg><svg viewBox="0 0 51 49" fill="none" id="feedback-lightning"><path opacity=".5" d="m22.63 24.43-14.42-6.24-3.28 9.81-4.72-1.56 4.98-15 14.29 6.17 3.67-11.63 13.1 5.45 5.44-11.43 4.52 2.08-7.4 15.79-12.52-5.2-3.66 11.76Zm4 21-14.42-6.24-3.28 9.81-4.72-1.56 4.98-15 14.29 6.17 3.67-11.63 13.1 5.45 5.44-11.43 4.52 2.08-7.4 15.79-12.52-5.2-3.66 11.76Z" fill="#E5E5E5"></path></svg><svg viewBox="0 0 208 187" fill="none" id="feedback-pic-half-border"><path opacity=".5" d="M3.21 3h202v181" stroke="#29DBCC" stroke-width="5" stroke-linecap="round" stroke-linejoin="round" stroke-dasharray="10 10"></path></svg><svg viewBox="0 0 38 30" fill="none" id="feedback-text-elem-1"><path opacity=".5" d="M3.4 4.3c2.63-2.85 6.6-4.3 11.83-4.3h1.87v5.29l-1.5.3c-2.57.51-4.36 1.52-5.32 3-.5.8-.78 1.72-.82 2.66h5.77a1.87 1.87 0 0 1 1.87 1.88v13.12a3.75 3.75 0 0 1-3.75 3.75h-11.25a1.87 1.87 0 0 1-1.87-1.88v-14.84c-.01-.21-.37-5.14 3.17-8.98Zm30.58 25.7h-11.25a1.87 1.87 0 0 1-1.88-1.88v-14.84c-.01-.21-.37-5.14 3.17-8.98 2.63-2.85 6.61-4.3 11.83-4.3h1.88v5.29l-1.51.3c-2.57.51-4.36 1.52-5.31 3-.5.8-.78 1.72-.82 2.66h5.76a1.87 1.87 0 0 1 1.88 1.88v13.12a3.75 3.75 0 0 1-3.75 3.75Z" fill="#29DBCC"></path></svg><svg viewBox="0 0 38 30" fill="none" id="feedback-text-elem-2"><path opacity=".5" d="M34.54 25.7c-2.63 2.85-6.6 4.3-11.83 4.3h-1.87v-5.29l1.5-.3c2.58-.51 4.36-1.52 5.32-3 .5-.8.78-1.72.82-2.66h-5.77a1.87 1.87 0 0 1-1.87-1.88v-13.12a3.75 3.75 0 0 1 3.75-3.75h11.25a1.88 1.88 0 0 1 1.87 1.88v14.84c.02.21.37 5.14-3.17 8.98Zm-30.58-25.7h11.25a1.88 1.88 0 0 1 1.88 1.88v14.84c.01.21.37 5.14-3.17 8.98-2.63 2.85-6.61 4.3-11.83 4.3h-1.88v-5.29l1.51-.3c2.57-.51 4.36-1.52 5.31-3 .5-.8.79-1.72.83-2.66h-5.77a1.87 1.87 0 0 1-1.88-1.88v-13.12a3.75 3.75 0 0 1 3.75-3.75Z" fill="#29DBCC"></path></svg><svg viewBox="0 0 18 18" fill="none" id="hero-button-search"><path d="m17 17-3.78-3.78m2.1-5.06a7.16 7.16 0 1 1-14.32 0 7.16 7.16 0 0 1 14.32 0Z" stroke="#fff" stroke-width="2" stroke-linecap="round"></path></svg><svg viewBox="0 0 145 100" fill="none" id="hero-dots"><g clip-path="url(#hero-dots_0)" fill="#DB6300"><path d="M138.88 40.41a3.05 3.05 0 0 1 3.03-3.06 3.05 3.05 0 0 1 3.03 3.06 3.05 3.05 0 0 1-3.03 3.07 3.05 3.05 0 0 1-3.03-3.07Zm-19.84 0a3.05 3.05 0 0 1 3.03-3.06 3.05 3.05 0 0 1 3.03 3.06 3.05 3.05 0 0 1-3.03 3.07 3.05 3.05 0 0 1-3.03-3.07Zm-19.84 0a3.05 3.05 0 0 1 3.03-3.06 3.05 3.05 0 0 1 3.03 3.06 3.05 3.05 0 0 1-3.03 3.07 3.05 3.05 0 0 1-3.02-3.07Zm-19.84 0a3.05 3.05 0 0 1 3.03-3.06 3.05 3.05 0 0 1 3.03 3.06 3.05 3.05 0 0 1-3.03 3.07 3.05 3.05 0 0 1-3.03-3.07Zm-19.83 0a3.05 3.05 0 0 1 3.02-3.06 3.05 3.05 0 0 1 3.03 3.06 3.05 3.05 0 0 1-3.03 3.07 3.05 3.05 0 0 1-3.02-3.07Zm-19.85 0a3.05 3.05 0 0 1 3.03-3.06 3.05 3.05 0 0 1 3.03 3.06 3.05 3.05 0 0 1-3.03 3.07 3.05 3.05 0 0 1-3.03-3.07Zm-19.83 0a3.05 3.05 0 0 1 3.03-3.06 3.05 3.05 0 0 1 3.02 3.06 3.05 3.05 0 0 1-3.02 3.07 3.05 3.05 0 0 1-3.03-3.07Zm-19.85 0a3.05 3.05 0 0 1 3.03-3.06 3.05 3.05 0 0 1 3.03 3.06 3.05 3.05 0 0 1-3.03 3.07 3.05 3.05 0 0 1-3.03-3.07Zm138.88-18.68a3.05 3.05 0 0 1 3.03-3.06 3.05 3.05 0 0 1 3.03 3.06 3.05 3.05 0 0 1-3.03 3.07 3.04 3.04 0 0 1-3.03-3.07Zm-19.84 0a3.05 3.05 0 0 1 3.03-3.06 3.05 3.05 0 0 1 3.03 3.06 3.05 3.05 0 0 1-3.03 3.07 3.04 3.04 0 0 1-3.03-3.07Zm-19.84 0a3.05 3.05 0 0 1 3.03-3.06 3.05 3.05 0 0 1 3.03 3.06 3.05 3.05 0 0 1-3.03 3.07 3.04 3.04 0 0 1-3.02-3.07Zm-19.84 0a3.05 3.05 0 0 1 3.03-3.06 3.05 3.05 0 0 1 3.03 3.06 3.05 3.05 0 0 1-3.03 3.07 3.04 3.04 0 0 1-3.03-3.07Zm-19.83 0a3.05 3.05 0 0 1 3.02-3.06 3.05 3.05 0 0 1 3.03 3.06 3.05 3.05 0 0 1-3.03 3.07 3.04 3.04 0 0 1-3.02-3.07Zm-19.85 0a3.05 3.05 0 0 1 3.03-3.06 3.05 3.05 0 0 1 3.03 3.06 3.05 3.05 0 0 1-3.03 3.07 3.04 3.04 0 0 1-3.03-3.07Zm-19.83 0a3.05 3.05 0 0 1 3.03-3.06 3.05 3.05 0 0 1 3.02 3.06 3.05 3.05 0 0 1-3.02 3.07 3.04 3.04 0 0 1-3.03-3.07Zm-19.85 0a3.05 3.05 0 0 1 3.03-3.06 3.05 3.05 0 0 1 3.03 3.06 3.05 3.05 0 0 1-3.03 3.07 3.04 3.04 0 0 1-3.03-3.07Zm138.88-18.67a3.05 3.05 0 0 1 3.03-3.06 3.05 3.05 0 0 1 3.03 3.06 3.05 3.05 0 0 1-3.03 3.07 3.06 3.06 0 0 1-3.03-3.07Zm-16.81 3.07a3.05 3.05 0 0 0 3.03-3.07 3.05 3.05 0 0 0-3.03-3.06 3.05 3.05 0 0 0-3.03 3.06c0 1.7 1.35 3.07 3.03 3.07Zm-22.87-3.07c0-1.7 1.36-3.06 3.02-3.06a3.05 3.05 0 0 1 3.03 3.06 3.05 3.05 0 0 1-3.03 3.07 3.05 3.05 0 0 1-3.01-3.07Zm-19.84 0a3.05 3.05 0 0 1 3.03-3.06 3.05 3.05 0 0 1 3.03 3.06 3.05 3.05 0 0 1-3.03 3.07 3.06 3.06 0 0 1-3.03-3.07Zm-16.82 3.07a3.05 3.05 0 0 0 3.03-3.07 3.05 3.05 0 0 0-3.03-3.06 3.05 3.05 0 0 0-3.03 3.06c0 1.7 1.36 3.07 3.03 3.07Zm-22.86-3.07a3.05 3.05 0 0 1 3.03-3.06 3.05 3.05 0 0 1 3.03 3.06 3.05 3.05 0 0 1-3.03 3.07 3.06 3.06 0 0 1-3.03-3.07Zm-19.83 0a3.05 3.05 0 0 1 3.03-3.06 3.05 3.05 0 0 1 3.02 3.06 3.05 3.05 0 0 1-3.02 3.07 3.06 3.06 0 0 1-3.03-3.07Zm-16.82 3.07a3.05 3.05 0 0 0 3.03-3.07 3.05 3.05 0 0 0-3.03-3.06 3.05 3.05 0 0 0-3.03 3.06c0 1.7 1.36 3.07 3.03 3.07Z"></path></g><g clip-path="url(#hero-dots_1)" fill="#DB6300"><path d="M138.88 96.94a3.05 3.05 0 0 1 3.03-3.07 3.05 3.05 0 0 1 3.03 3.07 3.05 3.05 0 0 1-3.03 3.06 3.05 3.05 0 0 1-3.03-3.06Zm-19.84 0a3.05 3.05 0 0 1 3.03-3.07 3.05 3.05 0 0 1 3.03 3.07 3.05 3.05 0 0 1-3.03 3.06 3.05 3.05 0 0 1-3.03-3.06Zm-19.84 0a3.05 3.05 0 0 1 3.03-3.07 3.05 3.05 0 0 1 3.03 3.07 3.05 3.05 0 0 1-3.03 3.06 3.05 3.05 0 0 1-3.02-3.06Zm-19.84 0a3.05 3.05 0 0 1 3.03-3.07 3.05 3.05 0 0 1 3.03 3.07 3.05 3.05 0 0 1-3.03 3.06 3.05 3.05 0 0 1-3.03-3.06Zm-19.83 0a3.05 3.05 0 0 1 3.02-3.07 3.05 3.05 0 0 1 3.03 3.07 3.05 3.05 0 0 1-3.03 3.06 3.05 3.05 0 0 1-3.02-3.06Zm-19.85 0a3.05 3.05 0 0 1 3.03-3.07 3.05 3.05 0 0 1 3.03 3.07 3.05 3.05 0 0 1-3.03 3.06 3.05 3.05 0 0 1-3.03-3.06Zm-19.83 0a3.05 3.05 0 0 1 3.03-3.07 3.05 3.05 0 0 1 3.02 3.07 3.05 3.05 0 0 1-3.02 3.06 3.05 3.05 0 0 1-3.03-3.06Zm-19.85 0a3.05 3.05 0 0 1 3.03-3.07 3.05 3.05 0 0 1 3.03 3.07 3.05 3.05 0 0 1-3.03 3.06 3.05 3.05 0 0 1-3.03-3.06Zm138.88-18.69a3.05 3.05 0 0 1 3.03-3.06 3.05 3.05 0 0 1 3.03 3.06 3.05 3.05 0 0 1-3.03 3.07 3.04 3.04 0 0 1-3.03-3.07Zm-19.84 0a3.05 3.05 0 0 1 3.03-3.06 3.05 3.05 0 0 1 3.03 3.06 3.05 3.05 0 0 1-3.03 3.07 3.04 3.04 0 0 1-3.03-3.07Zm-19.84 0a3.05 3.05 0 0 1 3.03-3.06 3.05 3.05 0 0 1 3.03 3.06 3.05 3.05 0 0 1-3.03 3.07 3.04 3.04 0 0 1-3.02-3.07Zm-19.84 0a3.05 3.05 0 0 1 3.03-3.06 3.05 3.05 0 0 1 3.03 3.06 3.05 3.05 0 0 1-3.03 3.07 3.04 3.04 0 0 1-3.03-3.07Zm-19.83 0a3.05 3.05 0 0 1 3.02-3.06 3.05 3.05 0 0 1 3.03 3.06 3.05 3.05 0 0 1-3.03 3.07 3.04 3.04 0 0 1-3.02-3.07Zm-19.85 0a3.05 3.05 0 0 1 3.03-3.06 3.05 3.05 0 0 1 3.03 3.06 3.05 3.05 0 0 1-3.03 3.07 3.04 3.04 0 0 1-3.03-3.07Zm-19.83 0a3.05 3.05 0 0 1 3.03-3.06 3.05 3.05 0 0 1 3.02 3.06 3.05 3.05 0 0 1-3.02 3.07 3.04 3.04 0 0 1-3.03-3.07Zm-19.85 0a3.05 3.05 0 0 1 3.03-3.06 3.05 3.05 0 0 1 3.03 3.06 3.05 3.05 0 0 1-3.03 3.07 3.04 3.04 0 0 1-3.03-3.07Zm138.88-18.66a3.05 3.05 0 0 1 3.03-3.07 3.05 3.05 0 0 1 3.03 3.07 3.05 3.05 0 0 1-3.03 3.06 3.06 3.06 0 0 1-3.03-3.06Zm-16.81 3.06a3.05 3.05 0 0 0 3.03-3.06c0-1.7-1.36-3.07-3.03-3.07a3.05 3.05 0 0 0-3.03 3.07 3.04 3.04 0 0 0 3.03 3.06Zm-22.87-3.06c0-1.7 1.36-3.07 3.02-3.07a3.05 3.05 0 0 1 3.03 3.07 3.05 3.05 0 0 1-3.03 3.06 3.05 3.05 0 0 1-3.01-3.06Zm-19.84 0a3.05 3.05 0 0 1 3.03-3.07 3.05 3.05 0 0 1 3.03 3.07 3.05 3.05 0 0 1-3.03 3.06 3.06 3.06 0 0 1-3.03-3.06Zm-16.82 3.06a3.05 3.05 0 0 0 3.03-3.06c0-1.7-1.36-3.07-3.03-3.07a3.05 3.05 0 0 0-3.03 3.07 3.05 3.05 0 0 0 3.03 3.06Zm-22.86-3.06a3.05 3.05 0 0 1 3.03-3.07 3.05 3.05 0 0 1 3.03 3.07 3.05 3.05 0 0 1-3.03 3.06 3.06 3.06 0 0 1-3.03-3.06Zm-19.83 0a3.05 3.05 0 0 1 3.03-3.07 3.05 3.05 0 0 1 3.02 3.07 3.05 3.05 0 0 1-3.02 3.06 3.06 3.06 0 0 1-3.03-3.06Zm-16.82 3.06a3.05 3.05 0 0 0 3.03-3.06c0-1.7-1.36-3.07-3.03-3.07a3.05 3.05 0 0 0-3.03 3.07 3.05 3.05 0 0 0 3.03 3.06Z"></path></g><defs><clipPath id="hero-dots_0"><path fill="#fff" d="M0 0h144.93v43.48h-144.93z"></path></clipPath><clipPath id="hero-dots_1"><path fill="#fff" transform="translate(0 56.522)" d="M0 0h144.93v43.48h-144.93z"></path></clipPath></defs></svg><svg viewBox="0 0 16 16" fill="none" id="hero-search-data"><path d="M13.6 1.6h-1.6v-.8a.8.8 0 0 0-1.6 0v.8h-4.8v-.8a.8.8 0 0 0-1.6 0v.8h-1.6a2.4 2.4 0 0 0-2.4 2.4v9.6a2.4 2.4 0 0 0 2.4 2.4h11.2a2.4 2.4 0 0 0 2.4-2.4v-9.6a2.4 2.4 0 0 0-2.4-2.4Zm.8 12a.8.8 0 0 1-.8.8h-11.2a.8.8 0 0 1-.8-.8v-5.6h12.8v5.6Zm0-7.2h-12.8v-2.4a.8.8 0 0 1 .8-.8h1.6v.8a.8.8 0 0 0 1.6 0v-.8h4.8v.8a.8.8 0 0 0 1.6 0v-.8h1.6a.8.8 0 0 1 .8.8v2.4Z" fill="#CACACA"></path></svg><svg viewBox="0 0 101 283" fill="none" id="hero-semicircle-1-1"><g opacity="0.8" clip-path="url(#hero-semicircle-1-1_0)"><path opacity="0.5" d="M-41.0237 258.648C24.1329 258.648 76.9527 206.199 76.9527 141.5C76.9527 76.8007 24.1329 24.3515 -41.0237 24.3515C-106.18 24.3515 -159 76.8007 -159 141.5C-159 206.199 -106.18 258.648 -41.0237 258.648Z" fill="#EEAA2B"></path><path d="M-41.5683 0.351547V3.73235C-43.2749 3.73235 -44.9644 3.76616 -46.6539 3.81687L-46.7733 0.436067C-45.0326 0.385355 -43.309 0.351547 -41.5683 0.351547ZM-36.3632 0.436067C-34.6225 0.503683 -32.8988 0.588203 -31.1751 0.706531L-31.4141 4.07043C-33.1036 3.9521 -34.7931 3.86758 -36.4826 3.79996L-36.3632 0.436067ZM-51.9614 0.723435L-51.7054 4.08733C-53.3949 4.20566 -55.0844 4.3578 -56.7569 4.54374L-57.1494 1.19675C-55.4257 1.0108 -53.7021 0.858667 -51.9614 0.723435ZM-25.9871 1.17984C-24.2635 1.36579 -22.5398 1.58554 -20.8162 1.8222L-21.3111 5.16919C-22.9835 4.93253 -24.656 4.71278 -26.3455 4.54374L-25.9871 1.17984ZM-62.3033 1.8391L-61.8084 5.18609C-63.4979 5.42275 -65.1533 5.71012 -66.8257 5.99749L-67.4401 2.6843C-65.7335 2.38003 -64.0269 2.09266 -62.3033 1.8391ZM-15.6793 2.6674C-13.9728 2.97167 -12.2662 3.30975 -10.5766 3.68164L-11.3105 6.97792C-12.9659 6.62293 -14.6213 6.28485 -16.2937 5.98058L-15.6793 2.6674ZM-72.5428 3.71544L-71.7919 7.01173C-73.4473 7.38361 -75.1027 7.77241 -76.724 8.19501L-77.5772 4.91563C-75.9219 4.49303 -74.2323 4.08733 -72.5428 3.71544ZM-5.52515 4.88182C-3.83562 5.32133 -2.18024 5.77773 -0.507789 6.26795L-1.48054 9.51352C-3.1018 9.0233 -4.72305 8.5838 -6.37844 8.1612L-5.52515 4.88182ZM-82.6117 6.31866L-81.6219 9.56423C-83.2431 10.0544 -84.8644 10.5616 -86.4515 11.1025L-87.5608 7.90764C-85.9225 7.3329 -84.2671 6.80888 -82.6117 6.31866ZM4.44132 7.85693C6.0967 8.41476 7.73504 8.98949 9.35629 9.61494L8.14461 12.776C6.55748 12.1674 4.97036 11.6096 3.3491 11.0687L4.44132 7.85693ZM-92.4587 9.64875L-91.2299 12.8098C-92.8171 13.4183 -94.3701 14.0438 -95.9231 14.6861L-97.2542 11.5758C-95.6841 10.8996 -94.0799 10.2573 -92.4587 9.64875ZM14.203 11.542C15.8072 12.2182 17.3943 12.9281 18.9644 13.655L17.5138 16.7146C15.9778 16.0047 14.4249 15.3116 12.8719 14.6523L14.203 11.542ZM-102.016 13.6719L-100.565 16.7315C-102.101 17.4415 -103.62 18.1853 -105.122 18.946L-106.692 15.937C-105.122 15.1595 -103.569 14.3988 -102.016 13.6719ZM23.6404 15.9201C25.1934 16.7146 26.7123 17.526 28.2311 18.3712L26.5587 21.3125C25.0739 20.4842 23.5892 19.6897 22.0704 18.929L23.6404 15.9201ZM-111.231 18.3881L-109.559 21.3294C-111.026 22.1577 -112.494 23.0029 -113.928 23.865L-115.702 20.9744C-114.252 20.0954 -112.75 19.2164 -111.231 18.3881ZM32.7195 20.9913C34.2042 21.8873 35.6719 22.817 37.1225 23.7636L35.2282 26.5866C33.8117 25.6568 32.3781 24.7609 30.9446 23.8819L32.7195 20.9913ZM-120.105 23.7467L-118.211 26.5697C-119.628 27.4994 -121.01 28.446 -122.392 29.4264L-124.372 26.6711C-122.972 25.6737 -121.556 24.6933 -120.105 23.7467ZM41.406 26.688C42.8225 27.6853 44.2048 28.7165 45.5871 29.7645L43.5051 32.4353C42.1569 31.4042 40.8087 30.4069 39.4263 29.4264L41.406 26.688ZM-128.553 29.7476L-126.471 32.4184C-127.819 33.4496 -129.133 34.4976 -130.43 35.5626L-132.615 32.9594C-131.284 31.8775 -129.935 30.7957 -128.553 29.7476ZM49.6488 32.9932C50.9799 34.0919 52.294 35.2245 53.591 36.374L51.3042 38.8927C50.0413 37.777 48.7614 36.6783 47.4644 35.5964L49.6488 32.9932ZM-136.54 36.3402L-134.27 38.8589C-135.533 39.9745 -136.779 41.124 -137.99 42.2904L-140.363 39.8562C-139.117 38.656 -137.837 37.4896 -136.54 36.3402ZM57.3967 39.8731C58.6425 41.0733 59.8713 42.2735 61.0829 43.5075L58.6254 45.8571C57.4479 44.6569 56.2533 43.4568 55.0245 42.2904L57.3967 39.8731ZM-144.049 43.4906L-141.591 45.8402C-142.769 47.0404 -143.929 48.2744 -145.056 49.5253L-147.599 47.2602C-146.421 45.9755 -145.243 44.7246 -144.049 43.4906ZM64.6156 47.294C65.776 48.5787 66.9024 49.8634 68.0117 51.1819L65.3835 53.3456C64.2913 52.0609 63.182 50.7931 62.0557 49.5422L64.6156 47.294ZM-150.995 51.165L-148.366 53.3287C-149.459 54.6134 -150.517 55.9319 -151.558 57.2504L-154.254 55.1881C-153.196 53.8189 -152.104 52.4835 -150.995 51.165ZM71.2713 55.205C72.3293 56.5574 73.3704 57.9435 74.3772 59.3296L71.5955 61.3074C70.6057 59.9382 69.5988 58.6027 68.5578 57.2673L71.2713 55.205ZM-157.36 59.3127L-154.578 61.2905C-155.568 62.6597 -156.524 64.0458 -157.463 65.432L-160.313 63.5556C-159.357 62.1357 -158.384 60.7158 -157.36 59.3127ZM77.3297 63.5725C78.2853 64.9925 79.224 66.4462 80.1285 67.9169L77.2102 69.6749C76.3228 68.238 75.4183 66.835 74.4797 65.432L77.3297 63.5725ZM-163.128 67.9169L-160.21 69.6749C-161.098 71.1117 -161.951 72.5486 -162.787 74.0192L-165.757 72.3626C-164.903 70.8751 -164.033 69.3875 -163.128 67.9169ZM82.7566 72.3457C83.6099 73.8333 84.429 75.3546 85.2311 76.876L82.1934 78.4311C81.4084 76.9436 80.6234 75.473 79.7871 74.0192L82.7566 72.3457ZM-168.231 76.9098L-165.193 78.465C-165.978 79.9525 -166.712 81.4739 -167.446 82.9952L-170.535 81.5584C-169.801 79.9863 -169.033 78.4481 -168.231 76.9098ZM87.518 81.4908C88.2518 83.0459 88.9686 84.6011 89.6341 86.1901L86.494 87.5086C85.8284 85.9703 85.1458 84.4321 84.429 82.9276L87.518 81.4908ZM-172.668 86.2577L-169.528 87.5931C-170.194 89.1314 -170.825 90.7035 -171.44 92.2755L-174.631 91.0753C-173.999 89.4357 -173.351 87.8467 -172.668 86.2577ZM91.5967 90.957C92.2111 92.5629 92.8084 94.1688 93.3716 95.8085L90.1461 96.9072C89.6 95.3183 89.0198 93.7462 88.4225 92.1741L91.5967 90.957ZM-176.406 95.9099L-173.18 97.0087C-173.726 98.5976 -174.255 100.204 -174.733 101.809L-178.01 100.846C-177.498 99.1893 -176.969 97.5496 -176.406 95.9099ZM94.9587 100.711C95.4536 102.35 95.9314 104.007 96.3751 105.68L93.0644 106.543C92.6377 104.92 92.1769 103.297 91.682 101.691L94.9587 100.711ZM-179.409 105.799L-176.099 106.644C-176.525 108.267 -176.918 109.89 -177.293 111.529L-180.621 110.802C-180.246 109.129 -179.836 107.455 -179.409 105.799ZM97.5868 110.684C97.9623 112.357 98.3036 114.048 98.6278 115.738L95.2659 116.364C94.9587 114.707 94.6174 113.067 94.259 111.428L97.5868 110.684ZM-181.645 115.874L-178.283 116.482C-178.607 118.122 -178.88 119.778 -179.119 121.435L-182.498 120.945C-182.242 119.254 -181.969 117.547 -181.645 115.874ZM99.4811 120.809C99.7371 122.5 99.959 124.207 100.147 125.931L96.7506 126.303C96.5629 124.63 96.341 122.973 96.1021 121.317L99.4811 120.809ZM-183.164 126.067L-179.768 126.439C-179.955 128.095 -180.109 129.769 -180.228 131.442L-183.625 131.205C-183.505 129.481 -183.351 127.774 -183.164 126.067ZM100.625 131.053C100.744 132.761 100.846 134.485 100.915 136.209L97.5015 136.327C97.4332 134.637 97.3479 132.963 97.2284 131.307L100.625 131.053ZM-183.898 136.344L-180.484 136.463C-180.553 138.136 -180.587 139.81 -180.587 141.5V141.787H-184V141.466C-184 139.776 -183.966 138.052 -183.898 136.344ZM101 141.365V141.5C101 143.173 100.966 144.847 100.915 146.504L97.5015 146.385C97.5527 144.762 97.5868 143.123 97.5868 141.5L101 141.365ZM-180.484 146.825C-180.416 148.515 -180.331 150.189 -180.194 151.845L-183.59 152.099C-183.727 150.391 -183.812 148.667 -183.881 146.96L-180.484 146.825ZM97.2284 151.423L100.625 151.659C100.505 153.384 100.351 155.091 100.164 156.798L96.7677 156.443C96.9554 154.77 97.109 153.096 97.2284 151.423ZM-179.734 156.849C-179.546 158.522 -179.324 160.179 -179.085 161.836L-182.464 162.326C-182.72 160.635 -182.942 158.928 -183.13 157.221L-179.734 156.849ZM96.1533 161.43L99.5323 161.92C99.2763 163.627 99.0033 165.318 98.6961 167.008L95.3341 166.4C95.6242 164.743 95.8973 163.086 96.1533 161.43ZM-178.249 166.805C-177.942 168.462 -177.6 170.102 -177.225 171.741L-180.553 172.485C-180.928 170.812 -181.269 169.121 -181.594 167.431L-178.249 166.805ZM94.3272 171.319L97.6551 172.046C97.2796 173.736 96.8701 175.393 96.4434 177.066L93.1326 176.221C93.5593 174.598 93.9518 172.958 94.3272 171.319ZM-176.03 176.627C-175.604 178.249 -175.143 179.872 -174.648 181.478L-177.907 182.458C-178.402 180.819 -178.88 179.162 -179.324 177.506L-176.03 176.627ZM91.7674 181.055L95.044 182.019C94.5491 183.675 94.0201 185.315 93.4569 186.938L90.2314 185.856C90.7776 184.267 91.2895 182.661 91.7674 181.055ZM-173.078 186.245C-172.532 187.834 -171.951 189.406 -171.337 190.978L-174.528 192.195C-175.143 190.589 -175.74 188.983 -176.303 187.344L-173.078 186.245ZM88.4907 190.589L91.682 191.789C91.0677 193.395 90.4192 195.001 89.7365 196.59L86.5964 195.272C87.262 193.733 87.8934 192.161 88.4907 190.589ZM-169.443 195.627C-168.777 197.165 -168.095 198.686 -167.361 200.208L-170.45 201.644C-171.184 200.089 -171.9 198.534 -172.583 196.962L-169.443 195.627ZM84.5144 199.87L87.6033 201.306C86.8695 202.862 86.1015 204.417 85.2994 205.938L82.2617 204.4C83.0467 202.912 83.7976 201.408 84.5144 199.87ZM-165.125 204.704C-164.34 206.192 -163.538 207.662 -162.719 209.116L-165.688 210.773C-166.542 209.285 -167.361 207.781 -168.163 206.242L-165.125 204.704ZM79.8724 208.846L82.8419 210.502C81.9886 212.007 81.1183 213.494 80.2138 214.948L77.2955 213.19C78.1829 211.753 79.0362 210.299 79.8724 208.846ZM-160.142 213.443C-159.254 214.88 -158.35 216.283 -157.411 217.686L-160.261 219.563C-161.217 218.143 -162.156 216.689 -163.06 215.218L-160.142 213.443ZM74.565 217.433L77.415 219.292C76.4593 220.729 75.4695 222.149 74.4626 223.535L71.6809 221.574C72.6707 220.222 73.6263 218.836 74.565 217.433ZM-154.51 221.811C-153.52 223.18 -152.513 224.516 -151.472 225.834L-154.169 227.896C-155.227 226.544 -156.268 225.158 -157.275 223.772L-154.51 221.811ZM68.6602 225.631L71.3566 227.694C70.2985 229.063 69.2063 230.398 68.097 231.717L65.4689 229.553C66.5611 228.268 67.6192 226.95 68.6602 225.631ZM-148.298 229.756C-147.206 231.041 -146.097 232.308 -144.97 233.559L-147.513 235.824C-148.674 234.54 -149.8 233.255 -150.926 231.936L-148.298 229.756ZM62.1581 233.373L64.7009 235.621C63.5404 236.906 62.3629 238.157 61.1512 239.408L58.6937 237.058C59.8713 235.841 61.0317 234.624 62.1581 233.373ZM-141.506 237.244C-140.328 238.444 -139.134 239.645 -137.905 240.794L-140.277 243.228C-141.523 242.045 -142.752 240.828 -143.963 239.594L-141.506 237.244ZM55.1099 240.608L57.482 243.042C56.2362 244.243 54.9734 245.409 53.6764 246.558L51.3895 244.04C52.6524 242.924 53.8811 241.775 55.1099 240.608ZM-134.185 244.226C-132.922 245.341 -131.642 246.44 -130.345 247.522L-132.529 250.125C-133.86 249.026 -135.175 247.911 -136.472 246.761L-134.185 244.226ZM47.5497 247.336L49.7341 249.939C48.403 251.038 47.0548 252.12 45.6725 253.168L43.5904 250.497C44.9386 249.466 46.2527 248.401 47.5497 247.336ZM-126.369 250.649C-125.02 251.68 -123.672 252.678 -122.29 253.658L-124.269 256.413C-125.686 255.416 -127.085 254.385 -128.451 253.337L-126.369 250.649ZM39.5287 253.489L41.5254 256.244C40.126 257.242 38.6925 258.222 37.2419 259.169L35.3476 256.346C36.7641 255.416 38.1464 254.469 39.5287 253.489ZM-118.109 256.515C-116.692 257.445 -115.259 258.34 -113.808 259.219L-115.583 262.11C-117.068 261.214 -118.535 260.284 -119.986 259.338L-118.109 256.515ZM31.0811 259.05L32.856 261.941C31.3713 262.837 29.8865 263.699 28.3677 264.544L26.6952 261.603C28.1799 260.775 29.6305 259.929 31.0811 259.05ZM-109.422 261.755C-107.937 262.583 -106.453 263.378 -104.934 264.139L-106.487 267.147C-108.04 266.353 -109.576 265.542 -111.078 264.696L-109.422 261.755ZM22.241 263.986L23.8111 266.995C22.2751 267.773 20.7222 268.534 19.1521 269.277L17.7015 266.218C19.2204 265.491 20.7392 264.747 22.241 263.986ZM-100.36 266.353C-98.8243 267.063 -97.2713 267.756 -95.7012 268.398L-97.0323 271.509C-98.6365 270.833 -100.224 270.139 -101.794 269.413L-100.36 266.353ZM13.0767 268.263L14.4248 271.373C12.8377 272.05 11.2335 272.692 9.61227 273.301L8.38354 270.139C9.97067 269.548 11.5237 268.905 13.0767 268.263ZM-90.991 270.292C-89.4039 270.883 -87.8168 271.458 -86.1955 271.999L-87.2877 275.194C-88.9431 274.636 -90.5814 274.061 -92.2027 273.436L-90.991 270.292ZM3.60509 271.864L4.71438 275.059C3.07605 275.616 1.42066 276.14 -0.234729 276.648L-1.22455 273.402C0.396705 272.912 2.01797 272.405 3.60509 271.864ZM-81.3659 273.52C-79.7446 273.994 -78.1063 274.45 -76.468 274.873L-77.3213 278.152C-79.0108 277.729 -80.6832 277.256 -82.3386 276.766L-81.3659 273.52ZM-6.10539 274.771L-5.23503 278.051C-6.90748 278.49 -8.597 278.896 -10.2865 279.268L-11.0374 275.971C-9.38204 275.583 -7.74372 275.194 -6.10539 274.771ZM-71.5189 276.056C-69.8635 276.411 -68.2081 276.749 -66.5356 277.053L-67.15 280.383C-68.8566 280.079 -70.5632 279.741 -72.2527 279.369L-71.5189 276.056ZM-16.0207 276.969L-15.3892 280.299C-17.0958 280.603 -18.8024 280.89 -20.526 281.144L-21.021 277.797C-19.3485 277.543 -17.676 277.273 -16.0207 276.969ZM-61.5353 277.848C-59.8629 278.084 -58.1904 278.287 -56.5009 278.473L-56.8593 281.837C-58.5829 281.651 -60.3066 281.431 -62.0302 281.195L-61.5353 277.848ZM-26.0725 278.422L-25.697 281.786C-27.4207 281.972 -29.1443 282.124 -30.885 282.26L-31.141 278.896C-29.4344 278.761 -27.7449 278.608 -26.0725 278.422ZM-51.4323 278.93C-49.7428 279.048 -48.0533 279.132 -46.3638 279.2L-46.4832 282.581C-48.2239 282.53 -49.9647 282.429 -51.6713 282.31L-51.4323 278.93ZM-36.1925 279.166L-36.0731 282.547C-37.7967 282.615 -39.5374 282.648 -41.2781 282.648V279.268C-39.5716 279.268 -37.882 279.234 -36.1925 279.166Z" fill="#EEAA2B"></path></g><defs><clipPath id="hero-semicircle-1-1_0"><rect width="285" height="282.297" fill="white" transform="translate(-184 0.351547)"></rect></clipPath></defs></svg><svg viewBox="0 0 21 21" fill="none" id="instagram"><path d="M13.78 10.5a3.28 3.28 0 1 1-6.5-.55h-1.16v4.37c0 .3.25.55.56.55h7.65a.55.55 0 0 0 .54-.55v-4.37h-1.14c.03.18.05.36.05.55Zm-3.28 2.19a2.19 2.19 0 1 0 0-4.38 2.19 2.19 0 0 0 0 4.38Zm2.63-4.49h1.3a.33.33 0 0 0 .34-.32v-1.32a.33.33 0 0 0-.33-.33h-1.31a.33.33 0 0 0-.33.33v1.32c0 .18.14.32.32.32Zm-2.63-8.2a10.5 10.5 0 1 0 0 21 10.5 10.5 0 0 0 0-21Zm5.47 14.75c0 .67-.55 1.22-1.22 1.22h-8.5c-.67 0-1.22-.55-1.22-1.22v-8.5c0-.67.55-1.22 1.22-1.22h8.5c.67 0 1.22.55 1.22 1.22v8.5Z" fill="#E6E6E6"></path></svg><svg viewBox="0 0 21 21" fill="none" id="linkedin"><path d="M10.5 0a10.5 10.5 0 1 0 0 21 10.5 10.5 0 0 0 0-21Zm-2.57 14.85h-2.13v-6.84h2.13v6.84Zm-1.08-7.68c-.67 0-1.1-.48-1.1-1.06 0-.6.45-1.07 1.13-1.07.69 0 1.1.46 1.12 1.07 0 .58-.43 1.06-1.15 1.06Zm8.85 7.68h-2.13v-3.79c0-.88-.3-1.48-1.08-1.48-.59 0-.93.4-1.09.8a1.5 1.5 0 0 0-.07.53v3.94h-2.13v-4.66c0-.85-.02-1.57-.05-2.18h1.84l.1.95h.04c.28-.45.97-1.1 2.12-1.1 1.4 0 2.45.93 2.45 2.95v4.04Z" fill="#E6E6E6"></path></svg><svg viewBox="0 0 21 21" fill="none" id="pinterest"><path d="M10.5 0a10.5 10.5 0 1 0 0 21 10.5 10.5 0 0 0 0-21Zm.72 12.99c-.68-.05-.96-.39-1.48-.7-.3 1.52-.65 2.97-1.7 3.74-.32-2.3.48-4.03.85-5.86-.64-1.07.07-3.22 1.41-2.69 1.64.65-1.42 3.97.64 4.38 2.15.43 3.02-3.73 1.7-5.08-1.94-1.96-5.62-.05-5.16 2.75.1.68.81.9.28 1.84-1.23-.28-1.6-1.25-1.56-2.55.08-2.12 1.91-3.6 3.75-3.81 2.32-.26 4.5.85 4.8 3.04.34 2.46-1.05 5.13-3.53 4.94Z" fill="#E6E6E6"></path></svg><svg viewBox="0 0 70 71" fill="none" id="services-hotel"><path d="M44.33 44.65v-10.61a3.5 3.5 0 0 0-3.5-3.5h-32.66a3.5 3.5 0 0 0-3.5 3.5v10.61a5.84 5.84 0 0 0-4.67 5.72v18.67c0 .64.52 1.16 1.17 1.16h4.66c.65 0 1.17-.52 1.17-1.16v-3.5h35v3.5c0 .64.52 1.16 1.17 1.16h4.66c.65 0 1.17-.52 1.17-1.16v-18.67c0-2.82-2-5.17-4.67-5.72Zm-37.33-10.61c0-.65.52-1.17 1.17-1.17h32.66c.65 0 1.17.52 1.17 1.17v10.5h-2.33v-4.67a3.5 3.5 0 0 0-3.5-3.5h-7a3.5 3.5 0 0 0-3.5 3.5v4.67h-2.34v-4.67a3.5 3.5 0 0 0-3.5-3.5h-7a3.5 3.5 0 0 0-3.5 3.5v4.67h-2.33v-10.5Zm30.33 5.83v4.67h-9.33v-4.67c0-.64.52-1.17 1.17-1.17h7c.64 0 1.16.53 1.16 1.17Zm-16.33 0v4.67h-9.33v-4.67c0-.64.52-1.17 1.16-1.17h7c.65 0 1.17.53 1.17 1.17Zm25.67 28h-2.34v-3.5c0-.65-.52-1.17-1.16-1.17h-37.34c-.64 0-1.16.52-1.16 1.17v3.5h-2.34v-9.33h44.34v9.33Zm0-11.67h-44.34v-5.83a3.5 3.5 0 0 1 3.5-3.5h37.34a3.5 3.5 0 0 1 3.5 3.5v5.83Zm22.16-11.66h-16.33c-.64 0-1.17.52-1.17 1.16v17.5h2.34v-7h14v7h2.33v-17.5c0-.64-.52-1.16-1.17-1.16Zm-1.16 9.33h-14v-7h14v7Z" fill="#DB6300"></path><path d="M63 49.2h-4.67v2.34h4.67v-2.34Zm3.44-14.37-2.33-7c-.16-.47-.6-.8-1.11-.8h-4.67c-.5 0-.94.33-1.1.8l-2.34 7a1.17 1.17 0 0 0 1.11 1.54h3.5v3.5h-2.33v2.33h7v-2.33h-2.34v-3.5h3.5a1.16 1.16 0 0 0 1.11-1.54Zm-8.82-.8 1.55-4.66h2.99l1.56 4.67h-6.1Z" fill="#DB6300"></path><path d="m69.31 15.47-33.83-15.17c-.3-.13-.65-.13-.96 0l-33.83 15.17c-.42.19-.69.6-.69 1.07v14h2.33v-13.25l32.67-14.64 32.67 14.64v13.25h2.33v-14c0-.46-.27-.88-.69-1.07Z" fill="#DB6300"></path><path d="m43.05 16.34-2.3.39a5.84 5.84 0 1 1-3.8-4.53l.77-2.2a8.18 8.18 0 1 0-2.72 15.87 8.18 8.18 0 0 0 8.05-9.53Z" fill="#DB6300"></path><path d="m42.34 9.88-7.34 7.34-1.5-1.5-1.66 1.64 2.34 2.33a1.16 1.16 0 0 0 1.64 0l8.17-8.16-1.65-1.65Z" fill="#DB6300"></path></svg><svg viewBox="0 0 70 71" fill="none" id="services-plane"><path d="M32.98 35.29a1.37 1.37 0 1 0 1.93 1.93 1.37 1.37 0 0 0-1.93-1.93Z" fill="#EEAA2B"></path><path d="M54.72 4.2c-2.35 1.82-2.99 2.75-11.3 10.99l-5-.81 2.3-2.3a4.1 4.1 0 1 0-5.8-5.8l-6.47 6.47-22.61-3.68a4.62 4.62 0 0 0-3.45 8.29l22.53 16.32-4.22 4.22a34.3 34.3 0 0 0-4.53 5.91l-10.5-3.09a4.42 4.42 0 0 0-3.77 7.88l8.62 5.96c-1.5 3.31-2.41 5.7-2.46 5.81a1.37 1.37 0 0 0 1.77 1.77c.1-.04 2.5-.96 5.81-2.46l5.97 8.62a4.42 4.42 0 0 0 7.87-3.76l-3.1-10.51a34.33 34.33 0 0 0 5.93-4.53l4.21-4.22 16.32 22.53a4.61 4.61 0 0 0 8.3-3.45l-3.69-22.6 6.46-6.47a4.1 4.1 0 1 0-5.8-5.8l-2.28 2.29-.82-4.99c8.25-8.33 9.17-8.95 10.99-11.3 4.22-5.47 5.2-11 2.46-13.74-2.75-2.75-8.27-1.77-13.74 2.45Zm-17.87 4.02a1.37 1.37 0 1 1 1.93 1.93l-3.68 3.68-3.33-.54 5.08-5.07Zm-32.86 6.92a1.88 1.88 0 0 1 1.4-3.37l35.64 5.8-14.15 14.15-22.89-16.57Zm-.76 28.63c.43-.43 1.07-.6 1.66-.42l9.83 2.89c-1 1.76-2.02 3.7-3.03 5.8l-8.23-5.7a1.68 1.68 0 0 1-.23-2.57Zm23.2 23.2c-.74.74-1.97.64-2.58-.23l-5.7-8.23a93.77 93.77 0 0 0 5.82-3.03l2.88 9.83c.18.59.02 1.23-.42 1.66Zm33.62-35.55a1.37 1.37 0 1 1 1.93 1.94l-5.07 5.07-.54-3.33 3.68-3.68Zm-1.62 33.38a1.88 1.88 0 0 1-3.38 1.4l-16.57-22.88 14.15-14.15 5.8 35.63Zm-28.06-17.24c-1.5 1.5-3.7 3.13-6.54 4.83a101.3 101.3 0 0 1-12 5.98 99.36 99.36 0 0 1 6.11-12.21 33.85 33.85 0 0 1 4.7-6.33c33.4-33.32 31.42-31.6 33.44-33.22a7.1 7.1 0 0 1 5.6 1.9 7.1 7.1 0 0 1 1.91 5.6c-1.62 2.04.08.08-33.22 33.45Zm35.56-37.03a9.12 9.12 0 0 0-6.25-6.26c1.98-1 5.3-2.13 6.84-.6 1.22 1.22.91 3.9-.59 6.86Z" fill="#EEAA2B"></path><path d="m40.71 27.56-3.86 3.86a1.37 1.37 0 1 0 1.93 1.94l3.87-3.87a1.37 1.37 0 1 0-1.94-1.93Zm7.74-7.74-3.87 3.87a1.37 1.37 0 0 0 1.93 1.93l3.87-3.87a1.37 1.37 0 0 0-1.93-1.93Z" fill="#EEAA2B"></path></svg><svg viewBox="0 0 166 331" fill="none" id="services-semicircle"><g opacity=".08" clip-path="url(#services-semicircle_0)"><path d="M165.5 0c-91.4 0-165.5 74.1-165.5 165.5s74.1 165.5 165.5 165.5 165.5-74.1 165.5-165.5-74.1-165.5-165.5-165.5Zm0 259.98a94.48 94.48 0 1 1 0-188.96 94.48 94.48 0 0 1 0 188.96Z" fill="#DB6300"></path></g><defs><clipPath id="services-semicircle_0"><path fill="#fff" d="M0 0h331v331h-331z"></path></clipPath></defs></svg><svg viewBox="0 0 70 71" fill="none" id="services-taxi"><path d="M53.06 58.91a3.4 3.4 0 1 0 .01 6.78 3.4 3.4 0 0 0 0-6.78Zm0 4.52a1.13 1.13 0 1 1 0-2.26 1.13 1.13 0 0 1 0 2.26Zm-38.38-4.52a3.4 3.4 0 1 0 0 6.78 3.4 3.4 0 0 0 0-6.78Zm0 4.52a1.13 1.13 0 1 1 0-2.26 1.13 1.13 0 0 1 0 2.26Zm9.03-11.29h2.26v2.26h-2.26v-2.26Zm2.26-2.26h2.26v2.26h-2.26v-2.26Zm2.26 2.26h2.25v2.26h-2.25v-2.26Zm2.25-2.26h2.26v2.26h-2.26v-2.26Zm2.26 2.26h2.26v2.26h-2.26v-2.26Zm2.26-2.26h2.26v2.26h-2.26v-2.26Zm2.26 2.26h2.26v2.26h-2.26v-2.26Zm2.26-2.26h2.25v2.26h-2.25v-2.26Zm2.25 2.26h2.26v2.26h-2.26v-2.26Zm-5.64-41.78h2.26v6.78h2.26v-6.78h2.25v-2.25h-6.77v2.25Zm12.42-2.26a3.4 3.4 0 0 0-3.39 3.4v5.64h2.26v-2.26h2.26v2.26h2.26v-5.65a3.4 3.4 0 0 0-3.4-3.38Zm-1.13 4.52v-1.13a1.13 1.13 0 0 1 2.26 0v1.13h-2.26Zm11.29-4.52a4.4 4.4 0 0 1-1.13 2.9 4.35 4.35 0 0 1-1.13-2.9h-2.26c0 1.68.66 3.3 1.8 4.52a6.62 6.62 0 0 0-1.8 4.52h2.26c0-1.07.42-2.1 1.13-2.9a4.35 4.35 0 0 1 1.13 2.9h2.26c0-1.67-.66-3.3-1.8-4.52a6.62 6.62 0 0 0 1.8-4.51h-2.26Zm4.52 0h2.25v9.04h-2.25v-9.03Z" fill="#219653"></path><path d="M55.32 29.56c.63 0 1.13-.5 1.13-1.13v-3.39h12.42c.62 0 1.13-.5 1.13-1.13v-22.58c0-.62-.5-1.13-1.13-1.13h-36.13c-.62 0-1.13.5-1.13 1.13v22.58c0 .63.5 1.13 1.13 1.13h12.42v3.39c0 .62.5 1.13 1.13 1.13h1.13v6.02l-.18-.17a13.51 13.51 0 0 0-6.57-3.33v-3.65c0-.63-.5-1.13-1.13-1.13h-18.09c-.62 0-1.13.5-1.13 1.13v3.79c-3.24.8-6.11 2.78-8.01 5.63l-5.01 7.51h-1.65a5.65 5.65 0 0 0-5.65 5.65v9.03a3.4 3.4 0 0 0 3.39 3.39h3.47a7.91 7.91 0 0 0 7.82 6.77 7.91 7.91 0 0 0 7.81-6.77h22.76a7.91 7.91 0 0 0 7.81 6.77 7.91 7.91 0 0 0 7.82-6.77h5.73a3.4 3.4 0 0 0 3.39-3.39v-9.03a5.65 5.65 0 0 0-5.65-5.65h-6.33l-3.83-3.53v-12.27h1.13Zm-21.45-27.1h33.87v20.32h-33.87v-20.32Zm20.32 22.58v2.26h-6.77v-2.26h6.77Zm-31.6 4.52h15.82v2.27l-.36-.01h-14.47c-.34 0-.67.03-1 .06v-2.32Zm5.66 15.8v-11.29h2.26v11.3h-2.26Zm-14.06-6.26a11.27 11.27 0 0 1 9.4-5.03h2.4v11.3h-15.98l4.18-6.27Zm-9.67 8.73v3.18c0 1.47-.95 2.71-2.26 3.18v-3.18c0-1.47.95-2.71 2.26-3.18Zm10.16 20.11a5.65 5.65 0 1 1 .01-11.3 5.65 5.65 0 0 1-.01 11.3Zm38.38 0a5.65 5.65 0 1 1 .02-11.3 5.65 5.65 0 0 1-.02 11.3Zm13.55-6.77h-5.73a7.91 7.91 0 0 0-7.82-6.77 7.91 7.91 0 0 0-7.8 6.77h-22.77a7.91 7.91 0 0 0-7.81-6.77 7.91 7.91 0 0 0-7.82 6.77h-3.47c-.63 0-1.13-.5-1.13-1.13v-3.5a5.66 5.66 0 0 0 4.51-5.53v-3.39h54.2v2.26a4.52 4.52 0 0 0 4.51 4.52h2.26v5.64c0 .62-.5 1.13-1.13 1.13Zm1.13-10.16v1.13h-2.26a2.26 2.26 0 0 1-2.25-2.26v-2.26h1.12a3.4 3.4 0 0 1 3.4 3.39Zm-34.97-5.65v-11.29h5.28a11.3 11.3 0 0 1 7.66 3l8.98 8.3h-21.92Zm19.17-5.61-2.26-2.09v-8.1h2.26v10.19Z" fill="#219653"></path></svg><svg viewBox="0 0 73 71" fill="none" id="services-tour"><path d="M6.93 11.45c.26 0 .51-.1.71-.28l.78-.68a1.06 1.06 0 1 0-1.38-1.62l-.82.72a1.06 1.06 0 0 0 .71 1.86Zm28.77-8.76a34.53 34.53 0 0 1 2.28.39 1.06 1.06 0 0 0 .21-2.1 36.7 36.7 0 0 0-2.18-.4 1.06 1.06 0 1 0-.3 2.11Zm16.97 7.56c.54.44 1.06.9 1.57 1.38a1.06 1.06 0 0 0 1.5-.05c.4-.43.38-1.1-.05-1.5-.53-.5-1.1-1-1.66-1.47a1.06 1.06 0 0 0-1.36 1.64Zm-10.87-6.1c.65.23 1.3.47 1.95.74a1.06 1.06 0 0 0 1.39-.58 1.06 1.06 0 0 0-.58-1.39c-.69-.28-1.39-.54-2.08-.78a1.06 1.06 0 0 0-.69 2.01Zm-12.39-1.8h.04c.7-.02 1.4-.03 2.1-.01a1.06 1.06 0 1 0 .04-2.13 37.8 37.8 0 0 0-2.21.02 1.06 1.06 0 0 0 .03 2.12Zm32.25 19.3a1.06 1.06 0 1 0 1.9-.94 36.6 36.6 0 0 0-1.03-1.96 1.06 1.06 0 0 0-1.85 1.05c.34.6.67 1.23.98 1.85Zm-3.26-5.35a1.06 1.06 0 1 0 1.71-1.26c-.43-.6-.9-1.18-1.37-1.74a1.06 1.06 0 0 0-1.63 1.36c.45.53.88 1.09 1.3 1.64Zm4.86 9.2c.23.65.44 1.32.62 2a1.06 1.06 0 0 0 2.05-.58c-.2-.7-.42-1.42-.66-2.12a1.06 1.06 0 0 0-2.01.7Zm-40.25-22.34c.08 0 .16 0 .23-.02.68-.15 1.37-.28 2.06-.4a1.06 1.06 0 0 0-.34-2.1c-.72.12-1.46.26-2.17.42a1.06 1.06 0 0 0 .22 2.1Zm24.5 3.54c.6.34 1.2.7 1.8 1.08a1.06 1.06 0 0 0 1.46-.32c.32-.5.18-1.15-.32-1.47-.62-.4-1.26-.78-1.9-1.14a1.06 1.06 0 1 0-1.04 1.85Zm-30.64-1.58c.14 0 .28-.03.41-.08.64-.27 1.3-.53 1.95-.76a1.06 1.06 0 0 0-.7-2c-.7.24-1.4.51-2.08.8a1.06 1.06 0 0 0 .42 2.04Zm-5.69 3.04c.2 0 .4-.05.58-.17a40.5 40.5 0 0 1 1.78-1.1 1.06 1.06 0 0 0-1.06-1.84c-.64.37-1.27.76-1.89 1.16a1.06 1.06 0 0 0 .59 1.95Zm54.48 22.22c-.59.09-.98.63-.9 1.21l.14 1.02a1.06 1.06 0 0 0 2.11-.25l-.14-1.09a1.06 1.06 0 0 0-1.21-.89Zm-52.31-2.03c0-.6-.48-1.07-1.07-1.07h-2.04a1.06 1.06 0 1 0 0 2.13h2.04c.6 0 1.07-.48 1.07-1.06Zm2.39 3.8h-2.04a1.06 1.06 0 1 0 0 2.13h2.04a1.06 1.06 0 0 0 0-2.13Zm-4.87 9.58h-2.04a1.06 1.06 0 1 0 0 2.13h2.04a1.06 1.06 0 0 0 0-2.13Zm21.87-30.47h-2.05a1.06 1.06 0 1 0 0 2.13h2.05a1.06 1.06 0 0 0 0-2.13Zm7.03 40.97c0-.58-.48-1.06-1.07-1.06h-2.04a1.06 1.06 0 1 0 0 2.13h2.04c.59 0 1.07-.48 1.07-1.07Zm-5.54 2.87h-2.04a1.06 1.06 0 1 0 0 2.13h2.04a1.06 1.06 0 0 0 0-2.13Z" fill="#0600AE"></path><path d="M71.57 37.33a3.86 3.86 0 0 0-2.84-1.13 11.3 11.3 0 0 0-7.45 3.15 31.23 31.23 0 0 0-.64-9.33 30.68 30.68 0 0 0-29.95-23.93 30.5 30.5 0 0 0-23.3 10.72 30.7 30.7 0 0 0 37.56 47.17l2.19 4.82a2.4 2.4 0 0 0 3.88.7l1.58-1.59c.43-.42.68-.99.7-1.58l.2-4.18 4.12-3.74 5.05 7.63a2.39 2.39 0 0 0 3.7.38l1.59-1.6c.54-.53.79-1.3.67-2.07l-2-12.5 2.3-2.03a11.3 11.3 0 0 0 3.77-8.05 3.86 3.86 0 0 0-1.13-2.84Zm-24.49-23.94a28.56 28.56 0 0 1 11.8 18.76h-17.54a2.38 2.38 0 0 1-2.4-2.39 2.4 2.4 0 0 1 2.4-2.4h4.25a4.5 4.5 0 0 0 4.52-4.51c0-2.5-2.03-4.52-4.52-4.52h-1.97a2.46 2.46 0 0 1-2.47-2.47 2.47 2.47 0 0 1 2.47-2.47h3.46Zm-16.39 51.96a28.4 28.4 0 0 1-15.17-4.37h7.29a5.12 5.12 0 0 0 5.15-5.14 5.15 5.15 0 0 0-5.15-5.15h-3.77a1.44 1.44 0 0 1-1.45-1.45c0-.8.65-1.45 1.45-1.45h13.88a6 6 0 0 0 6.03-6.03c0-3.33-2.7-6.04-6.03-6.04h-5.5a4.03 4.03 0 0 1-4.02-4.02v-.34a3.65 3.65 0 0 1 3.68-3.68 5.58 5.58 0 0 0 5.62-5.62c0-3.1-2.52-5.62-5.61-5.62h-7.25a1.06 1.06 0 1 0 0 2.13h7.25a3.5 3.5 0 0 1 0 6.98 5.77 5.77 0 0 0-5.82 5.81v.34a6.15 6.15 0 0 0 6.15 6.15h5.5a3.9 3.9 0 0 1 0 7.81h-13.88a3.58 3.58 0 0 0 0 7.16h3.77a3.02 3.02 0 0 1 0 6.04h-10.25a28.57 28.57 0 0 1-3.87-40.29h6.17a1.06 1.06 0 1 0 0-2.13h-4.2a28.47 28.47 0 0 1 32.85-5.18 4.6 4.6 0 0 0 .11 9.2h1.97a2.4 2.4 0 0 1 0 4.78h-4.25a4.53 4.53 0 0 0 0 9.04h17.8a28.56 28.56 0 0 1-.39 7.86l-.1.12-5.49-.87a1.06 1.06 0 1 0-.33 2.1l4.12.65-5.02 5.54-7.9-5.23a.26.26 0 0 1-.13-.2c0-.06 0-.14.08-.22l1.59-1.59a.27.27 0 0 1 .23-.07l2.09.33a1.06 1.06 0 0 0 .33-2.1l-2.08-.33a2.4 2.4 0 0 0-2.07.67l-1.6 1.59a2.39 2.39 0 0 0 .38 3.7l7.65 5.05-3.75 4.12-4.18.2a2.4 2.4 0 0 0-1.58.7l-1.6 1.58a2.4 2.4 0 0 0 .71 3.88l2.33 1.06a28.4 28.4 0 0 1-11.74 2.53Zm35.76-2.02-1.59 1.58a.27.27 0 0 1-.22.08.26.26 0 0 1-.2-.12l-5.22-7.9 5.53-5.02 1.78 11.14a.27.27 0 0 1-.08.23Zm1.07-16.7-3.96 3.51-11.82 10.73c-.2.2-.33.46-.35.74l-.2 4.62a.31.31 0 0 1-.09.18l-1.59 1.59a.26.26 0 0 1-.24.07.26.26 0 0 1-.2-.15l-2.36-5.2a1.1 1.1 0 0 0-.53-.53l-5.2-2.36a.26.26 0 0 1-.15-.2.26.26 0 0 1 .07-.24l1.6-1.6a.27.27 0 0 1 .17-.07l4.62-.21c.28-.02.55-.14.74-.35l14.24-15.78a9.15 9.15 0 0 1 6.58-3.06 1.7 1.7 0 0 1 1.72 1.78 9.15 9.15 0 0 1-3.05 6.53Z" fill="#0600AE"></path></svg><svg viewBox="0 0 17 16" fill="none" id="slider-star"><path d="m16.21 5.63-5.02-.73-2.24-4.55a.64.64 0 0 0-1.14 0l-2.25 4.55-5.02.73a.63.63 0 0 0-.35 1.08l3.64 3.55-.86 5a.63.63 0 0 0 .91.67l4.5-2.37 4.49 2.37a.63.63 0 0 0 .92-.67l-.86-5 3.63-3.55a.63.63 0 0 0-.35-1.08Z" fill="#EEAA2B"></path></svg><svg viewBox="0 0 21 21" fill="none" id="x"><path d="M10.5 0a10.5 10.5 0 1 0 0 21 10.5 10.5 0 0 0 0-21Zm5.05 7.91v.34c0 3.44-2.62 7.4-7.4 7.4a7.38 7.38 0 0 1-4-1.16 5.22 5.22 0 0 0 3.86-1.08 2.6 2.6 0 0 1-2.44-1.8c.4.05.77.05 1.18-.05a2.6 2.6 0 0 1-2.09-2.56v-.03c.35.2.75.32 1.18.33a2.6 2.6 0 0 1-.8-3.48 7.39 7.39 0 0 0 5.36 2.73 2.6 2.6 0 0 1 4.44-2.39 5.14 5.14 0 0 0 1.66-.62c-.2.6-.6 1.1-1.15 1.43.53-.06 1.03-.2 1.5-.4-.35.52-.8.98-1.3 1.34Z" fill="#E6E6E6"></path></svg></svg>