<svg viewBox="0 0 70 70" fill="none" xmlns="http://www.w3.org/2000/svg"><rect width="70" height="70" rx="10" fill="#3793D8"/><path d="M56.95 30.71a.98.98 0 1 0 0-1.95.98.98 0 0 0 0 1.95Z" fill="#fff"/><path d="M57.29 33.13a.98.98 0 0 0-.98.98v3.43c0 .54-.44.97-.97.98h-.98v-4.89a19.82 19.82 0 0 0-3.37-11.03 19.81 19.81 0 0 0-12.38-8.3 20 20 0 0 0-11.66 1.16 19.75 19.75 0 0 0-12.04 18.17v4.89h-1.96v-4.89c0-5.79 2.26-11.23 6.35-15.33 4.1-4.1 9.54-6.35 15.33-6.35 8.91 0 17.05 5.59 20.25 13.9a.97.97 0 0 0 1.26.57c.5-.2.75-.76.56-1.26a23.6 23.6 0 0 0-14.85-14.04 23.62 23.62 0 0 0-26.81 9.3 23.62 23.62 0 0 0-4.04 13.21v13.67c0 5.93 4.82 10.75 10.74 10.75h9.56a3.9 3.9 0 1 0 6.76-3.9h5.9c.54 0 .98-.45.98-.99v-11.71a.98.98 0 0 0-.98-.98h-18.65a.98.98 0 0 0-.98.98v11.71c0 .54.44.98.98.98h6a3.88 3.88 0 0 0-.53 1.95h-9.04a8.8 8.8 0 0 1-8.79-8.79v-6.83h1.96v2.93a2.93 2.93 0 0 0 5.86 0v-7.81a2.93 2.93 0 0 0-3.9-2.77c.2-4.44 2.03-8.59 5.2-11.75a17.66 17.66 0 0 1 12.56-5.21c4.75 0 9.21 1.85 12.57 5.2a17.65 17.65 0 0 1 5.19 11.76 2.93 2.93 0 0 0-3.89 2.77v7.8a2.93 2.93 0 0 0 5.86 0v-2.92h.98a2.9 2.9 0 0 0 2.93-2.93v-3.43a.98.98 0 0 0-.98-.98Zm-31 13.2h16.7v1.95h-16.7v-1.95Zm16.7-3.9v1.95h-16.7v-1.96h16.7Zm-16.7 7.8h16.7v1.96h-16.7v-1.96Zm10.34 5.86a1.96 1.96 0 1 1-3.9 0 1.96 1.96 0 0 1 3.9 0Zm-18.8-21.48c.54 0 .98.44.98.98v7.8a.98.98 0 0 1-1.95 0v-7.8c0-.54.44-.98.98-.98Zm34.58 8.79a.98.98 0 0 1-1.96 0v-7.81a.98.98 0 0 1 1.96 0v7.8Z" fill="#fff"/><path d="m39.5 27.44-1.96 7.81a.98.98 0 0 0 1.9.48l1.95-7.82a.98.98 0 0 0-1.9-.47Zm9.46-.32a.98.98 0 0 0-.8-.42h-3.81a.98.98 0 0 0 0 1.95h2.38l-2.5 6.49a.98.98 0 0 0 1.82.7l3.02-7.81a.98.98 0 0 0-.1-.9Zm-14.76 9.34c.54 0 .97-.43.98-.96v-1.35a.98.98 0 0 0 .02-1.94v-4.06c-.06-.7-.46-1.25-1.03-1.4-.2-.06-.93-.19-1.5.64-.4.55-2.15 4.25-2.68 5.38a.98.98 0 0 0 .88 1.39h2.37l-.01 1.32c0 .54.43.98.97.98Zm-1.78-4.25.83-1.73v1.73h-.83Zm-6.7-1.17a86.75 86.75 0 0 1-2.31 3.19c-.5.63-.74.96-.57 1.49.1.32.33.56.65.66.13.05.25.09 1.76.09.58 0 1.38 0 2.46-.02a.98.98 0 0 0-.01-1.96l-2.06.02 1.69-2.35c.5-.72.82-1.39.96-2l.06-.52a2.94 2.94 0 0 0-5.8-.57.98.98 0 1 0 1.9.37.98.98 0 0 1 1.95.14l-.02.18c-.1.36-.32.8-.66 1.28Z" fill="#fff"/></svg>