<svg viewBox="0 0 70 70" fill="none" xmlns="http://www.w3.org/2000/svg"><rect width="70" height="70" rx="10" fill="#EB5757"/><path d="m29.88 43.7 6.9-20.72a1.46 1.46 0 0 0-2.78-.93l-6.9 20.72a1.46 1.46 0 0 0 2.78.92Zm10.35-6.43a4.4 4.4 0 1 0-.01-8.8 4.4 4.4 0 0 0 0 8.8Zm0-5.86a1.47 1.47 0 1 1 0 2.93 1.47 1.47 0 0 1 0-2.93Zm-16.57-2.93a4.4 4.4 0 1 0 0 8.8 4.4 4.4 0 0 0 0-8.8Zm0 5.86a1.47 1.47 0 1 1 0-2.94 1.47 1.47 0 0 1 0 2.94Z" fill="#fff"/><path d="m59.7 28.16-5.1-6.8.2-1.4c.06-.46-.09-.92-.42-1.24l-3.1-3.11 3.1-3.1a1.46 1.46 0 1 0-2.07-2.08l-3.1 3.1-3.11-3.1a1.47 1.47 0 0 0-1.25-.42l-14.5 2.08c-.31.04-.6.19-.83.41l-17.95 17.95a5.38 5.38 0 0 0 0 7.6l15.2 15.2c.3.3.64.57 1 .78v.6a5.38 5.38 0 0 0 5.37 5.37h21.49a5.38 5.38 0 0 0 5.37-5.37v-25.59c0-.31-.1-.62-.3-.88Zm-46.06 7.82a2.44 2.44 0 0 1 0-3.45l17.61-17.61 13.3-1.9 2.58 2.59-2.07 2.07-1.03-1.04a1.47 1.47 0 0 0-2.08 2.08l4.15 4.14a1.46 1.46 0 0 0 2.07 0c.57-.57.57-1.5 0-2.07l-1.04-1.04 2.07-2.07 2.6 2.59-1.9 13.3-17.61 17.6a2.43 2.43 0 0 1-3.46 0l-15.19-15.2Zm43.43 18.65c0 1.35-1.1 2.44-2.44 2.44h-21.49c-1.28 0-2.34-1-2.43-2.26a5.35 5.35 0 0 0 3.65-1.57l17.95-17.95c.23-.23.37-.52.42-.83l1.28-9 3.06 4.07v25.1Z" fill="#fff"/></svg>