<svg viewBox="0 0 70 70" fill="none" xmlns="http://www.w3.org/2000/svg"><rect width="70" height="70" rx="10" fill="#EEAA2B"/><path d="m59.25 22.6-16.65-6.24a4.53 4.53 0 0 0-5.4-6.17.74.74 0 0 0 .41 1.42 3.05 3.05 0 1 1-1.81 1.45.74.74 0 0 0-1.3-.72 4.53 4.53 0 0 0 1.44 5.95v3.87a.74.74 0 0 0 1.48 0v-3.22c.7.17 1.49.17 2.24-.04v22.02h-2.24v-15.8a.74.74 0 1 0-1.48 0v15.8c-1.34 0-2.54.23-3.8.95a2 2 0 0 0-1.8-1.1h-3.67a2 2 0 0 0-2 2v1.18h-12.44c-1.23 0-2.23 1-2.23 2.23v8.99c0 1.23 1 2.23 2.23 2.23h12.44v.6c0 1.1.9 2 2 2h3.68a2 2 0 0 0 1.63-.84c1.74.88 1.74.69 14.21.69 2.2 0 3.27-2.7 1.76-4.23.94-.96.94-2.54 0-3.5.94-.96.94-2.53 0-3.49a2.5 2.5 0 0 0-1.49-4.21c.34-1.49-.95-3.5-3.05-3.5h-2.27v-9.47l6.05-2.27a.74.74 0 1 0-.52-1.38l-5.53 2.07v-11.7c.23-.16.43-.34.62-.55l16 6.01-8.32 3.13a.74.74 0 1 0 .53 1.38l9.28-3.48a1.1 1.1 0 0 0 0-2.05Zm-34.58 33.32h-12.44a.75.75 0 0 1-.75-.75v-9c0-.4.34-.74.75-.74h12.44v10.49Zm6.07 2.42c-.2.24-.07.18-4.07.18a.52.52 0 0 1-.52-.52v-15.24c0-.29.24-.52.52-.52h3.68c.26 0 .52.21.52.55 0 16.45.05 15.34-.13 15.55Zm1.61-.67v-3.72c1.29-.2 2.5-.66 3.59-1.32 0 5.29-.03 5.2.09 5.74-1.26 0-2.34.1-3.68-.7Zm6 .7h-.76c-.23-.41-.17-.46-.17-6.82.26-.24.51-.48.75-.74.09.5.33.96.67 1.31a2.51 2.51 0 0 0 0 3.5 2.51 2.51 0 0 0-.5 2.75Zm7.84 0h-5.6a1 1 0 0 1-.93-1.32 1 1 0 0 1 .94-.7h5.6c.53 0 .97.45.97.99a.98.98 0 0 1-.98 1.03Zm-.13-3.5h-5.46a1 1 0 0 1-.94-1.32 1 1 0 0 1 .94-.69h5.6c1.23 0 1.41 2.01-.14 2.01Zm-6.44-4.52c0-.53.43-.98.98-.98h5.6c.5 0 .97.39.97 1.03 0 .54-.44.98-.98.98h-5.59a.98.98 0 0 1-.98-1.03Zm6.57-4.47c.5 0 .98.39.98 1.03 0 .54-.44.98-.98.98-6.1 0-5.77.05-6.09-.13a.98.98 0 0 1-.44-.55v-.64c.25-.79 1.05-.69 1.48-.69h5.05Zm-2.78-3.49c1.54 0 2.06 2.01 1.23 2.01h-.77.03c-3.63 0-3.79-.07-4.47.3a2.5 2.5 0 0 0-1.05 3.27 8.65 8.65 0 0 1-6.03 4.48v-8.96a5.73 5.73 0 0 1 3.38-1.1h7.68Z" fill="#fff"/></svg>