<svg viewBox="0 0 60 60" fill="none" xmlns="http://www.w3.org/2000/svg"><rect width="60" height="60" rx="8" fill="#0600AE"/><path d="M42.5 18h-2.5v-1a2 2 0 0 0-4 0v1h-4v-1a2 2 0 0 0-4 0v1h-4v-1a2 2 0 0 0-4 0v1h-2.5a2.5 2.5 0 0 0-2.5 2.5v20a2.5 2.5 0 0 0 2.5 2.5h14a.5.5 0 0 0 0-1h-14a1.5 1.5 0 0 1-1.5-1.5v-15.5h28v8.5a.5.5 0 0 0 1 0v-13a2.5 2.5 0 0 0-2.5-2.5Zm-5.5-1a1 1 0 0 1 2 0v3a1 1 0 0 1-2 0v-3Zm-8 0a1 1 0 0 1 2 0v3a1 1 0 0 1-2 0v-3Zm-8 0a1 1 0 0 1 2 0v3a1 1 0 0 1-2 0v-3Zm23 7h-28v-3.5a1.5 1.5 0 0 1 1.5-1.5h2.5v1a2 2 0 0 0 4 0v-1h4v1a2 2 0 0 0 4 0v-1h4v1a2 2 0 0 0 4 0v-1h2.5a1.5 1.5 0 0 1 1.5 1.5v3.5Z" fill="#fff"/><path d="M29 28.5a1 1 0 0 0-1-1h-2a1 1 0 0 0-1 1v1.5a1 1 0 0 0 1 1h2a1 1 0 0 0 1-1v-1.5Zm-3 1.5v-1.5h2v1.5h-2Zm-3-1.5a1 1 0 0 0-1-1h-2a1 1 0 0 0-1 1v1.5a1 1 0 0 0 1 1h2a1 1 0 0 0 1-1v-1.5Zm-3 1.5v-1.5h2v1.5h-2Zm20 1a1 1 0 0 0 1-1v-1.5a1 1 0 0 0-1-1h-2a1 1 0 0 0-1 1v1.5a1 1 0 0 0 1 1h2Zm-2-2.5h2v1.5h-2v-1.5Zm-9 4.5a1 1 0 0 0-1-1h-2a1 1 0 0 0-1 1v1.5a1 1 0 0 0 1 1h2a1 1 0 0 0 1-1v-1.5Zm-3 1.5v-1.5h2v1.5h-2Zm-3-1.5a1 1 0 0 0-1-1h-2a1 1 0 0 0-1 1v1.5a1 1 0 0 0 1 1h2a1 1 0 0 0 1-1v-1.5Zm-3 1.5v-1.5h2v1.5h-2Zm8 2h-2a1 1 0 0 0-1 1v1.5a1 1 0 0 0 1 1h2a1 1 0 0 0 1-1v-1.5a1 1 0 0 0-1-1Zm-2 2.5v-1.5h2v1.5h-2Zm6-8h2a1 1 0 0 0 1-1v-1.5a1 1 0 0 0-1-1h-2a1 1 0 0 0-1 1v1.5a1 1 0 0 0 1 1Zm0-2.5h2v1.5h-2v-1.5Zm-1 6a1 1 0 0 0 1 1 .5.5 0 0 0 0-1v-1.5h2a.5.5 0 0 0 0-1h-2a1 1 0 0 0-1 1v1.5Zm-9 2h-2a1 1 0 0 0-1 1v1.5a1 1 0 0 0 1 1h2a1 1 0 0 0 1-1v-1.5a1 1 0 0 0-1-1Zm-2 2.5v-1.5h2v1.5h-2Z" fill="#fff"/><path d="M38.5 32a6.5 6.5 0 1 0 0 13 6.5 6.5 0 0 0 0-13Zm0 12a5.5 5.5 0 1 1 0-11 5.5 5.5 0 0 1 0 11Z" fill="#fff"/><path d="m41.39 36.4-3.89 3.9-1.77-1.77a.5.5 0 0 0-.7.7l2.12 2.12a.5.5 0 0 0 .7 0l4.25-4.24a.5.5 0 0 0-.71-.7Z" fill="#fff"/></svg>