<svg viewBox="0 0 60 60" fill="none" xmlns="http://www.w3.org/2000/svg"><rect width="60" height="60" rx="8" fill="#3793D8"/><path d="M23.67 42.15v-1a.9.9 0 0 0-.9-.91h-2.95c-.5 0-.9.4-.9.9v1.01c0 .5.4.9.9.9h2.95c.5 0 .9-.4.9-.9Zm-3.88 0v-1c0-.02.01-.03.03-.03h2.95c.01 0 .02.01.02.03v1c0 .02 0 .03-.02.03h-2.95a.03.03 0 0 1-.03-.03Zm16.06-6.77a1.41 1.41 0 1 0 0 2.83 1.41 1.41 0 0 0 0-2.83Zm0 1.95a.53.53 0 1 1 0-1.07.53.53 0 0 1 0 1.07Z" fill="#fff"/><path d="M40.7 31.5h-.52v-6.35c0-.78-.64-1.41-1.41-1.41h-.54v-5.87a.93.93 0 0 0-.92-.93h-8.78v-.56c0-.76-.62-1.38-1.38-1.38h-7.83c-.76 0-1.38.62-1.38 1.38v1.58a.44.44 0 1 0 .88 0v-1.58c0-.28.22-.5.5-.5h.56v11.74h-1.06v-7.9a.44.44 0 0 0-.88 0v4.06a2.36 2.36 0 0 0-1.94 2.32v16.52a2.38 2.38 0 0 0 2.38 2.38h2.03a.44.44 0 0 0 0-.88h-2.03a1.5 1.5 0 0 1-1.5-1.5v-14.68c.4.33.91.54 1.46.56h20.43c.29 0 .53.24.53.53v4.41h-5.39c-.78 0-1.4.64-1.4 1.41v3.89c0 .77.62 1.4 1.4 1.4h5.39v3.45c0 .3-.24.53-.53.53h-16.6a.44.44 0 0 0 0 .88h16.6c.77 0 1.4-.63 1.4-1.41v-3.44h.54a2.38 2.38 0 0 0 2.38-2.38v-3.89a2.38 2.38 0 0 0-2.38-2.38Zm-23.82-5.34a1.5 1.5 0 0 1 1.06-1.48v2.86c-.6-.2-1.04-.74-1.06-1.38Zm11.7-8.34h8.73c.02 0 .05.02.05.05v9.75h-1.07v-7.05c0-.32-.22-.6-.53-.67a.69.69 0 0 1-.49-.48.68.68 0 0 0-.66-.54h-3.33c-.33 0-.6.22-.67.54a.69.69 0 0 1-.49.48.68.68 0 0 0-.53.67v7.05h-1.06v-9.75c0-.03.02-.05.04-.05Zm6.83 9.8h-4.94v-6.9c.44-.15.8-.52.95-.96h3.04c.15.44.52.8.95.96v6.9Zm-7.76-11.24v11.24h-4.95v-11.74h4.45c.28 0 .5.22.5.5Zm-6.89 11.24v-11.74h1.06v11.74h-1.06Zm18 0h-.53v-3h.54c.29 0 .53.23.53.53v2.57a1.4 1.4 0 0 0-.53-.1Zm3.45 10.15c0 .82-.67 1.5-1.5 1.5h-6.8a.53.53 0 0 1-.53-.53v-3.89c0-.29.24-.53.53-.53h6.31a.44.44 0 1 0 0-.88h-.04v-1.06h.53c.83 0 1.5.67 1.5 1.5v3.89Z" fill="#fff"/><path d="M32.94 23.74a1.41 1.41 0 1 0 0 2.82 1.41 1.41 0 0 0 0-2.82Zm0 1.94a.53.53 0 1 1 0-1.07.53.53 0 0 1 0 1.07Zm0-3.01c.24 0 .44-.2.44-.44v-.97a.44.44 0 0 0-.88 0v.97c0 .25.2.44.44.44Zm-8.27-1.94h1c.5 0 .92-.4.92-.9v-1.98a.9.9 0 0 0-.91-.9h-1a.9.9 0 0 0-.91.9v1.97c0 .5.4.91.9.91Zm-.03-2.88c0-.02.02-.03.03-.03h1c.02 0 .04.01.04.03v1.97c0 .02-.02.03-.03.03h-1a.03.03 0 0 1-.04-.03v-1.97Z" fill="#fff"/></svg>