<svg viewBox="0 0 202 63" fill="none" xmlns="http://www.w3.org/2000/svg"><circle cx="4.476" cy="58.188" r="4.476" transform="rotate(-90 4.476 58.188)" fill="#C4C4C4" fill-opacity=".3"/><circle cx="4.476" cy="22.38" r="4.476" transform="rotate(-90 4.476 22.38)" fill="#C4C4C4" fill-opacity=".3"/><circle cx="4.476" cy="40.284" r="4.476" transform="rotate(-90 4.476 40.284)" fill="#C4C4C4" fill-opacity=".3"/><circle cx="4.476" cy="4.476" r="4.476" transform="rotate(-90 4.476 4.476)" fill="#C4C4C4" fill-opacity=".3"/><circle cx="58.188" cy="58.188" r="4.476" transform="rotate(-90 58.188 58.188)" fill="#C4C4C4" fill-opacity=".3"/><circle cx="58.188" cy="22.38" r="4.476" transform="rotate(-90 58.188 22.38)" fill="#C4C4C4" fill-opacity=".3"/><circle cx="58.188" cy="40.284" r="4.476" transform="rotate(-90 58.188 40.284)" fill="#C4C4C4" fill-opacity=".3"/><circle cx="58.188" cy="4.476" r="4.476" transform="rotate(-90 58.188 4.476)" fill="#C4C4C4" fill-opacity=".3"/><circle cx="22.38" cy="58.188" r="4.476" transform="rotate(-90 22.38 58.188)" fill="#C4C4C4" fill-opacity=".3"/><circle cx="22.38" cy="22.38" r="4.476" transform="rotate(-90 22.38 22.38)" fill="#C4C4C4" fill-opacity=".3"/><circle cx="22.38" cy="40.284" r="4.476" transform="rotate(-90 22.38 40.284)" fill="#C4C4C4" fill-opacity=".3"/><circle cx="22.38" cy="4.476" r="4.476" transform="rotate(-90 22.38 4.476)" fill="#C4C4C4" fill-opacity=".3"/><circle cx="76.092" cy="58.188" r="4.476" transform="rotate(-90 76.092 58.188)" fill="#C4C4C4" fill-opacity=".3"/><circle cx="76.092" cy="22.38" r="4.476" transform="rotate(-90 76.092 22.38)" fill="#C4C4C4" fill-opacity=".3"/><circle cx="76.092" cy="40.284" r="4.476" transform="rotate(-90 76.092 40.284)" fill="#C4C4C4" fill-opacity=".3"/><circle cx="76.092" cy="4.476" r="4.476" transform="rotate(-90 76.092 4.476)" fill="#C4C4C4" fill-opacity=".3"/><circle cx="40.284" cy="58.188" r="4.476" transform="rotate(-90 40.284 58.188)" fill="#C4C4C4" fill-opacity=".3"/><circle cx="40.284" cy="22.38" r="4.476" transform="rotate(-90 40.284 22.38)" fill="#C4C4C4" fill-opacity=".3"/><circle cx="40.284" cy="40.284" r="4.476" transform="rotate(-90 40.284 40.284)" fill="#C4C4C4" fill-opacity=".3"/><circle cx="40.284" cy="4.476" r="4.476" transform="rotate(-90 40.284 4.476)" fill="#C4C4C4" fill-opacity=".3"/><circle cx="93.996" cy="58.188" r="4.476" transform="rotate(-90 93.996 58.188)" fill="#C4C4C4" fill-opacity=".3"/><circle cx="93.996" cy="22.38" r="4.476" transform="rotate(-90 93.996 22.38)" fill="#C4C4C4" fill-opacity=".3"/><circle cx="93.996" cy="40.284" r="4.476" transform="rotate(-90 93.996 40.284)" fill="#C4C4C4" fill-opacity=".3"/><circle cx="93.996" cy="4.476" r="4.476" transform="rotate(-90 93.996 4.476)" fill="#C4C4C4" fill-opacity=".3"/><circle cx="111.004" cy="58.188" r="4.476" transform="rotate(-90 111.004 58.188)" fill="#C4C4C4" fill-opacity=".3"/><circle cx="111.004" cy="22.38" r="4.476" transform="rotate(-90 111.004 22.38)" fill="#C4C4C4" fill-opacity=".3"/><circle cx="111.004" cy="40.284" r="4.476" transform="rotate(-90 111.004 40.284)" fill="#C4C4C4" fill-opacity=".3"/><circle cx="111.004" cy="4.476" r="4.476" transform="rotate(-90 111.004 4.476)" fill="#C4C4C4" fill-opacity=".3"/><circle cx="164.716" cy="58.188" r="4.476" transform="rotate(-90 164.716 58.188)" fill="#C4C4C4" fill-opacity=".3"/><circle cx="164.716" cy="22.38" r="4.476" transform="rotate(-90 164.716 22.38)" fill="#C4C4C4" fill-opacity=".3"/><circle cx="164.716" cy="40.284" r="4.476" transform="rotate(-90 164.716 40.284)" fill="#C4C4C4" fill-opacity=".3"/><circle cx="164.716" cy="4.476" r="4.476" transform="rotate(-90 164.716 4.476)" fill="#C4C4C4" fill-opacity=".3"/><circle cx="128.909" cy="58.188" r="4.476" transform="rotate(-90 128.909 58.188)" fill="#C4C4C4" fill-opacity=".3"/><circle cx="128.909" cy="22.38" r="4.476" transform="rotate(-90 128.909 22.38)" fill="#C4C4C4" fill-opacity=".3"/><circle cx="128.909" cy="40.284" r="4.476" transform="rotate(-90 128.909 40.284)" fill="#C4C4C4" fill-opacity=".3"/><circle cx="128.909" cy="4.476" r="4.476" transform="rotate(-90 128.909 4.476)" fill="#C4C4C4" fill-opacity=".3"/><circle cx="182.62" cy="58.188" r="4.476" transform="rotate(-90 182.62 58.188)" fill="#C4C4C4" fill-opacity=".3"/><circle cx="182.62" cy="22.38" r="4.476" transform="rotate(-90 182.62 22.38)" fill="#C4C4C4" fill-opacity=".3"/><circle cx="182.62" cy="40.284" r="4.476" transform="rotate(-90 182.62 40.284)" fill="#C4C4C4" fill-opacity=".3"/><circle cx="182.62" cy="4.476" r="4.476" transform="rotate(-90 182.62 4.476)" fill="#C4C4C4" fill-opacity=".3"/><circle cx="146.813" cy="58.188" r="4.476" transform="rotate(-90 146.813 58.188)" fill="#C4C4C4" fill-opacity=".3"/><circle cx="146.813" cy="22.38" r="4.476" transform="rotate(-90 146.813 22.38)" fill="#C4C4C4" fill-opacity=".3"/><circle cx="146.813" cy="40.284" r="4.476" transform="rotate(-90 146.813 40.284)" fill="#C4C4C4" fill-opacity=".3"/><circle cx="146.813" cy="4.476" r="4.476" transform="rotate(-90 146.813 4.476)" fill="#C4C4C4" fill-opacity=".3"/><circle cx="200.524" cy="58.188" r="4.476" transform="rotate(-90 200.524 58.188)" fill="#C4C4C4" fill-opacity=".3"/><circle cx="200.524" cy="22.38" r="4.476" transform="rotate(-90 200.524 22.38)" fill="#C4C4C4" fill-opacity=".3"/><circle cx="200.524" cy="40.284" r="4.476" transform="rotate(-90 200.524 40.284)" fill="#C4C4C4" fill-opacity=".3"/><circle cx="200.524" cy="4.476" r="4.476" transform="rotate(-90 200.524 4.476)" fill="#C4C4C4" fill-opacity=".3"/></svg>