<svg viewBox="0 0 148 171" fill="none" xmlns="http://www.w3.org/2000/svg"><path opacity=".2" fill-rule="evenodd" clip-rule="evenodd" d="M122.3 10.87a5.02 5.02 0 1 0 0-10.05 5.02 5.02 0 0 0 0 10.05Zm-40.18 0a5.02 5.02 0 1 0 0-10.05 5.02 5.02 0 0 0 0 10.05Zm25.12-5.03a5.02 5.02 0 1 1-10.05 0 5.02 5.02 0 0 1 10.05 0Zm35.16 5.03a5.02 5.02 0 1 0 0-10.05 5.02 5.02 0 0 0 0 10.05Zm-55.26 55.25a4.82 4.82 0 0 1 0 .17v.23a5.02 5.02 0 1 1-10.04-.4 5.02 5.02 0 1 1 10.04 0Zm40.19.2v-.2a5.02 5.02 0 1 0-10.05.4 5.02 5.02 0 1 0 10.05-.2Zm-20.1-.2a6.35 6.35 0 0 1 0 .31v.08a5.02 5.02 0 1 1-10.04-.39 5.02 5.02 0 0 1 10.05 0Zm40.2.2v-.2a5.02 5.02 0 1 0-10.05.2v.19a5.02 5.02 0 1 0 10.04-.2Zm-60.29-40.38a5.02 5.02 0 1 1-10.04 0 5.02 5.02 0 0 1 10.04 0Zm35.17 5.02a5.02 5.02 0 1 0 0-10.05 5.02 5.02 0 0 0 0 10.05Zm-15.07-5.02a5.02 5.02 0 1 1-10.05 0 5.02 5.02 0 0 1 10.05 0Zm35.16 5.02a5.02 5.02 0 1 0 0-10.05 5.02 5.02 0 0 0 0 10.05Zm-55.26 55.26a5.06 5.06 0 0 1 0 .39 5.02 5.02 0 1 1-10.04-.4 5.02 5.02 0 1 1 10.04 0Zm40.19.2v-.2a5.02 5.02 0 1 0-10.04.2v.19a5.02 5.02 0 1 0 10.04-.2Zm-20.1-.2a6.32 6.32 0 0 1 0 .39 5.02 5.02 0 1 1-10.04-.4 5.02 5.02 0 0 1 10.05 0Zm40.2.2v-.2a5.02 5.02 0 1 0-10.05.39 5.02 5.02 0 1 0 10.04-.2Zm-60.29-40.39a5.09 5.09 0 0 1 0 .39 5.02 5.02 0 1 1-10.04-.39 5.02 5.02 0 1 1 10.04 0Zm40.19.2v-.2a5.02 5.02 0 1 0-10.05.39 5.02 5.02 0 1 0 10.05-.2Zm-20.1-.2a6.33 6.33 0 0 1 0 .39 5.02 5.02 0 1 1-10.04-.39 5.02 5.02 0 0 1 10.05 0Zm40.2.2v-.2a5.02 5.02 0 1 0-10.05.39 5.02 5.02 0 1 0 10.04-.12v-.07Zm-60.29 60.08a5.07 5.07 0 0 1 0 .4 5.02 5.02 0 1 1-10.04-.4 5.02 5.02 0 1 1 10.04 0Zm40.19.09v-.09a5.02 5.02 0 1 0-10.05.4 5.02 5.02 0 1 0 10.05-.2v-.11Zm-20.1-.09v.4a5.02 5.02 0 1 1-10.04-.4 5.02 5.02 0 1 1 10.05 0Zm40.2.2v-.2a5.02 5.02 0 1 0-10.05.4 5.02 5.02 0 1 0 10.04-.2Zm-60.29 18.89c0 .24-.01.47-.04.7a5.02 5.02 0 1 1-9.95 0 5.02 5.02 0 1 1 10-.7Zm40.14.7a5.02 5.02 0 1 0-9.95 0 5.02 5.02 0 1 0 9.95 0Zm-20.04-.7c0 .24-.02.47-.05.7a5.02 5.02 0 1 1-9.95 0 5.02 5.02 0 1 1 10-.7Zm40.14.7a5.02 5.02 0 1 0-9.95 0 5.02 5.02 0 1 0 9.95 0Zm-60.24 20.79a5.02 5.02 0 1 1-10.04 0 5.02 5.02 0 0 1 10.04 0Zm35.17 5.02a5.02 5.02 0 1 0 0-10.04 5.02 5.02 0 0 0 0 10.04Zm-15.07-5.02a5.02 5.02 0 1 1-10.05 0 5.02 5.02 0 0 1 10.05 0Zm35.16 5.02a5.02 5.02 0 1 0 0-10.05 5.02 5.02 0 0 0 0 10.05Zm-55.26 14.07a5.02 5.02 0 1 1-10.04 0 5.02 5.02 0 0 1 10.04 0Zm35.17 5.02a5.02 5.02 0 1 0 0-10.05 5.02 5.02 0 0 0 0 10.05Zm-15.07-5.02a5.02 5.02 0 1 1-10.05 0 5.02 5.02 0 0 1 10.05 0Zm35.16 5.02a5.02 5.02 0 1 0 0-10.05 5.02 5.02 0 0 0 0 10.05Zm-132.35-165.16a5.02 5.02 0 1 1-10.05 0 5.02 5.02 0 0 1 10.05 0Zm35.16 5.03a5.02 5.02 0 1 0 0-10.05 5.02 5.02 0 0 0 0 10.05Zm-15.07-5.03a5.02 5.02 0 1 1-10.05 0 5.02 5.02 0 0 1 10.05 0Zm35.16 5.03a5.02 5.02 0 1 0 0-10.05 5.02 5.02 0 0 0 0 10.05Zm-55.25 55.25a5.08 5.08 0 0 1 0 .4 5.02 5.02 0 1 1-10.05-.4 5.02 5.02 0 0 1 10.05 0Zm40.18.2v-.2a5.02 5.02 0 1 0-10.04.4 5.02 5.02 0 1 0 10.04-.2Zm-20.09-.2a5.08 5.08 0 0 1 0 .4 5.02 5.02 0 1 1-10.05-.4 5.02 5.02 0 1 1 10.05 0Zm40.18.2v-.2a5.02 5.02 0 1 0-10.04.4 5.02 5.02 0 1 0 10.04-.2Zm-60.27-40.38a5.02 5.02 0 1 1-10.05 0 5.02 5.02 0 0 1 10.05 0Zm35.16 5.02a5.02 5.02 0 1 0 0-10.05 5.02 5.02 0 0 0 0 10.05Zm-15.07-5.02a5.02 5.02 0 1 1-10.05 0 5.02 5.02 0 0 1 10.05 0Zm35.16 5.02a5.02 5.02 0 1 0 0-10.05 5.02 5.02 0 0 0 0 10.05Zm-55.25 55.26a5.06 5.06 0 0 1 0 .39 5.02 5.02 0 1 1-10.05-.4 5.02 5.02 0 1 1 10.05 0Zm40.18.2a5 5 0 0 0 0-.2 5.02 5.02 0 1 0-10.04.39 5.02 5.02 0 1 0 10.04-.2Zm-20.09-.2a5.06 5.06 0 0 1 0 .39 5.02 5.02 0 1 1-10.05-.4 5.02 5.02 0 1 1 10.05 0Zm40.18.2v-.2a5.02 5.02 0 1 0-10.04.39 5.02 5.02 0 1 0 10.04-.2Zm-60.27-40.39a5.09 5.09 0 0 1 0 .39 5.02 5.02 0 1 1-10.05-.39 5.02 5.02 0 0 1 10.05 0Zm40.18.2v-.2a5.02 5.02 0 1 0-10.04.39 5.02 5.02 0 1 0 10.04-.2Zm-20.09-.2a5.07 5.07 0 0 1 0 .39 5.02 5.02 0 1 1-10.05-.39 5.02 5.02 0 1 1 10.05 0Zm40.18.2v-.2a5.02 5.02 0 1 0-10.04.39 5.02 5.02 0 1 0 10.04-.2Zm-60.27 60.08a5.07 5.07 0 0 1 0 .4 5.02 5.02 0 1 1-10.05-.4 5.02 5.02 0 1 1 10.05 0Zm40.18.2v-.2a5.02 5.02 0 1 0-10.04.4 5.02 5.02 0 1 0 10.04-.2Zm-20.1-.05v.05l.01.2a5.02 5.02 0 1 1-10.05-.4 5.02 5.02 0 1 1 10.05.11v.04Zm40.2-.02v-.13a5.02 5.02 0 1 0-10.05.4 5.02 5.02 0 1 0 10.05-.27Zm-60.28 18.96c0 .24-.02.47-.05.7a5.02 5.02 0 1 1-9.95 0 5.02 5.02 0 1 1 10-.7Zm40.14.7a5.02 5.02 0 1 0-9.95 0 5.02 5.02 0 1 0 9.95 0Zm-20.05-.7c0 .24-.02.47-.05.7a5.02 5.02 0 1 1-9.95 0 5.02 5.02 0 1 1 10-.7Zm40.14.7a5.02 5.02 0 1 0-9.95 0 5.02 5.02 0 1 0 9.95 0Zm-60.23 20.79a5.02 5.02 0 1 1-10.05 0 5.02 5.02 0 0 1 10.05 0Zm35.16 5.02a5.02 5.02 0 1 0 0-10.05 5.02 5.02 0 0 0 0 10.05Zm-15.07-5.02a5.02 5.02 0 1 1-10.05 0 5.02 5.02 0 0 1 10.05 0Zm35.16 5.02a5.02 5.02 0 1 0 0-10.05 5.02 5.02 0 0 0 0 10.05Zm-55.25 14.07a5.02 5.02 0 1 1-10.05 0 5.02 5.02 0 0 1 10.05 0Zm35.16 5.02a5.02 5.02 0 1 0 0-10.05 5.02 5.02 0 0 0 0 10.05Zm-15.07-5.02a5.02 5.02 0 1 1-10.05 0 5.02 5.02 0 0 1 10.05 0Zm35.16 5.02a5.02 5.02 0 1 0 0-10.05 5.02 5.02 0 0 0 0 10.05Z" fill="#666"/></svg>