<svg viewBox="0 0 38 30" fill="none" xmlns="http://www.w3.org/2000/svg"><path opacity=".5" d="M34.54 25.7c-2.63 2.85-6.6 4.3-11.83 4.3h-1.87v-5.29l1.5-.3c2.58-.51 4.36-1.52 5.32-3 .5-.8.78-1.72.82-2.66h-5.77a1.87 1.87 0 0 1-1.87-1.88v-13.12a3.75 3.75 0 0 1 3.75-3.75h11.25a1.88 1.88 0 0 1 1.87 1.88v14.84c.02.21.37 5.14-3.17 8.98Zm-30.58-25.7h11.25a1.88 1.88 0 0 1 1.88 1.88v14.84c.01.21.37 5.14-3.17 8.98-2.63 2.85-6.61 4.3-11.83 4.3h-1.88v-5.29l1.51-.3c2.57-.51 4.36-1.52 5.31-3 .5-.8.79-1.72.83-2.66h-5.77a1.87 1.87 0 0 1-1.88-1.88v-13.12a3.75 3.75 0 0 1 3.75-3.75Z" fill="#29DBCC"/></svg>