<svg width="101" height="283" viewBox="0 0 101 283" fill="none" xmlns="http://www.w3.org/2000/svg">
<g opacity="0.8" clip-path="url(#clip0_77_2)">
<path opacity="0.5" d="M-41.0237 258.648C24.1329 258.648 76.9527 206.199 76.9527 141.5C76.9527 76.8007 24.1329 24.3515 -41.0237 24.3515C-106.18 24.3515 -159 76.8007 -159 141.5C-159 206.199 -106.18 258.648 -41.0237 258.648Z" fill="#EEAA2B"/>
<path d="M-41.5683 0.351547V3.73235C-43.2749 3.73235 -44.9644 3.76616 -46.6539 3.81687L-46.7733 0.436067C-45.0326 0.385355 -43.309 0.351547 -41.5683 0.351547ZM-36.3632 0.436067C-34.6225 0.503683 -32.8988 0.588203 -31.1751 0.706531L-31.4141 4.07043C-33.1036 3.9521 -34.7931 3.86758 -36.4826 3.79996L-36.3632 0.436067ZM-51.9614 0.723435L-51.7054 4.08733C-53.3949 4.20566 -55.0844 4.3578 -56.7569 4.54374L-57.1494 1.19675C-55.4257 1.0108 -53.7021 0.858667 -51.9614 0.723435ZM-25.9871 1.17984C-24.2635 1.36579 -22.5398 1.58554 -20.8162 1.8222L-21.3111 5.16919C-22.9835 4.93253 -24.656 4.71278 -26.3455 4.54374L-25.9871 1.17984ZM-62.3033 1.8391L-61.8084 5.18609C-63.4979 5.42275 -65.1533 5.71012 -66.8257 5.99749L-67.4401 2.6843C-65.7335 2.38003 -64.0269 2.09266 -62.3033 1.8391ZM-15.6793 2.6674C-13.9728 2.97167 -12.2662 3.30975 -10.5766 3.68164L-11.3105 6.97792C-12.9659 6.62293 -14.6213 6.28485 -16.2937 5.98058L-15.6793 2.6674ZM-72.5428 3.71544L-71.7919 7.01173C-73.4473 7.38361 -75.1027 7.77241 -76.724 8.19501L-77.5772 4.91563C-75.9219 4.49303 -74.2323 4.08733 -72.5428 3.71544ZM-5.52515 4.88182C-3.83562 5.32133 -2.18024 5.77773 -0.507789 6.26795L-1.48054 9.51352C-3.1018 9.0233 -4.72305 8.5838 -6.37844 8.1612L-5.52515 4.88182ZM-82.6117 6.31866L-81.6219 9.56423C-83.2431 10.0544 -84.8644 10.5616 -86.4515 11.1025L-87.5608 7.90764C-85.9225 7.3329 -84.2671 6.80888 -82.6117 6.31866ZM4.44132 7.85693C6.0967 8.41476 7.73504 8.98949 9.35629 9.61494L8.14461 12.776C6.55748 12.1674 4.97036 11.6096 3.3491 11.0687L4.44132 7.85693ZM-92.4587 9.64875L-91.2299 12.8098C-92.8171 13.4183 -94.3701 14.0438 -95.9231 14.6861L-97.2542 11.5758C-95.6841 10.8996 -94.0799 10.2573 -92.4587 9.64875ZM14.203 11.542C15.8072 12.2182 17.3943 12.9281 18.9644 13.655L17.5138 16.7146C15.9778 16.0047 14.4249 15.3116 12.8719 14.6523L14.203 11.542ZM-102.016 13.6719L-100.565 16.7315C-102.101 17.4415 -103.62 18.1853 -105.122 18.946L-106.692 15.937C-105.122 15.1595 -103.569 14.3988 -102.016 13.6719ZM23.6404 15.9201C25.1934 16.7146 26.7123 17.526 28.2311 18.3712L26.5587 21.3125C25.0739 20.4842 23.5892 19.6897 22.0704 18.929L23.6404 15.9201ZM-111.231 18.3881L-109.559 21.3294C-111.026 22.1577 -112.494 23.0029 -113.928 23.865L-115.702 20.9744C-114.252 20.0954 -112.75 19.2164 -111.231 18.3881ZM32.7195 20.9913C34.2042 21.8873 35.6719 22.817 37.1225 23.7636L35.2282 26.5866C33.8117 25.6568 32.3781 24.7609 30.9446 23.8819L32.7195 20.9913ZM-120.105 23.7467L-118.211 26.5697C-119.628 27.4994 -121.01 28.446 -122.392 29.4264L-124.372 26.6711C-122.972 25.6737 -121.556 24.6933 -120.105 23.7467ZM41.406 26.688C42.8225 27.6853 44.2048 28.7165 45.5871 29.7645L43.5051 32.4353C42.1569 31.4042 40.8087 30.4069 39.4263 29.4264L41.406 26.688ZM-128.553 29.7476L-126.471 32.4184C-127.819 33.4496 -129.133 34.4976 -130.43 35.5626L-132.615 32.9594C-131.284 31.8775 -129.935 30.7957 -128.553 29.7476ZM49.6488 32.9932C50.9799 34.0919 52.294 35.2245 53.591 36.374L51.3042 38.8927C50.0413 37.777 48.7614 36.6783 47.4644 35.5964L49.6488 32.9932ZM-136.54 36.3402L-134.27 38.8589C-135.533 39.9745 -136.779 41.124 -137.99 42.2904L-140.363 39.8562C-139.117 38.656 -137.837 37.4896 -136.54 36.3402ZM57.3967 39.8731C58.6425 41.0733 59.8713 42.2735 61.0829 43.5075L58.6254 45.8571C57.4479 44.6569 56.2533 43.4568 55.0245 42.2904L57.3967 39.8731ZM-144.049 43.4906L-141.591 45.8402C-142.769 47.0404 -143.929 48.2744 -145.056 49.5253L-147.599 47.2602C-146.421 45.9755 -145.243 44.7246 -144.049 43.4906ZM64.6156 47.294C65.776 48.5787 66.9024 49.8634 68.0117 51.1819L65.3835 53.3456C64.2913 52.0609 63.182 50.7931 62.0557 49.5422L64.6156 47.294ZM-150.995 51.165L-148.366 53.3287C-149.459 54.6134 -150.517 55.9319 -151.558 57.2504L-154.254 55.1881C-153.196 53.8189 -152.104 52.4835 -150.995 51.165ZM71.2713 55.205C72.3293 56.5574 73.3704 57.9435 74.3772 59.3296L71.5955 61.3074C70.6057 59.9382 69.5988 58.6027 68.5578 57.2673L71.2713 55.205ZM-157.36 59.3127L-154.578 61.2905C-155.568 62.6597 -156.524 64.0458 -157.463 65.432L-160.313 63.5556C-159.357 62.1357 -158.384 60.7158 -157.36 59.3127ZM77.3297 63.5725C78.2853 64.9925 79.224 66.4462 80.1285 67.9169L77.2102 69.6749C76.3228 68.238 75.4183 66.835 74.4797 65.432L77.3297 63.5725ZM-163.128 67.9169L-160.21 69.6749C-161.098 71.1117 -161.951 72.5486 -162.787 74.0192L-165.757 72.3626C-164.903 70.8751 -164.033 69.3875 -163.128 67.9169ZM82.7566 72.3457C83.6099 73.8333 84.429 75.3546 85.2311 76.876L82.1934 78.4311C81.4084 76.9436 80.6234 75.473 79.7871 74.0192L82.7566 72.3457ZM-168.231 76.9098L-165.193 78.465C-165.978 79.9525 -166.712 81.4739 -167.446 82.9952L-170.535 81.5584C-169.801 79.9863 -169.033 78.4481 -168.231 76.9098ZM87.518 81.4908C88.2518 83.0459 88.9686 84.6011 89.6341 86.1901L86.494 87.5086C85.8284 85.9703 85.1458 84.4321 84.429 82.9276L87.518 81.4908ZM-172.668 86.2577L-169.528 87.5931C-170.194 89.1314 -170.825 90.7035 -171.44 92.2755L-174.631 91.0753C-173.999 89.4357 -173.351 87.8467 -172.668 86.2577ZM91.5967 90.957C92.2111 92.5629 92.8084 94.1688 93.3716 95.8085L90.1461 96.9072C89.6 95.3183 89.0198 93.7462 88.4225 92.1741L91.5967 90.957ZM-176.406 95.9099L-173.18 97.0087C-173.726 98.5976 -174.255 100.204 -174.733 101.809L-178.01 100.846C-177.498 99.1893 -176.969 97.5496 -176.406 95.9099ZM94.9587 100.711C95.4536 102.35 95.9314 104.007 96.3751 105.68L93.0644 106.543C92.6377 104.92 92.1769 103.297 91.682 101.691L94.9587 100.711ZM-179.409 105.799L-176.099 106.644C-176.525 108.267 -176.918 109.89 -177.293 111.529L-180.621 110.802C-180.246 109.129 -179.836 107.455 -179.409 105.799ZM97.5868 110.684C97.9623 112.357 98.3036 114.048 98.6278 115.738L95.2659 116.364C94.9587 114.707 94.6174 113.067 94.259 111.428L97.5868 110.684ZM-181.645 115.874L-178.283 116.482C-178.607 118.122 -178.88 119.778 -179.119 121.435L-182.498 120.945C-182.242 119.254 -181.969 117.547 -181.645 115.874ZM99.4811 120.809C99.7371 122.5 99.959 124.207 100.147 125.931L96.7506 126.303C96.5629 124.63 96.341 122.973 96.1021 121.317L99.4811 120.809ZM-183.164 126.067L-179.768 126.439C-179.955 128.095 -180.109 129.769 -180.228 131.442L-183.625 131.205C-183.505 129.481 -183.351 127.774 -183.164 126.067ZM100.625 131.053C100.744 132.761 100.846 134.485 100.915 136.209L97.5015 136.327C97.4332 134.637 97.3479 132.963 97.2284 131.307L100.625 131.053ZM-183.898 136.344L-180.484 136.463C-180.553 138.136 -180.587 139.81 -180.587 141.5V141.787H-184V141.466C-184 139.776 -183.966 138.052 -183.898 136.344ZM101 141.365V141.5C101 143.173 100.966 144.847 100.915 146.504L97.5015 146.385C97.5527 144.762 97.5868 143.123 97.5868 141.5L101 141.365ZM-180.484 146.825C-180.416 148.515 -180.331 150.189 -180.194 151.845L-183.59 152.099C-183.727 150.391 -183.812 148.667 -183.881 146.96L-180.484 146.825ZM97.2284 151.423L100.625 151.659C100.505 153.384 100.351 155.091 100.164 156.798L96.7677 156.443C96.9554 154.77 97.109 153.096 97.2284 151.423ZM-179.734 156.849C-179.546 158.522 -179.324 160.179 -179.085 161.836L-182.464 162.326C-182.72 160.635 -182.942 158.928 -183.13 157.221L-179.734 156.849ZM96.1533 161.43L99.5323 161.92C99.2763 163.627 99.0033 165.318 98.6961 167.008L95.3341 166.4C95.6242 164.743 95.8973 163.086 96.1533 161.43ZM-178.249 166.805C-177.942 168.462 -177.6 170.102 -177.225 171.741L-180.553 172.485C-180.928 170.812 -181.269 169.121 -181.594 167.431L-178.249 166.805ZM94.3272 171.319L97.6551 172.046C97.2796 173.736 96.8701 175.393 96.4434 177.066L93.1326 176.221C93.5593 174.598 93.9518 172.958 94.3272 171.319ZM-176.03 176.627C-175.604 178.249 -175.143 179.872 -174.648 181.478L-177.907 182.458C-178.402 180.819 -178.88 179.162 -179.324 177.506L-176.03 176.627ZM91.7674 181.055L95.044 182.019C94.5491 183.675 94.0201 185.315 93.4569 186.938L90.2314 185.856C90.7776 184.267 91.2895 182.661 91.7674 181.055ZM-173.078 186.245C-172.532 187.834 -171.951 189.406 -171.337 190.978L-174.528 192.195C-175.143 190.589 -175.74 188.983 -176.303 187.344L-173.078 186.245ZM88.4907 190.589L91.682 191.789C91.0677 193.395 90.4192 195.001 89.7365 196.59L86.5964 195.272C87.262 193.733 87.8934 192.161 88.4907 190.589ZM-169.443 195.627C-168.777 197.165 -168.095 198.686 -167.361 200.208L-170.45 201.644C-171.184 200.089 -171.9 198.534 -172.583 196.962L-169.443 195.627ZM84.5144 199.87L87.6033 201.306C86.8695 202.862 86.1015 204.417 85.2994 205.938L82.2617 204.4C83.0467 202.912 83.7976 201.408 84.5144 199.87ZM-165.125 204.704C-164.34 206.192 -163.538 207.662 -162.719 209.116L-165.688 210.773C-166.542 209.285 -167.361 207.781 -168.163 206.242L-165.125 204.704ZM79.8724 208.846L82.8419 210.502C81.9886 212.007 81.1183 213.494 80.2138 214.948L77.2955 213.19C78.1829 211.753 79.0362 210.299 79.8724 208.846ZM-160.142 213.443C-159.254 214.88 -158.35 216.283 -157.411 217.686L-160.261 219.563C-161.217 218.143 -162.156 216.689 -163.06 215.218L-160.142 213.443ZM74.565 217.433L77.415 219.292C76.4593 220.729 75.4695 222.149 74.4626 223.535L71.6809 221.574C72.6707 220.222 73.6263 218.836 74.565 217.433ZM-154.51 221.811C-153.52 223.18 -152.513 224.516 -151.472 225.834L-154.169 227.896C-155.227 226.544 -156.268 225.158 -157.275 223.772L-154.51 221.811ZM68.6602 225.631L71.3566 227.694C70.2985 229.063 69.2063 230.398 68.097 231.717L65.4689 229.553C66.5611 228.268 67.6192 226.95 68.6602 225.631ZM-148.298 229.756C-147.206 231.041 -146.097 232.308 -144.97 233.559L-147.513 235.824C-148.674 234.54 -149.8 233.255 -150.926 231.936L-148.298 229.756ZM62.1581 233.373L64.7009 235.621C63.5404 236.906 62.3629 238.157 61.1512 239.408L58.6937 237.058C59.8713 235.841 61.0317 234.624 62.1581 233.373ZM-141.506 237.244C-140.328 238.444 -139.134 239.645 -137.905 240.794L-140.277 243.228C-141.523 242.045 -142.752 240.828 -143.963 239.594L-141.506 237.244ZM55.1099 240.608L57.482 243.042C56.2362 244.243 54.9734 245.409 53.6764 246.558L51.3895 244.04C52.6524 242.924 53.8811 241.775 55.1099 240.608ZM-134.185 244.226C-132.922 245.341 -131.642 246.44 -130.345 247.522L-132.529 250.125C-133.86 249.026 -135.175 247.911 -136.472 246.761L-134.185 244.226ZM47.5497 247.336L49.7341 249.939C48.403 251.038 47.0548 252.12 45.6725 253.168L43.5904 250.497C44.9386 249.466 46.2527 248.401 47.5497 247.336ZM-126.369 250.649C-125.02 251.68 -123.672 252.678 -122.29 253.658L-124.269 256.413C-125.686 255.416 -127.085 254.385 -128.451 253.337L-126.369 250.649ZM39.5287 253.489L41.5254 256.244C40.126 257.242 38.6925 258.222 37.2419 259.169L35.3476 256.346C36.7641 255.416 38.1464 254.469 39.5287 253.489ZM-118.109 256.515C-116.692 257.445 -115.259 258.34 -113.808 259.219L-115.583 262.11C-117.068 261.214 -118.535 260.284 -119.986 259.338L-118.109 256.515ZM31.0811 259.05L32.856 261.941C31.3713 262.837 29.8865 263.699 28.3677 264.544L26.6952 261.603C28.1799 260.775 29.6305 259.929 31.0811 259.05ZM-109.422 261.755C-107.937 262.583 -106.453 263.378 -104.934 264.139L-106.487 267.147C-108.04 266.353 -109.576 265.542 -111.078 264.696L-109.422 261.755ZM22.241 263.986L23.8111 266.995C22.2751 267.773 20.7222 268.534 19.1521 269.277L17.7015 266.218C19.2204 265.491 20.7392 264.747 22.241 263.986ZM-100.36 266.353C-98.8243 267.063 -97.2713 267.756 -95.7012 268.398L-97.0323 271.509C-98.6365 270.833 -100.224 270.139 -101.794 269.413L-100.36 266.353ZM13.0767 268.263L14.4248 271.373C12.8377 272.05 11.2335 272.692 9.61227 273.301L8.38354 270.139C9.97067 269.548 11.5237 268.905 13.0767 268.263ZM-90.991 270.292C-89.4039 270.883 -87.8168 271.458 -86.1955 271.999L-87.2877 275.194C-88.9431 274.636 -90.5814 274.061 -92.2027 273.436L-90.991 270.292ZM3.60509 271.864L4.71438 275.059C3.07605 275.616 1.42066 276.14 -0.234729 276.648L-1.22455 273.402C0.396705 272.912 2.01797 272.405 3.60509 271.864ZM-81.3659 273.52C-79.7446 273.994 -78.1063 274.45 -76.468 274.873L-77.3213 278.152C-79.0108 277.729 -80.6832 277.256 -82.3386 276.766L-81.3659 273.52ZM-6.10539 274.771L-5.23503 278.051C-6.90748 278.49 -8.597 278.896 -10.2865 279.268L-11.0374 275.971C-9.38204 275.583 -7.74372 275.194 -6.10539 274.771ZM-71.5189 276.056C-69.8635 276.411 -68.2081 276.749 -66.5356 277.053L-67.15 280.383C-68.8566 280.079 -70.5632 279.741 -72.2527 279.369L-71.5189 276.056ZM-16.0207 276.969L-15.3892 280.299C-17.0958 280.603 -18.8024 280.89 -20.526 281.144L-21.021 277.797C-19.3485 277.543 -17.676 277.273 -16.0207 276.969ZM-61.5353 277.848C-59.8629 278.084 -58.1904 278.287 -56.5009 278.473L-56.8593 281.837C-58.5829 281.651 -60.3066 281.431 -62.0302 281.195L-61.5353 277.848ZM-26.0725 278.422L-25.697 281.786C-27.4207 281.972 -29.1443 282.124 -30.885 282.26L-31.141 278.896C-29.4344 278.761 -27.7449 278.608 -26.0725 278.422ZM-51.4323 278.93C-49.7428 279.048 -48.0533 279.132 -46.3638 279.2L-46.4832 282.581C-48.2239 282.53 -49.9647 282.429 -51.6713 282.31L-51.4323 278.93ZM-36.1925 279.166L-36.0731 282.547C-37.7967 282.615 -39.5374 282.648 -41.2781 282.648V279.268C-39.5716 279.268 -37.882 279.234 -36.1925 279.166Z" fill="#EEAA2B"/>
</g>
<defs>
<clipPath id="clip0_77_2">
<rect width="285" height="282.297" fill="white" transform="translate(-184 0.351547)"/>
</clipPath>
</defs>
</svg>
