<svg viewBox="0 0 145 100" fill="none" xmlns="http://www.w3.org/2000/svg"><g clip-path="url(#a)" fill="#DB6300"><path d="M138.88 40.41a3.05 3.05 0 0 1 3.03-3.06 3.05 3.05 0 0 1 3.03 3.06 3.05 3.05 0 0 1-3.03 3.07 3.05 3.05 0 0 1-3.03-3.07Zm-19.84 0a3.05 3.05 0 0 1 3.03-3.06 3.05 3.05 0 0 1 3.03 3.06 3.05 3.05 0 0 1-3.03 3.07 3.05 3.05 0 0 1-3.03-3.07Zm-19.84 0a3.05 3.05 0 0 1 3.03-3.06 3.05 3.05 0 0 1 3.03 3.06 3.05 3.05 0 0 1-3.03 3.07 3.05 3.05 0 0 1-3.02-3.07Zm-19.84 0a3.05 3.05 0 0 1 3.03-3.06 3.05 3.05 0 0 1 3.03 3.06 3.05 3.05 0 0 1-3.03 3.07 3.05 3.05 0 0 1-3.03-3.07Zm-19.83 0a3.05 3.05 0 0 1 3.02-3.06 3.05 3.05 0 0 1 3.03 3.06 3.05 3.05 0 0 1-3.03 3.07 3.05 3.05 0 0 1-3.02-3.07Zm-19.85 0a3.05 3.05 0 0 1 3.03-3.06 3.05 3.05 0 0 1 3.03 3.06 3.05 3.05 0 0 1-3.03 3.07 3.05 3.05 0 0 1-3.03-3.07Zm-19.83 0a3.05 3.05 0 0 1 3.03-3.06 3.05 3.05 0 0 1 3.02 3.06 3.05 3.05 0 0 1-3.02 3.07 3.05 3.05 0 0 1-3.03-3.07Zm-19.85 0a3.05 3.05 0 0 1 3.03-3.06 3.05 3.05 0 0 1 3.03 3.06 3.05 3.05 0 0 1-3.03 3.07 3.05 3.05 0 0 1-3.03-3.07Zm138.88-18.68a3.05 3.05 0 0 1 3.03-3.06 3.05 3.05 0 0 1 3.03 3.06 3.05 3.05 0 0 1-3.03 3.07 3.04 3.04 0 0 1-3.03-3.07Zm-19.84 0a3.05 3.05 0 0 1 3.03-3.06 3.05 3.05 0 0 1 3.03 3.06 3.05 3.05 0 0 1-3.03 3.07 3.04 3.04 0 0 1-3.03-3.07Zm-19.84 0a3.05 3.05 0 0 1 3.03-3.06 3.05 3.05 0 0 1 3.03 3.06 3.05 3.05 0 0 1-3.03 3.07 3.04 3.04 0 0 1-3.02-3.07Zm-19.84 0a3.05 3.05 0 0 1 3.03-3.06 3.05 3.05 0 0 1 3.03 3.06 3.05 3.05 0 0 1-3.03 3.07 3.04 3.04 0 0 1-3.03-3.07Zm-19.83 0a3.05 3.05 0 0 1 3.02-3.06 3.05 3.05 0 0 1 3.03 3.06 3.05 3.05 0 0 1-3.03 3.07 3.04 3.04 0 0 1-3.02-3.07Zm-19.85 0a3.05 3.05 0 0 1 3.03-3.06 3.05 3.05 0 0 1 3.03 3.06 3.05 3.05 0 0 1-3.03 3.07 3.04 3.04 0 0 1-3.03-3.07Zm-19.83 0a3.05 3.05 0 0 1 3.03-3.06 3.05 3.05 0 0 1 3.02 3.06 3.05 3.05 0 0 1-3.02 3.07 3.04 3.04 0 0 1-3.03-3.07Zm-19.85 0a3.05 3.05 0 0 1 3.03-3.06 3.05 3.05 0 0 1 3.03 3.06 3.05 3.05 0 0 1-3.03 3.07 3.04 3.04 0 0 1-3.03-3.07Zm138.88-18.67a3.05 3.05 0 0 1 3.03-3.06 3.05 3.05 0 0 1 3.03 3.06 3.05 3.05 0 0 1-3.03 3.07 3.06 3.06 0 0 1-3.03-3.07Zm-16.81 3.07a3.05 3.05 0 0 0 3.03-3.07 3.05 3.05 0 0 0-3.03-3.06 3.05 3.05 0 0 0-3.03 3.06c0 1.7 1.35 3.07 3.03 3.07Zm-22.87-3.07c0-1.7 1.36-3.06 3.02-3.06a3.05 3.05 0 0 1 3.03 3.06 3.05 3.05 0 0 1-3.03 3.07 3.05 3.05 0 0 1-3.01-3.07Zm-19.84 0a3.05 3.05 0 0 1 3.03-3.06 3.05 3.05 0 0 1 3.03 3.06 3.05 3.05 0 0 1-3.03 3.07 3.06 3.06 0 0 1-3.03-3.07Zm-16.82 3.07a3.05 3.05 0 0 0 3.03-3.07 3.05 3.05 0 0 0-3.03-3.06 3.05 3.05 0 0 0-3.03 3.06c0 1.7 1.36 3.07 3.03 3.07Zm-22.86-3.07a3.05 3.05 0 0 1 3.03-3.06 3.05 3.05 0 0 1 3.03 3.06 3.05 3.05 0 0 1-3.03 3.07 3.06 3.06 0 0 1-3.03-3.07Zm-19.83 0a3.05 3.05 0 0 1 3.03-3.06 3.05 3.05 0 0 1 3.02 3.06 3.05 3.05 0 0 1-3.02 3.07 3.06 3.06 0 0 1-3.03-3.07Zm-16.82 3.07a3.05 3.05 0 0 0 3.03-3.07 3.05 3.05 0 0 0-3.03-3.06 3.05 3.05 0 0 0-3.03 3.06c0 1.7 1.36 3.07 3.03 3.07Z"/></g><g clip-path="url(#b)" fill="#DB6300"><path d="M138.88 96.94a3.05 3.05 0 0 1 3.03-3.07 3.05 3.05 0 0 1 3.03 3.07 3.05 3.05 0 0 1-3.03 3.06 3.05 3.05 0 0 1-3.03-3.06Zm-19.84 0a3.05 3.05 0 0 1 3.03-3.07 3.05 3.05 0 0 1 3.03 3.07 3.05 3.05 0 0 1-3.03 3.06 3.05 3.05 0 0 1-3.03-3.06Zm-19.84 0a3.05 3.05 0 0 1 3.03-3.07 3.05 3.05 0 0 1 3.03 3.07 3.05 3.05 0 0 1-3.03 3.06 3.05 3.05 0 0 1-3.02-3.06Zm-19.84 0a3.05 3.05 0 0 1 3.03-3.07 3.05 3.05 0 0 1 3.03 3.07 3.05 3.05 0 0 1-3.03 3.06 3.05 3.05 0 0 1-3.03-3.06Zm-19.83 0a3.05 3.05 0 0 1 3.02-3.07 3.05 3.05 0 0 1 3.03 3.07 3.05 3.05 0 0 1-3.03 3.06 3.05 3.05 0 0 1-3.02-3.06Zm-19.85 0a3.05 3.05 0 0 1 3.03-3.07 3.05 3.05 0 0 1 3.03 3.07 3.05 3.05 0 0 1-3.03 3.06 3.05 3.05 0 0 1-3.03-3.06Zm-19.83 0a3.05 3.05 0 0 1 3.03-3.07 3.05 3.05 0 0 1 3.02 3.07 3.05 3.05 0 0 1-3.02 3.06 3.05 3.05 0 0 1-3.03-3.06Zm-19.85 0a3.05 3.05 0 0 1 3.03-3.07 3.05 3.05 0 0 1 3.03 3.07 3.05 3.05 0 0 1-3.03 3.06 3.05 3.05 0 0 1-3.03-3.06Zm138.88-18.69a3.05 3.05 0 0 1 3.03-3.06 3.05 3.05 0 0 1 3.03 3.06 3.05 3.05 0 0 1-3.03 3.07 3.04 3.04 0 0 1-3.03-3.07Zm-19.84 0a3.05 3.05 0 0 1 3.03-3.06 3.05 3.05 0 0 1 3.03 3.06 3.05 3.05 0 0 1-3.03 3.07 3.04 3.04 0 0 1-3.03-3.07Zm-19.84 0a3.05 3.05 0 0 1 3.03-3.06 3.05 3.05 0 0 1 3.03 3.06 3.05 3.05 0 0 1-3.03 3.07 3.04 3.04 0 0 1-3.02-3.07Zm-19.84 0a3.05 3.05 0 0 1 3.03-3.06 3.05 3.05 0 0 1 3.03 3.06 3.05 3.05 0 0 1-3.03 3.07 3.04 3.04 0 0 1-3.03-3.07Zm-19.83 0a3.05 3.05 0 0 1 3.02-3.06 3.05 3.05 0 0 1 3.03 3.06 3.05 3.05 0 0 1-3.03 3.07 3.04 3.04 0 0 1-3.02-3.07Zm-19.85 0a3.05 3.05 0 0 1 3.03-3.06 3.05 3.05 0 0 1 3.03 3.06 3.05 3.05 0 0 1-3.03 3.07 3.04 3.04 0 0 1-3.03-3.07Zm-19.83 0a3.05 3.05 0 0 1 3.03-3.06 3.05 3.05 0 0 1 3.02 3.06 3.05 3.05 0 0 1-3.02 3.07 3.04 3.04 0 0 1-3.03-3.07Zm-19.85 0a3.05 3.05 0 0 1 3.03-3.06 3.05 3.05 0 0 1 3.03 3.06 3.05 3.05 0 0 1-3.03 3.07 3.04 3.04 0 0 1-3.03-3.07Zm138.88-18.66a3.05 3.05 0 0 1 3.03-3.07 3.05 3.05 0 0 1 3.03 3.07 3.05 3.05 0 0 1-3.03 3.06 3.06 3.06 0 0 1-3.03-3.06Zm-16.81 3.06a3.05 3.05 0 0 0 3.03-3.06c0-1.7-1.36-3.07-3.03-3.07a3.05 3.05 0 0 0-3.03 3.07 3.04 3.04 0 0 0 3.03 3.06Zm-22.87-3.06c0-1.7 1.36-3.07 3.02-3.07a3.05 3.05 0 0 1 3.03 3.07 3.05 3.05 0 0 1-3.03 3.06 3.05 3.05 0 0 1-3.01-3.06Zm-19.84 0a3.05 3.05 0 0 1 3.03-3.07 3.05 3.05 0 0 1 3.03 3.07 3.05 3.05 0 0 1-3.03 3.06 3.06 3.06 0 0 1-3.03-3.06Zm-16.82 3.06a3.05 3.05 0 0 0 3.03-3.06c0-1.7-1.36-3.07-3.03-3.07a3.05 3.05 0 0 0-3.03 3.07 3.05 3.05 0 0 0 3.03 3.06Zm-22.86-3.06a3.05 3.05 0 0 1 3.03-3.07 3.05 3.05 0 0 1 3.03 3.07 3.05 3.05 0 0 1-3.03 3.06 3.06 3.06 0 0 1-3.03-3.06Zm-19.83 0a3.05 3.05 0 0 1 3.03-3.07 3.05 3.05 0 0 1 3.02 3.07 3.05 3.05 0 0 1-3.02 3.06 3.06 3.06 0 0 1-3.03-3.06Zm-16.82 3.06a3.05 3.05 0 0 0 3.03-3.06c0-1.7-1.36-3.07-3.03-3.07a3.05 3.05 0 0 0-3.03 3.07 3.05 3.05 0 0 0 3.03 3.06Z"/></g><defs><clipPath id="a"><path fill="#fff" d="M0 0h144.93v43.48h-144.93z"/></clipPath><clipPath id="b"><path fill="#fff" transform="translate(0 56.522)" d="M0 0h144.93v43.48h-144.93z"/></clipPath></defs></svg>