<svg viewBox="0 0 21 21" fill="none" xmlns="http://www.w3.org/2000/svg"><path d="M13.78 10.5a3.28 3.28 0 1 1-6.5-.55h-1.16v4.37c0 .3.25.55.56.55h7.65a.55.55 0 0 0 .54-.55v-4.37h-1.14c.03.18.05.36.05.55Zm-3.28 2.19a2.19 2.19 0 1 0 0-4.38 2.19 2.19 0 0 0 0 4.38Zm2.63-4.49h1.3a.33.33 0 0 0 .34-.32v-1.32a.33.33 0 0 0-.33-.33h-1.31a.33.33 0 0 0-.33.33v1.32c0 .18.14.32.32.32Zm-2.63-8.2a10.5 10.5 0 1 0 0 21 10.5 10.5 0 0 0 0-21Zm5.47 14.75c0 .67-.55 1.22-1.22 1.22h-8.5c-.67 0-1.22-.55-1.22-1.22v-8.5c0-.67.55-1.22 1.22-1.22h8.5c.67 0 1.22.55 1.22 1.22v8.5Z" fill="#E6E6E6"/></svg>