<svg viewBox="0 0 70 71" fill="none" xmlns="http://www.w3.org/2000/svg"><path d="M44.33 44.65v-10.61a3.5 3.5 0 0 0-3.5-3.5h-32.66a3.5 3.5 0 0 0-3.5 3.5v10.61a5.84 5.84 0 0 0-4.67 5.72v18.67c0 .64.52 1.16 1.17 1.16h4.66c.65 0 1.17-.52 1.17-1.16v-3.5h35v3.5c0 .64.52 1.16 1.17 1.16h4.66c.65 0 1.17-.52 1.17-1.16v-18.67c0-2.82-2-5.17-4.67-5.72Zm-37.33-10.61c0-.65.52-1.17 1.17-1.17h32.66c.65 0 1.17.52 1.17 1.17v10.5h-2.33v-4.67a3.5 3.5 0 0 0-3.5-3.5h-7a3.5 3.5 0 0 0-3.5 3.5v4.67h-2.34v-4.67a3.5 3.5 0 0 0-3.5-3.5h-7a3.5 3.5 0 0 0-3.5 3.5v4.67h-2.33v-10.5Zm30.33 5.83v4.67h-9.33v-4.67c0-.64.52-1.17 1.17-1.17h7c.64 0 1.16.53 1.16 1.17Zm-16.33 0v4.67h-9.33v-4.67c0-.64.52-1.17 1.16-1.17h7c.65 0 1.17.53 1.17 1.17Zm25.67 28h-2.34v-3.5c0-.65-.52-1.17-1.16-1.17h-37.34c-.64 0-1.16.52-1.16 1.17v3.5h-2.34v-9.33h44.34v9.33Zm0-11.67h-44.34v-5.83a3.5 3.5 0 0 1 3.5-3.5h37.34a3.5 3.5 0 0 1 3.5 3.5v5.83Zm22.16-11.66h-16.33c-.64 0-1.17.52-1.17 1.16v17.5h2.34v-7h14v7h2.33v-17.5c0-.64-.52-1.16-1.17-1.16Zm-1.16 9.33h-14v-7h14v7Z" fill="#DB6300"/><path d="M63 49.2h-4.67v2.34h4.67v-2.34Zm3.44-14.37-2.33-7c-.16-.47-.6-.8-1.11-.8h-4.67c-.5 0-.94.33-1.1.8l-2.34 7a1.17 1.17 0 0 0 1.11 1.54h3.5v3.5h-2.33v2.33h7v-2.33h-2.34v-3.5h3.5a1.16 1.16 0 0 0 1.11-1.54Zm-8.82-.8 1.55-4.66h2.99l1.56 4.67h-6.1Z" fill="#DB6300"/><path d="m69.31 15.47-33.83-15.17c-.3-.13-.65-.13-.96 0l-33.83 15.17c-.42.19-.69.6-.69 1.07v14h2.33v-13.25l32.67-14.64 32.67 14.64v13.25h2.33v-14c0-.46-.27-.88-.69-1.07Z" fill="#DB6300"/><path d="m43.05 16.34-2.3.39a5.84 5.84 0 1 1-3.8-4.53l.77-2.2a8.18 8.18 0 1 0-2.72 15.87 8.18 8.18 0 0 0 8.05-9.53Z" fill="#DB6300"/><path d="m42.34 9.88-7.34 7.34-1.5-1.5-1.66 1.64 2.34 2.33a1.16 1.16 0 0 0 1.64 0l8.17-8.16-1.65-1.65Z" fill="#DB6300"/></svg>